<svg xmlns="http://www.w3.org/2000/svg" width="62" height="62" viewBox="0 0 62 62">
  <g id="access-customer-icon" transform="translate(-1 -1)">
    <path id="Path_327" data-name="Path 327" d="M60,17a3,3,0,0,0,3-3V4a3,3,0,0,0-3-3H44a3,3,0,0,0-3,3V6.539A26.881,26.881,0,0,0,24.323,6.13a12.984,12.984,0,1,0-18.2,18.191A26.915,26.915,0,0,0,7.338,43H4a3,3,0,0,0-3,3V56a3,3,0,0,0,3,3H7v2H5v2H19V61H17V59h3a2.993,2.993,0,0,0,2.67-1.66,27.05,27.05,0,0,0,18.66,0A2.993,2.993,0,0,0,44,59h3v2H45v2H59V61H57V59h3a3,3,0,0,0,3-3V46a3,3,0,0,0-3-3H56.663a27.056,27.056,0,0,0,0-22H59V19H57V17Zm0-2H44a1,1,0,0,1-1-1V13H61v1A1,1,0,0,1,60,15ZM44,3H60a1,1,0,0,1,1,1v7H43V4A1,1,0,0,1,44,3ZM14,3c1.075,0,2.22,1.527,3.009,4H10.99c.79-2.473,1.935-4,3.01-4Zm3.519,6a24.8,24.8,0,0,1,.46,4H10.021a24.91,24.91,0,0,1,.46-4Zm.46,6a24.91,24.91,0,0,1-.46,4H10.481a24.8,24.8,0,0,1-.46-4ZM8.022,13H3.051A10.9,10.9,0,0,1,4.215,9H8.431a27.288,27.288,0,0,0-.409,4Zm0,2a27.425,27.425,0,0,0,.409,4H4.214A10.919,10.919,0,0,1,3.05,15ZM8.9,21a13.82,13.82,0,0,0,1.391,3.341A11.046,11.046,0,0,1,5.521,21Zm2.1,0H17.01c-.789,2.473-1.935,4-3.009,4S11.78,23.473,10.991,21ZM19.1,21h3.373a11.043,11.043,0,0,1-4.764,3.341A13.82,13.82,0,0,0,19.1,21Zm4.681-2H19.57a27.425,27.425,0,0,0,.409-4H24.95a10.919,10.919,0,0,1-1.164,4Zm-3.808-6a27.425,27.425,0,0,0-.409-4h4.216a10.919,10.919,0,0,1,1.164,4Zm2.5-6H19.106a13.82,13.82,0,0,0-1.391-3.341A11.049,11.049,0,0,1,22.479,7ZM10.286,3.659A13.82,13.82,0,0,0,8.895,7H5.521A11.046,11.046,0,0,1,10.286,3.659ZM4,45H20a1,1,0,0,1,1,1v7H3V46a1,1,0,0,1,1-1ZM15,61H9V59h6Zm5-4H4a1,1,0,0,1-1-1V55H21v1A1,1,0,0,1,20,57Zm35,4H49V59h6Zm5-4H44a1,1,0,0,1-1-1V55H61v1A1,1,0,0,1,60,57Zm1-11v7H43V46a1,1,0,0,1,1-1H60A1,1,0,0,1,61,46ZM57,32a25.054,25.054,0,0,1-2.556,11H44a3,3,0,0,0-3,3v9.323a25.21,25.21,0,0,1-18,0V46a3,3,0,0,0-3-3H9.556A24.841,24.841,0,0,1,7.882,25.464,12.99,12.99,0,0,0,25.463,7.88,24.876,24.876,0,0,1,41,8.677V14a3,3,0,0,0,3,3h3v2H45v2h9.445A24.707,24.707,0,0,1,57,32ZM55,19H49V17h6Z" fill="#727272"/>
    <path id="Path_328" data-name="Path 328" d="M32,35a3,3,0,1,0,3,3A3,3,0,0,0,32,35Zm0,4a1,1,0,1,1,1-1A1,1,0,0,1,32,39Z" fill="#3b4550"/>
    <path id="Path_329" data-name="Path 329" d="M27.051,33.051l1.414,1.414a5,5,0,0,1,7.07,0l1.414-1.414a7,7,0,0,0-9.9,0Z" fill="#3b4550"/>
    <path id="Path_330" data-name="Path 330" d="M24.222,30.222l1.414,1.414a9.01,9.01,0,0,1,12.729,0l1.414-1.414A11.013,11.013,0,0,0,24.222,30.222Z" fill="#3b4550"/>
    <path id="Path_331" data-name="Path 331" d="M21.394,27.394l1.414,1.414a13,13,0,0,1,18.384,0l1.414-1.414a15,15,0,0,0-21.212,0Z" fill="#3b4550"/>
  </g>
</svg>
