<svg xmlns="http://www.w3.org/2000/svg" width="62" height="62" viewBox="0 0 62 62">
  <g id="collabration-partnerships-icon" transform="translate(-1 -1)">
    <path id="Path_383" data-name="Path 383" d="M60,3H44a2,2,0,0,0-2-2H22a2,2,0,0,0-2,2H4A3,3,0,0,0,1,6V8a3,3,0,0,0,2,2.816V32.061A2.617,2.617,0,0,0,1,34.6a2.662,2.662,0,0,0,.276,1.172L2.441,38.1A5.3,5.3,0,0,1,3,40.463v5.546a7.045,7.045,0,0,0,1.39,4.186l.97,1.3A2.993,2.993,0,0,0,4,54v9H26V57H61V10.816A3,3,0,0,0,63,8V6a3,3,0,0,0-3-3ZM22,3H42V5H22ZM4.23,37.2,3.066,34.876A.622.622,0,0,1,3,34.6a.646.646,0,0,1,.714-.618A5.292,5.292,0,0,1,9,39.266V42.98h2V22.021a1,1,0,0,1,2,0v16h2v-6a1,1,0,0,1,2,0v6h2v-5a1,1,0,0,1,2,0v5h2v-3a1,1,0,0,1,2,0v11a5.033,5.033,0,0,1-1,3L22.516,51H7.486L5.993,49A5.036,5.036,0,0,1,5,46.009V40.463A7.332,7.332,0,0,0,4.23,37.2ZM23,15.059v8.527l-5.728,5.728A2.864,2.864,0,0,0,15,29.2V24a9.01,9.01,0,0,1,8-8.941Zm2.969,17.716a2.944,2.944,0,0,0-3.085-.535A2.949,2.949,0,0,0,19.3,30.11L24.414,25h8.525A8.939,8.939,0,0,1,25.969,32.775ZM25,23V15.059A9.012,9.012,0,0,1,32.941,23ZM24,61H6V54a1,1,0,0,1,1-1H23a1,1,0,0,1,1,1Zm2-6V54a3,3,0,0,0-1.356-2.505L25.6,50.22a7.04,7.04,0,0,0,1.4-4.2v-11a3.013,3.013,0,0,0-.043-.428A11,11,0,1,0,13.877,19.7,2.97,2.97,0,0,0,12,19.021a3,3,0,0,0-3,3V34.278A7.352,7.352,0,0,0,5,32.11V11H59V55ZM61,8a1,1,0,0,1-1,1H4A1,1,0,0,1,3,8V6A1,1,0,0,1,4,5H20a2,2,0,0,0,2,2H42a2,2,0,0,0,2-2H60a1,1,0,0,1,1,1Z" fill="#727272"/>
    <path id="Path_384" data-name="Path 384" d="M53,41H47V51H45V37H39V51H37V43H31v8H29v2H55V51H53Zm-4,2h2v8H49Zm-8-4h2V51H41Zm-8,6h2v6H33Z" fill="#727272"/>
    <path id="Path_385" data-name="Path 385" d="M37,19H57V13H37Zm2-4H55v2H39Z" fill="#727272"/>
    <path id="Path_386" data-name="Path 386" d="M37,21h2v2H37Z" fill="#727272"/>
    <path id="Path_387" data-name="Path 387" d="M41,21H57v2H41Z" fill="#727272"/>
    <path id="Path_388" data-name="Path 388" d="M37,25H57v2H37Z" fill="#727272"/>
    <path id="Path_389" data-name="Path 389" d="M37,29H57v2H37Z" fill="#727272"/>
    <path id="Path_390" data-name="Path 390" d="M55,33h2v2H55Z" fill="#727272"/>
    <path id="Path_391" data-name="Path 391" d="M37,33H53v2H37Z" fill="#727272"/>
  </g>
</svg>
