<svg xmlns="http://www.w3.org/2000/svg" width="99.375" height="103" viewBox="0 0 99.375 103">
  <g id="companies-icon" transform="translate(-490.657 479)">
    <g id="noun_company_3508895" transform="translate(490.657 -479)">
      <path id="Path_510" data-name="Path 510" d="M66.945,127h-5.8a1.032,1.032,0,0,0,0,2.064h5.8a1.032,1.032,0,0,0,0-2.064Z" transform="translate(-52.868 -102.278)" fill="#ff9d00"/>
      <path id="Path_511" data-name="Path 511" d="M212.557,129.064h5.8a1.032,1.032,0,1,0,0-2.064h-5.8a1.032,1.032,0,1,0,0,2.064Z" transform="translate(-170.402 -102.278)" fill="#ff9d00"/>
      <path id="Path_512" data-name="Path 512" d="M142.652,127h-5.8a1.032,1.032,0,0,0,0,2.064h5.8a1.032,1.032,0,0,0,0-2.064Z" transform="translate(-110.782 -102.278)" fill="#ff9d00"/>
      <path id="Path_513" data-name="Path 513" d="M66.945,188h-5.8a1.032,1.032,0,0,0,0,2.064h5.8a1.032,1.032,0,0,0,0-2.064Z" transform="translate(-52.868 -150.498)" fill="#ff9d00"/>
      <path id="Path_514" data-name="Path 514" d="M212.557,190.064h5.8a1.032,1.032,0,1,0,0-2.064h-5.8a1.032,1.032,0,1,0,0,2.064Z" transform="translate(-170.402 -150.498)" fill="#ff9d00"/>
      <path id="Path_515" data-name="Path 515" d="M142.652,188h-5.8a1.032,1.032,0,1,0,0,2.064h5.8a1.032,1.032,0,1,0,0-2.064Z" transform="translate(-110.782 -150.498)" fill="#ff9d00"/>
      <path id="Path_516" data-name="Path 516" d="M66.945,249h-5.8a1.032,1.032,0,0,0,0,2.064h5.8a1.032,1.032,0,0,0,0-2.064Z" transform="translate(-52.868 -198.718)" fill="#ff9d00"/>
      <path id="Path_517" data-name="Path 517" d="M212.557,251.064h5.8a1.032,1.032,0,1,0,0-2.064h-5.8a1.032,1.032,0,1,0,0,2.064Z" transform="translate(-170.402 -198.718)" fill="#ff9d00"/>
      <path id="Path_518" data-name="Path 518" d="M142.652,249h-5.8a1.032,1.032,0,0,0,0,2.064h5.8a1.032,1.032,0,0,0,0-2.064Z" transform="translate(-110.782 -198.718)" fill="#ff9d00"/>
      <path id="Path_519" data-name="Path 519" d="M66.945,310h-5.8a1.032,1.032,0,0,0,0,2.064h5.8a1.032,1.032,0,0,0,0-2.064Z" transform="translate(-52.868 -246.938)" fill="#ff9d00"/>
      <path id="Path_520" data-name="Path 520" d="M142.652,310h-5.8a1.032,1.032,0,0,0,0,2.064h5.8a1.032,1.032,0,0,0,0-2.064Z" transform="translate(-110.782 -246.938)" fill="#ff9d00"/>
      <path id="Path_521" data-name="Path 521" d="M90.06,57.358a26.747,26.747,0,0,0-11.154,2.4V22.887a1.237,1.237,0,0,0-1.317-1.163H71.814V10.288A1.375,1.375,0,0,0,70.458,9H26.312a1.26,1.26,0,0,0-1.224,1.288V21.724H19.182A1.124,1.124,0,0,0,18,22.887v83.549a1.179,1.179,0,0,0,1.186,1.231h56.11A27.319,27.319,0,1,0,90.06,57.358ZM27.591,11.5H69.311V21.724H27.591Zm29.621,93.66H38.647V84.512H57.212Zm2.5,0V83.293a1.288,1.288,0,0,0-1.261-1.284H37.334a1.229,1.229,0,0,0-1.19,1.284v21.87H20.5V24.228H76.4V61.042a26.772,26.772,0,0,0-10.43,10.746H59.616a1.252,1.252,0,1,0,0,2.5h5.165A26.622,26.622,0,0,0,62.7,84.7a27.171,27.171,0,0,0,9.28,20.459Zm30.312,4.344A24.823,24.823,0,1,1,114.85,84.685,24.823,24.823,0,0,1,90.027,109.508Z" transform="translate(-17.995 -9)" fill="#ff9d00"/>
      <path id="Path_522" data-name="Path 522" d="M300.939,295.955h-4.757v-.4A3.548,3.548,0,0,0,292.61,292h-6.615a3.548,3.548,0,0,0-3.571,3.56v.4h-4.757a3.723,3.723,0,0,0-3.67,3.8v3.433a2.705,2.705,0,0,0,1.376,2.419v9.705a3.011,3.011,0,0,0,3.065,3h21.73a3.011,3.011,0,0,0,3.065-3V305.63a2.351,2.351,0,0,0,1.376-2.2v-3.681A3.723,3.723,0,0,0,300.939,295.955Zm-16.452-.4a1.482,1.482,0,0,1,1.508-1.5h6.615a1.482,1.482,0,0,1,1.508,1.5v.4h-9.631Zm-8.427,4.191a1.658,1.658,0,0,1,1.606-1.732h23.272a1.658,1.658,0,0,1,1.606,1.732v3.681a.3.3,0,0,1-.2.316l-9.087,2.686v-.66a1.036,1.036,0,0,0-1.019-1.049h-5.873a1.036,1.036,0,0,0-1.019,1.049v.759l-8.842-2.7a.644.644,0,0,1-.444-.648Zm15.134,7.039V309a1.892,1.892,0,0,1-3.783,0V306.79Zm8.973,9.459h-21.73a.946.946,0,0,1-1-.941v-9.022l7.911,2.406V309a3.955,3.955,0,0,0,7.911,0v-.411l7.911-2.328v9.05a.946.946,0,0,1-1,.941Z" transform="translate(-217.523 -229.248)" fill="#ff9d00"/>
    </g>
    <path id="Path_532" data-name="Path 532" d="M32.053,20.948H30.369a1.686,1.686,0,0,1-1.684-1.684H27a3.372,3.372,0,0,0,3.369,3.369v.842h1.684v-.842a3.369,3.369,0,0,0,0-6.737H30.369a1.684,1.684,0,1,1,0-3.369h1.684a1.686,1.686,0,0,1,1.684,1.684h1.684a3.372,3.372,0,0,0-3.369-3.369V10H30.369v.842a3.369,3.369,0,1,0,0,6.737h1.684a1.684,1.684,0,0,1,0,3.369Z" transform="translate(489.294 -406.747)" fill="#ff9d00"/>
  </g>
</svg>
