<svg id="etisalat-logo" xmlns="http://www.w3.org/2000/svg" width="115" height="43.553" viewBox="0 0 115 43.553">
  <path id="Path_205" data-name="Path 205" d="M109.773,0A5.243,5.243,0,0,1,115,5.228v33.1a5.243,5.243,0,0,1-5.227,5.227H5.227A5.243,5.243,0,0,1,0,38.326V5.228A5.243,5.243,0,0,1,5.227,0Z"/>
  <path id="Path_206" data-name="Path 206" d="M192.111,45.611a1.94,1.94,0,0,1-.877-.174c-1.107-.572-1.984-3.334-1.965-6.176a2.689,2.689,0,0,1,2.94-2.876,7.2,7.2,0,0,1,3.232.905c3.4,1.759,4.282,4.521,1.969,6.177a10.555,10.555,0,0,1-5.3,2.144m-.431-12.072a4.294,4.294,0,0,0-1.351.192c-1.532.469-2.138,1.9-2.021,3.882a25.008,25.008,0,0,0,1.191,5.544c.5,1.519.85,2.481,1.473,2.8a1.418,1.418,0,0,0,.666.14,9.709,9.709,0,0,0,2.467-.558,25.1,25.1,0,0,0,5.21-2.242c1.688-1.05,2.5-2.373,2-3.892-.46-1.5-2.237-3.2-4.661-4.451a11.456,11.456,0,0,0-4.977-1.417m-6.172-1.717c-.872,1.14-.9,3.015-.315,5.337.816,3.269,2.228,6.576,2.884,8.78.756,2.261.76,3.42,1.055,3.569l.1.023c.385,0,1.36-.6,3.414-1.229,2.181-.741,5.693-1.505,8.831-2.734,2.214-.863,3.724-1.956,4.16-3.315a8.294,8.294,0,0,1-3.686,2.41c-3.143,1.229-6.651,1.994-8.831,2.735-2.054.623-3.025,1.229-3.414,1.229l-.1-.024c-.3-.15-.3-1.309-1.055-3.569-.657-2.205-2.068-5.511-2.884-8.78a8.273,8.273,0,0,1-.159-4.432" transform="translate(-102.727 -17.689)" fill="#cadb2a"/>
  <path id="Path_207" data-name="Path 207" d="M190.138,26.944a5.536,5.536,0,0,0-1.744.249,2.874,2.874,0,0,0-2,1.917,2.964,2.964,0,0,1,1.524-1.008,5.45,5.45,0,0,1,1.75-.248,20.848,20.848,0,0,1,8.76,2.653c4.254,2.2,7.4,4.972,8.048,7.176a3.12,3.12,0,0,1,.178,1.022v.054a2.619,2.619,0,0,1-.127.781,2.92,2.92,0,0,0,.605-1.735,3.286,3.286,0,0,0-.178-1.027c-.657-2.2-3.8-4.981-8.053-7.176a20.891,20.891,0,0,0-8.766-2.659" transform="translate(-103.615 -14.978)" fill="#4f6931"/>
  <path id="Path_208" data-name="Path 208" d="M192.229,44.526a1.406,1.406,0,0,1-.665-.141c-.625-.321-.969-1.281-1.47-2.8a24.7,24.7,0,0,1-1.191-5.544c-.119-1.987.487-3.415,2.019-3.885a4.3,4.3,0,0,1,1.353-.195,11.445,11.445,0,0,1,4.973,1.418c2.428,1.256,4.2,2.953,4.661,4.45.5,1.52-.313,2.843-2,3.893a24.744,24.744,0,0,1-5.209,2.241,9.732,9.732,0,0,1-2.469.562m-2.854-15.535a5.408,5.408,0,0,0-1.749.249,2.912,2.912,0,0,0-1.523,1.009,8.214,8.214,0,0,0,.158,4.43c.817,3.271,2.225,6.576,2.883,8.782.757,2.259.762,3.417,1.055,3.567l.106.024c.387,0,1.357-.6,3.412-1.228,2.181-.74,5.69-1.506,8.834-2.734a8.279,8.279,0,0,0,3.683-2.411,2.914,2.914,0,0,0-.05-1.856c-.655-2.2-3.795-4.982-8.048-7.178a20.893,20.893,0,0,0-8.761-2.653" transform="translate(-103.32 -16.116)" fill="#7da830"/>
  <path id="Path_209" data-name="Path 209" d="M35.757,51.32,29.072,52a3.221,3.221,0,0,0,3.517,2.9h4.285a.955.955,0,0,1,1.013,1v.857H32.545c-2.977,0-5.48-1.938-5.48-5.907a5.447,5.447,0,0,1,5.728-5.685,4.871,4.871,0,0,1,4.908,3.7c.322,1.35-.406,2.278-1.944,2.45M34.521,49.8a2.017,2.017,0,0,0,1.135-.355.878.878,0,0,0,.044-.9,3.07,3.07,0,0,0-2.93-1.662,3.429,3.429,0,0,0-3.691,3.526S34.254,49.834,34.521,49.8Z" transform="translate(-15.045 -25.11)" fill="#fff"/>
  <path id="Path_210" data-name="Path 210" d="M89.208,45.181c.633,0,1.09.295,1.09.93s-.457.934-1.09.934H84.552c-.977.073-1.1,1.053-1.021,1.659a.749.749,0,0,0,.255.479,3.061,3.061,0,0,0,1.378.441l3.544.625c1.861.338,2.565,1.284,2.565,2.965,0,2.61-1.611,3.579-4.133,3.579H81.257s0-.651,0-.93c0-.636.431-.931,1.089-.931h4.656c1.817,0,2.284-.56,2.282-1.56,0-.9-.251-1.238-1.465-1.442l-3.588-.59c-1.816-.3-2.6-1.252-2.7-2.47-.146-1.786.595-3.69,3.043-3.69h4.633" transform="translate(-45.169 -25.115)" fill="#fff"/>
  <path id="Path_211" data-name="Path 211" d="M115.906,49.259c0-2.021-.547-4.089-3.542-4.089h-4.2c-.659,0-1.091.295-1.091.93s.432.932,1.091.932h3.908c1.384,0,1.839.32,1.839,1.3v.295c-.08.6-.752.737-1.09.817-2.807.659-6.586-.064-6.586,3.976,0,2.156,1.837,3.43,4.36,3.43.029,0,2.532.123,3.455-1.141,0,0,0,.038.006.11a.921.921,0,0,0,1.017.969h.83l.006-7.524m-2,3.359c0,1.977-1.111,2.683-3,2.683-1.7,0-2.679-.614-2.679-1.975a2.017,2.017,0,0,1,1.891-1.851c1.029-.184,2.595-.254,3.787-.526Z" transform="translate(-59.053 -25.11)" fill="#fff"/>
  <path id="Path_212" data-name="Path 212" d="M150.072,49.259c0-2.021-.547-4.089-3.543-4.089h-4.2c-.658,0-1.09.295-1.09.93s.432.932,1.09.932h3.907c1.385,0,1.842.32,1.842,1.3v.295c-.082.6-.754.737-1.092.817-2.807.659-6.585-.064-6.585,3.976,0,2.156,1.838,3.43,4.36,3.43.031,0,2.533.123,3.454-1.141,0,0,0,.038.007.11a.922.922,0,0,0,1.016.969h.832l.006-7.524m-2,3.359c0,1.977-1.114,2.683-3,2.683-1.7,0-2.678-.614-2.678-1.975a2.016,2.016,0,0,1,1.89-1.851c1.029-.184,2.6-.254,3.789-.526Z" transform="translate(-78.045 -25.11)" fill="#fff"/>
  <path id="Path_213" data-name="Path 213" d="M134.416,38.092H133.3a.794.794,0,0,0-.88.88V49.756l-.006,3.09,2,.005V38.092" transform="translate(-73.606 -21.175)" fill="#fff"/>
  <path id="Path_214" data-name="Path 214" d="M58.947,51.193c-1.52,0-2.086-.069-2.086-1.18V43.18H58.63c.636,0,1.089-.295,1.089-.93s-.453-.93-1.089-.93H56.862V38.237H56.01c-.171,0-.288.011-.417.025a.786.786,0,0,0-.73.871V41.32h-.543c-.633,0-1.089.295-1.089.93s.456.93,1.089.93h.543v7.263c0,2.451,1.7,2.481,4.083,2.481l1.181,0s0-.54,0-.8c0-.568-.454-.931-1.181-.931" transform="translate(-29.591 -21.255)" fill="#fff"/>
  <path id="Path_215" data-name="Path 215" d="M170.311,51.193c-1.521,0-2.086-.069-2.086-1.18V43.18h1.768c.635,0,1.089-.295,1.089-.93s-.454-.93-1.089-.93h-1.768V38.237h-.853c-.17,0-.287.011-.416.025a.784.784,0,0,0-.727.871V41.32h-.545c-.633,0-1.09.295-1.09.93s.457.93,1.09.93h.545v7.263c0,2.451,1.7,2.481,4.083,2.481l1.18,0v-.8c0-.568-.455-.931-1.18-.931" transform="translate(-91.495 -21.255)" fill="#fff"/>
  <path id="Path_216" data-name="Path 216" d="M74.635,56.791l0-11.6-1.118,0a.788.788,0,0,0-.882.89c0,.154,0,10.716,0,10.716h2" transform="translate(-40.375 -25.118)" fill="#fff"/>
  <path id="Path_217" data-name="Path 217" d="M73.409,40.452c.487,0,.741.013,1.01-.238.211-.195.212-.545.212-.943,0-.233,0-1.021,0-1.021H73.505a.78.78,0,0,0-.877.883c0,.157,0,1.319,0,1.319h.784" transform="translate(-40.372 -21.263)" fill="#fff"/>
</svg>
