<svg id="Expo-2020" xmlns="http://www.w3.org/2000/svg" xmlns:xlink="http://www.w3.org/1999/xlink" width="244.208" height="78.849" viewBox="0 0 244.208 78.849">
  <defs>
    <radialGradient id="radial-gradient" cx="0.5" cy="0.499" r="0.495" gradientTransform="matrix(0.988, -0.156, 0.156, 0.987, -0.072, 0.085)" gradientUnits="objectBoundingBox">
      <stop offset="0" stop-color="#ffe600"/>
      <stop offset="0.084" stop-color="#ffe102"/>
      <stop offset="0.187" stop-color="#fed208"/>
      <stop offset="0.299" stop-color="#fcb912"/>
      <stop offset="0.3" stop-color="#fcb912"/>
      <stop offset="0.65" stop-color="#9e6133"/>
      <stop offset="0.96" stop-color="#3a1500"/>
    </radialGradient>
  </defs>
  <g id="Group" transform="translate(0 0)">
    <g id="Shape" transform="translate(39.842 69.097)">
      <path id="Path_610" data-name="Path 610" d="M27.071,2.224l-.279.093h0L24.656,7.239h.325l.557-1.3h2.833l.6,1.3h0l.325-.093L27.071,2.224Zm-1.393,3.39,1.3-2.925,1.3,2.925Z" transform="translate(-1.856 -0.505)" fill="#3a1500"/>
      <path id="Path_611" data-name="Path 611" d="M33.833,6.914H30.862V2.224l-.325.093V7.192h3.39Z" transform="translate(-2.21 -0.505)" fill="#3a1500"/>
      <path id="Path_612" data-name="Path 612" d="M23.273,7.192H23.6V2.224l-.329.093Z" transform="translate(-1.773 -0.505)" fill="#3a1500"/>
      <path id="Path_613" data-name="Path 613" d="M174.681,3.4V5.812c0,.743-.465,1.114-1.255,1.114a2.62,2.62,0,0,1-1.207-.325,1.592,1.592,0,0,0,.185-.836V4.14l-.278.093V5.766c0,.743-.464,1.114-1.254,1.114A2.608,2.608,0,0,1,169.8,6.6a1.6,1.6,0,0,0,.232-.836V4.14l-.278.093V5.766c0,.743-.464,1.114-1.254,1.114-.418,0-.975-.093-.975-1.022V3.212l-.278.093V6.927A1.478,1.478,0,0,1,165.579,8.6l.046.325a1.71,1.71,0,0,0,1.9-1.95V6.694a.957.957,0,0,0,.975.557h0a1.53,1.53,0,0,0,1.115-.371,2.916,2.916,0,0,0,1.254.371,1.477,1.477,0,0,0,1.161-.418,2.8,2.8,0,0,0,1.347.418,1.348,1.348,0,0,0,1.533-1.44V3.3Z" transform="translate(-10.343 -0.565)" fill="#3a1500"/>
      <path id="Path_614" data-name="Path 614" d="M164.442,8.774l.325.325.186-.139.186-.186-.372-.325Z" transform="translate(-10.274 -0.88)" fill="#3a1500"/>
      <path id="Path_615" data-name="Path 615" d="M38.91,2.273H36.96V7.2h.325V5.431H38.91a1.528,1.528,0,0,0,1.718-1.579A1.528,1.528,0,0,0,38.91,2.273Zm0,2.833H37.285V2.552H38.91c.882,0,1.44.464,1.44,1.254A1.283,1.283,0,0,1,38.91,5.106Z" transform="translate(-2.597 -0.508)" fill="#3a1500"/>
      <path id="Path_616" data-name="Path 616" d="M45.471,3.762c0-.929-.6-1.44-1.625-1.44H41.8V7.245h.325v-2H43.66l1.765,2.09h0l.371-.093-1.718-2A1.416,1.416,0,0,0,45.471,3.762ZM42.127,4.923V2.6h1.625c.929,0,1.393.371,1.393,1.161s-.464,1.161-1.393,1.161Z" transform="translate(-2.889 -0.511)" fill="#3a1500"/>
      <path id="Path_617" data-name="Path 617" d="M164.447,5.693c0,.743-.464,1.114-1.254,1.114h-.557A1.094,1.094,0,0,1,161.383,5.6V1.235l-.279.093V5.6a2.829,2.829,0,0,0,.093.7,3.745,3.745,0,0,1-2.089.511h-1.022c-1.114,0-1.718-.464-1.718-1.44a9.648,9.648,0,0,1,.139-1.3l-.278-.046a6.406,6.406,0,0,0-.186,1.44c0,1.114.7,1.718,1.951,1.718h1.068a3.287,3.287,0,0,0,2.182-.6,1.328,1.328,0,0,0,1.3.6h.557a1.348,1.348,0,0,0,1.533-1.44V3.232l-.279.093V5.693Z" transform="translate(-9.768 -0.446)" fill="#3a1500"/>
      <path id="Path_618" data-name="Path 618" d="M47.217,4.827H50.1l-.046-.279H47.217V2.6h3.018V2.273H46.892V7.2h3.436V6.917H47.217Z" transform="translate(-3.195 -0.508)" fill="#3a1500"/>
      <path id="Path_619" data-name="Path 619" d="M172.068,2.438l.186-.186-.325-.325-.371.325.371.371Z" transform="translate(-10.703 -0.488)" fill="#3a1500"/>
      <path id="Path_620" data-name="Path 620" d="M172.812,1.456l.14-.139-.279-.279-.325.279.325.325Z" transform="translate(-10.75 -0.434)" fill="#3a1500"/>
      <path id="Path_621" data-name="Path 621" d="M54.2,5.57l-2.136-3.3h-.325V7.2h.325V2.877l2,3.018h.279l2-3.018V7.242l.325-.046V2.273h-.325Z" transform="translate(-3.487 -0.508)" fill="#3a1500"/>
      <path id="Path_622" data-name="Path 622" d="M20.2,2.5a2.684,2.684,0,0,1,1.625.464h0l.093-.279h0a2.962,2.962,0,0,0-1.672-.511,2.582,2.582,0,0,0-1.765.65,2.593,2.593,0,0,0-.743,1.857,2.416,2.416,0,0,0,.743,1.857,2.582,2.582,0,0,0,1.765.65,2.962,2.962,0,0,0,1.672-.511h0V6.353h-.046a2.967,2.967,0,0,1-1.672.511,2.049,2.049,0,0,1-2.136-2.229A2.074,2.074,0,0,1,20.2,2.5Z" transform="translate(-1.44 -0.502)" fill="#3a1500"/>
      <path id="Path_623" data-name="Path 623" d="M173.551,2.438l.139-.186-.325-.325-.325.325.325.371Z" transform="translate(-10.792 -0.488)" fill="#3a1500"/>
      <path id="Path_624" data-name="Path 624" d="M160.022,3.977h-1.115a.663.663,0,0,1-.186-.464.453.453,0,0,1,.511-.464,1.6,1.6,0,0,1,.556.139V2.956a1.6,1.6,0,0,0-.6-.139.7.7,0,0,0-.742.7,1.372,1.372,0,0,0,.185.511h-.51V4.3h1.811Z" transform="translate(-9.893 -0.541)" fill="#3a1500"/>
      <path id="Path_625" data-name="Path 625" d="M16.207,7.192h.329V2.224l-.329.093Z" transform="translate(-1.347 -0.505)" fill="#3a1500"/>
      <path id="Path_626" data-name="Path 626" d="M11.612,7.2h.325V4.966h2.833l-.093-.279h-2.74V2.6h2.972V2.273h-3.3Z" transform="translate(-1.071 -0.508)" fill="#3a1500"/>
      <path id="Path_627" data-name="Path 627" d="M7.016,7.2h.325V4.966h2.833l-.093-.279H7.342V2.6h2.972V2.273h-3.3Z" transform="translate(-0.794 -0.508)" fill="#3a1500"/>
      <path id="Path_628" data-name="Path 628" d="M2.949,2.224A2.413,2.413,0,0,0,.4,4.778,2.463,2.463,0,0,0,2.949,7.332,2.413,2.413,0,0,0,5.5,4.778,2.413,2.413,0,0,0,2.949,2.224Zm0,4.736A2.133,2.133,0,0,1,.674,4.731a2.412,2.412,0,0,1,.6-1.625A2.207,2.207,0,0,1,2.9,2.5,2.133,2.133,0,0,1,5.178,4.731,2.1,2.1,0,0,1,2.949,6.96Z" transform="translate(-0.395 -0.505)" fill="#3a1500"/>
      <path id="Path_629" data-name="Path 629" d="M86.471,2.6h1.857V7.2h.325V2.6h1.811l.046-.279V2.273h-4.04Z" transform="translate(-5.579 -0.508)" fill="#3a1500"/>
      <path id="Path_630" data-name="Path 630" d="M110.979,8.067h.329V1.334h-.329Z" transform="translate(-7.055 -0.452)" fill="#3a1500"/>
      <path id="Path_631" data-name="Path 631" d="M97.814,4.827h2.879l-.093-.279H97.814V2.6h3.018V2.273H97.489V7.2h3.389V6.917H97.814Z" transform="translate(-6.242 -0.508)" fill="#3a1500"/>
      <path id="Path_632" data-name="Path 632" d="M137.8,7.028A1.477,1.477,0,0,1,136.129,8.7l.047.325a1.71,1.71,0,0,0,1.9-1.95V3.36l-.279.093Z" transform="translate(-8.569 -0.574)" fill="#3a1500"/>
      <path id="Path_633" data-name="Path 633" d="M95.42,2.316V6.728L91.984,2.27h-.325V7.192h.325V2.781L95.42,7.192h.325V2.224Z" transform="translate(-5.891 -0.505)" fill="#3a1500"/>
      <path id="Path_634" data-name="Path 634" d="M105.951,3.762c0-.929-.6-1.44-1.626-1.44h-2.043V7.245h.325v-2h1.533l1.764,2.09h0l.372-.093-1.718-2A1.416,1.416,0,0,0,105.951,3.762Zm-3.344,1.161V2.6h1.626c.928,0,1.393.371,1.393,1.161s-.464,1.161-1.393,1.161Z" transform="translate(-6.531 -0.511)" fill="#3a1500"/>
      <path id="Path_635" data-name="Path 635" d="M58.454,7.192h.329V2.224l-.329.093Z" transform="translate(-3.892 -0.505)" fill="#3a1500"/>
      <path id="Path_636" data-name="Path 636" d="M145.512,3.281V6.346c0,1.532-.6,2.229-1.811,2.229a1.683,1.683,0,0,1-1.858-1.765,5.226,5.226,0,0,1,.325-1.857l-.232-.093a6.533,6.533,0,0,0-.371,2A1.9,1.9,0,0,0,143.608,8.9c1.672,0,2.182-1.114,2.182-2.554V1.285l-.278.093v1.9Z" transform="translate(-8.897 -0.449)" fill="#3a1500"/>
      <path id="Path_637" data-name="Path 637" d="M117.748,10.405l.325.325.139-.139.186-.186-.325-.325Z" transform="translate(-7.462 -0.979)" fill="#3a1500"/>
      <path id="Path_638" data-name="Path 638" d="M118.984,10.405l.371.325.185-.139.14-.186-.325-.325Z" transform="translate(-7.537 -0.979)" fill="#3a1500"/>
      <path id="Path_639" data-name="Path 639" d="M134.417,5.815c0,.743-.464,1.114-1.254,1.114a2.621,2.621,0,0,1-1.208-.325,1.592,1.592,0,0,0,.186-.836V4.143l-.279.093V5.769c0,.743-.464,1.114-1.254,1.114a2.6,2.6,0,0,1-1.068-.279,1.606,1.606,0,0,0,.232-.836V4.143l-.279.093V5.769c0,.743-.464,1.114-1.254,1.114h-.882a4.377,4.377,0,0,0,.372-1.672,1.785,1.785,0,0,0-1.719-1.765,1.709,1.709,0,0,0-1.718,1.811,2.052,2.052,0,0,0,.464,1.347,2.578,2.578,0,0,1-1.022.279h-.975V3.726l-.279-.279h-.789a1.384,1.384,0,0,0-1.579,1.44V6.558c0,1.532-.464,2.043-1.811,2.043a1.682,1.682,0,0,1-1.857-1.765,5.224,5.224,0,0,1,.324-1.857l-.232-.093a6.533,6.533,0,0,0-.371,2,1.9,1.9,0,0,0,2.043,2.043c1.811,0,2.183-.929,2.183-2.368V4.886c0-.743.464-1.114,1.254-1.114h.789V7.208h1.3a2.3,2.3,0,0,0,1.208-.371,1.965,1.965,0,0,0,1.3.371h2a1.529,1.529,0,0,0,1.115-.371,2.919,2.919,0,0,0,1.254.371,1.475,1.475,0,0,0,1.161-.418,2.8,2.8,0,0,0,1.347.418,1.348,1.348,0,0,0,1.533-1.44V3.261l-.279.093V5.815ZM126.243,6.93a1.487,1.487,0,0,1-1.579-1.579,1.4,1.4,0,0,1,1.487-1.532A1.453,1.453,0,0,1,127.5,5.351a4.208,4.208,0,0,1-.418,1.579Z" transform="translate(-7.367 -0.568)" fill="#3a1500"/>
      <path id="Path_640" data-name="Path 640" d="M85.741,3.762c0-.929-.6-1.44-1.625-1.44H82.073V7.245H82.4v-2H83.93l1.765,2.09h0l.371-.093-1.718-2A1.447,1.447,0,0,0,85.741,3.762ZM82.4,4.923V2.6h1.625c.929,0,1.393.371,1.393,1.161s-.464,1.161-1.393,1.161Z" transform="translate(-5.314 -0.511)" fill="#3a1500"/>
      <path id="Path_641" data-name="Path 641" d="M68.793,3.762c0-.929-.6-1.44-1.625-1.44H65.125V7.245h.325v-2h1.532l1.765,2.09h0l.371-.093-1.718-2A1.416,1.416,0,0,0,68.793,3.762ZM65.45,4.923V2.6h1.625c.929,0,1.393.371,1.393,1.161S68,4.923,67.075,4.923Z" transform="translate(-4.293 -0.511)" fill="#3a1500"/>
      <path id="Path_642" data-name="Path 642" d="M152.1,1.092a.438.438,0,0,1,.464-.464,1.207,1.207,0,0,1,.51.139V.535A1.6,1.6,0,0,0,152.516.4a.675.675,0,0,0-.7.65,1.058,1.058,0,0,0,.14.511h-.511v.232h1.765l.093-.232h-1.069A.783.783,0,0,1,152.1,1.092Z" transform="translate(-9.492 -0.395)" fill="#3a1500"/>
      <path id="Path_643" data-name="Path 643" d="M60.607,4.827h2.879l-.046-.279H60.607V2.6h3.018V2.273H60.282V7.2h3.436V6.917H60.607Z" transform="translate(-4.002 -0.508)" fill="#3a1500"/>
      <path id="Path_644" data-name="Path 644" d="M163.158,8.774l.371.325.139-.139.186-.186-.325-.325Z" transform="translate(-10.197 -0.88)" fill="#3a1500"/>
      <path id="Path_645" data-name="Path 645" d="M78.608,2.224l-.279.093h0L76.193,7.239h.325l.557-1.3h2.833l.6,1.3h0l.325-.093L78.608,2.224Zm-1.44,3.39,1.3-2.925,1.3,2.925Z" transform="translate(-4.96 -0.505)" fill="#3a1500"/>
      <path id="Path_646" data-name="Path 646" d="M149.012,3.508a1.708,1.708,0,0,0-1.765,1.857A1.731,1.731,0,0,0,149.1,7.223a2.661,2.661,0,0,0,1.161-.279v.046c0,1.161-.929,1.625-2.554,1.625l.047.325c1.764,0,2.786-.557,2.786-1.9V5.18A1.5,1.5,0,0,0,149.012,3.508Zm1.254,3.2a3.17,3.17,0,0,1-1.069.232,1.415,1.415,0,0,1-1.625-1.579,1.416,1.416,0,0,1,1.44-1.532,1.294,1.294,0,0,1,1.3,1.393V6.712Z" transform="translate(-9.239 -0.583)" fill="#3a1500"/>
      <path id="Path_647" data-name="Path 647" d="M152.287,7.2h.282V2.372l-.282.093Z" transform="translate(-9.542 -0.514)" fill="#3a1500"/>
      <path id="Path_648" data-name="Path 648" d="M74.042,2.273h-1.95V7.2h.325V5.431h1.625A1.529,1.529,0,0,0,75.76,3.852,1.529,1.529,0,0,0,74.042,2.273Zm0,2.833H72.417V2.552h1.625c.882,0,1.439.464,1.439,1.254A1.283,1.283,0,0,1,74.042,5.106Z" transform="translate(-4.713 -0.508)" fill="#3a1500"/>
    </g>
    <g id="Shape-2" data-name="Shape">
      <g id="Group_2061" data-name="Group 2061">
        <path id="Path_649" data-name="Path 649" d="M91.26,47.335h0a5.148,5.148,0,0,0,.325-1.347v-.046h.371v.046a3.765,3.765,0,0,1-.418,1.347v.046Zm-17.878-5.8a2.462,2.462,0,1,1,0,4.922H71.71V41.531Zm0,4.551a1.941,1.941,0,0,0,2.136-2.09,1.963,1.963,0,0,0-2.136-2.09h-1.3v4.226h1.3Zm6.873-4.5.371-.093V44.6a1.789,1.789,0,0,1-2,1.857,1.81,1.81,0,0,1-2-1.857V41.577L77,41.484V44.6a1.678,1.678,0,0,0,3.343,0V41.577Zm4.04,2.322a1.122,1.122,0,0,1,.836,1.161c0,.882-.557,1.347-1.625,1.347H81.462V41.531h1.857q1.672,0,1.672,1.254a1.145,1.145,0,0,1-.7,1.114Zm-2.508-.139h1.44c.789,0,1.393-.093,1.393-.929,0-.882-.65-.929-1.393-.929h-1.44Zm1.625,2.322c.836,0,1.347-.186,1.347-.975,0-.836-.557-1.022-1.347-1.022H81.787v2Zm4.412-4.6,2.182,4.922-.371.093-.6-1.3H86.245l-.557,1.254h-.371l2.136-4.876.371-.093Zm1.068,3.343L87.638,42,86.43,44.828Zm1.579-3.251.371-.093v4.922H90.47Zm7.337,0,.371-.093V44.6a1.789,1.789,0,0,1-2,1.857,1.81,1.81,0,0,1-2-1.857V41.577l.371-.093V44.6a1.678,1.678,0,0,0,3.343,0V41.577Zm4.922,0,.325-.093v4.922h-.325l-3.39-4.319v4.319h-.325V41.531h.325l3.39,4.319Zm1.393,0,.372-.093v4.922h-.372Zm.882-.046h4.04l-.093.325h-1.765v4.551h-.371V41.856h-1.857v-.325Zm4.876,4.551h3.066v.325h-3.391V41.531H112.9v.325h-2.972v1.857h2.739l.093.325h-2.832v2.043Zm5.526-4.551a2.462,2.462,0,1,1,0,4.922h-1.671V41.531Zm0,4.551a1.941,1.941,0,0,0,2.136-2.09,1.963,1.963,0,0,0-2.136-2.09h-1.3v4.226h1.3Zm6.64-4.6,2.183,4.922-.372.093-.6-1.3h-2.786l-.557,1.254h-.371l2.136-4.876.371-.093Zm1.115,3.343L121.908,42,120.7,44.828Zm5.2-1.857a1.352,1.352,0,0,1-1.393,1.439l1.672,1.95-.418.093-1.765-2.043h-1.439v1.95h-.372V41.531h2.043c1.069,0,1.672.557,1.672,1.44Zm-1.718,1.161c.882,0,1.347-.371,1.347-1.114s-.418-1.114-1.347-1.114h-1.579v2.229Zm4.6-2.647,2.182,4.922-.371.093-.6-1.3h-2.786l-.557,1.254h-.371l2.135-4.876.372-.093Zm1.115,3.343L131.1,42l-1.208,2.833Zm4.55-.929a1.121,1.121,0,0,1,.835,1.161c0,.882-.557,1.347-1.625,1.347h-2.043V41.531h1.857q1.672,0,1.672,1.254a1.215,1.215,0,0,1-.7,1.114ZM134.4,43.76h1.44c.789,0,1.393-.093,1.393-.929,0-.882-.65-.929-1.393-.929H134.4Zm1.625,2.322c.836,0,1.347-.186,1.347-.975,0-.836-.557-1.022-1.347-1.022H134.4v2Zm4.411,0H143.5v.325h-3.39V41.531h3.344v.325h-2.972v1.857h2.739l.093.325h-2.832v2.043Zm8.219-4.551h.325V46.36l-.371.093V42.181l-1.951,2.972h-.232l-2-2.972v4.226H144.1V41.531h.325l2.089,3.2Zm1.44.046.371-.093v4.969h-.371Zm4.923,1.393a1.353,1.353,0,0,1-1.394,1.439l1.672,1.95-.418.093-1.764-2.043h-1.44v1.95H151.3V41.531h2.043c1.068,0,1.672.557,1.672,1.44Zm-1.672,1.161c.882,0,1.347-.371,1.347-1.114s-.418-1.114-1.347-1.114h-1.579v2.229Zm4.736-2.647,2.182,4.922-.371.093-.6-1.3H156.5l-.557,1.254h-.371l2.135-4.876.372-.093Zm1.068,3.343L157.9,42l-1.208,2.833Zm.418-3.3h4.04l-.093.325H161.75v4.551h-.371V41.856h-1.857v-.325Zm4.923,4.551h3.065v.325h-3.39V41.531h3.343v.325H164.49v1.857h2.739l.093.325H164.49Zm5.154-2.415c.789.232,1.626.511,1.626,1.486s-.882,1.347-1.719,1.347a2.96,2.96,0,0,1-1.671-.511h0v-.371l.046.046a2.815,2.815,0,0,0,1.625.511c.65,0,1.394-.279,1.394-1.022s-.7-.929-1.394-1.161c-.742-.232-1.532-.464-1.532-1.347,0-.743.6-1.161,1.579-1.161a2.673,2.673,0,0,1,1.579.511h0l-.093.325-.046-.046a2.456,2.456,0,0,0-1.487-.464c-.789,0-1.207.279-1.207.836,0,.6.65.836,1.3,1.022ZM71.153,33.823a1.581,1.581,0,1,0,3.158,0,1.67,1.67,0,0,0-1.579-1.765,1.643,1.643,0,0,0-1.579,1.765Zm2.879,0a1.281,1.281,0,0,1-1.3,1.347,1.372,1.372,0,0,1,0-2.74,1.294,1.294,0,0,1,1.3,1.393Zm-1.811-3.251L71.9,30.9l.325.325.139-.139.186-.186Zm1.068,0-.325.325.325.325.139-.139.186-.186Zm16.717,1.114-.325-.325-.325.325.325.325.139-.139Zm-1.114,0-.325-.325-.325.325.325.325.093-.093Zm6.965-1.532v3.9a1.213,1.213,0,0,1-1.393,1.393H92.7a1.813,1.813,0,0,1-1.161-.325,1.948,1.948,0,0,1-1.114.325h0a2,2,0,0,1-1.3-.511,1.586,1.586,0,0,1-1.347.511h-.464a1.011,1.011,0,0,1-1.114-.789,7.493,7.493,0,0,1-3.065.789H78.908a1.86,1.86,0,0,1-1.207-.511,1.321,1.321,0,0,1-1.161.511H74.821l-.093-.325H76.54c.7,0,1.068-.325,1.068-.975v-.511a1.173,1.173,0,0,0-1.254-1.161h-.371v-.325h.464a1.441,1.441,0,0,1,1.532,1.44v.6a2.326,2.326,0,0,1-.093.557,1.731,1.731,0,0,0,1.068.418H83.18A8.11,8.11,0,0,0,86.8,34.1c-1.44-1.3-1.857-1.532-2.415-1.532a2.059,2.059,0,0,0-.7.139l-.093-.325a3.447,3.447,0,0,1,.836-.186c.65,0,1.022.232,2.693,1.765v.279c-.232.093-.418.232-.65.325q.07.557.836.557h.418c.882,0,1.254-.279,1.254-.975V32.8l.325-.093v1.439a1.742,1.742,0,0,1-.046.511,1.877,1.877,0,0,0,1.161.418h0a1.92,1.92,0,0,0,.882-.232,1.873,1.873,0,0,1-.371-1.207,1.549,1.549,0,0,1,1.579-1.625,1.586,1.586,0,0,1,1.532,1.579,4.093,4.093,0,0,1-.325,1.44h.789a.938.938,0,0,0,1.068-1.068V30.154Zm-2.508,4.922a3.953,3.953,0,0,0,.371-1.347,1.28,1.28,0,0,0-1.207-1.3,1.219,1.219,0,0,0-1.3,1.3,1.28,1.28,0,0,0,1.393,1.347Zm3.9.371h.325V30.154l-.325.093Zm4.272-4.551-.325-.325-.325.325.325.325.14-.139Zm1.115,0-.325-.325-.325.325.325.325.186-.186Zm4.69,5.619.325.325.139-.139.185-.186-.324-.325Zm1.068,0,.325.325.139-.139.186-.186-.325-.325Zm2.554-4.644V34.1a1.225,1.225,0,0,1-1.394,1.3h0a1.994,1.994,0,0,1-1.3-.511,1.586,1.586,0,0,1-1.347.511h-2.786a1.136,1.136,0,0,1-.928-.325,2.815,2.815,0,0,1-1.393.418,1.561,1.561,0,0,1-1.579-1.672,1.67,1.67,0,0,1,1.579-1.765,3.422,3.422,0,0,1,1.115.232v-.464l.324-.093v2.322c0,.743.233,1.022.882,1.022h2.786c.882,0,1.254-.279,1.254-.975V32.754l.325-.093V34.1a1.756,1.756,0,0,1-.046.511,1.875,1.875,0,0,0,1.161.418h0c.7,0,1.068-.325,1.068-.975V31.919Zm-7.941,2.972a1.949,1.949,0,0,1-.092-.789V32.615a4.775,4.775,0,0,0-1.115-.232,1.32,1.32,0,0,0-1.3,1.393,1.281,1.281,0,0,0,1.3,1.347A2.3,2.3,0,0,0,103.008,34.844Zm6.966,1.672.325.325.139-.139.186-.186-.325-.325Zm9.659-6.362v3.9a1.214,1.214,0,0,1-1.394,1.393h0a4.812,4.812,0,0,1-2.182-.371,4.855,4.855,0,0,1-2.182.371h0a.911.911,0,0,1-.882-.464v.279a1.558,1.558,0,0,1-1.718,1.765l-.047-.325a1.278,1.278,0,0,0,1.44-1.44V32.011l.325-.093V34.24c0,.743.51.836.882.836h0a11.386,11.386,0,0,0,1.811-.186,10.42,10.42,0,0,1-1.533-2.229l.139-.325a4.156,4.156,0,0,1,1.858-.557,1.457,1.457,0,0,1,1.625,1.347,2.369,2.369,0,0,1-1.347,1.765,7.979,7.979,0,0,0,1.811.186h0a.938.938,0,0,0,1.069-1.068V30.2Zm-2.183,3.111c0-.65-.556-1.114-1.393-1.114a3.329,3.329,0,0,0-1.579.464,9.946,9.946,0,0,0,1.533,2.229C116.846,34.426,117.449,33.73,117.449,33.265Zm3.576,2.183h.325V30.154l-.325.093Zm7.8-3.483V34.1c0,.65-.371.975-1.068.975H125.9c-.975,0-1.486-.371-1.486-1.254a8.248,8.248,0,0,1,.139-1.161l-.278-.046a7.282,7.282,0,0,0-.139,1.254c0,1.022.65,1.532,1.718,1.532h1.95a1.225,1.225,0,0,0,1.394-1.3V31.872Zm-2.414-.279-.325-.325-.325.325.325.325.139-.139Zm1.115,0-.325-.325-.325.325.325.325.139-.139Zm2.879,3.761h.325V30.2l-.325.093Zm.743,1.532a1.539,1.539,0,0,0,1.718-1.765V31.872l-.325.093v3.251a1.26,1.26,0,0,1-1.439,1.44Zm18.157-3.343c0,1.114-.743,1.765-2,1.765H135.467a1.213,1.213,0,0,1-1.393-1.393V30.2l.325-.093v3.9a.938.938,0,0,0,1.068,1.068h11.1a3.152,3.152,0,0,1-.418-1.486,1.6,1.6,0,0,1,1.625-1.532A1.528,1.528,0,0,1,149.305,33.637Zm-.325.046a1.26,1.26,0,0,0-1.254-1.3,1.289,1.289,0,0,0-1.254,1.3,2.868,2.868,0,0,0,.464,1.393h.464C148.377,35.076,148.98,34.566,148.98,33.683Zm4.458-3.436v3.808a.938.938,0,0,1-1.069,1.068h-.232l-.789-3.993-.325.093.789,3.9h-2l.093.325h2.461a1.213,1.213,0,0,0,1.393-1.393v-3.9Zm-1.719,6.687a.571.571,0,0,1-.139-.418c0-.232.139-.371.418-.371a2.049,2.049,0,0,1,.464.093V36a1.211,1.211,0,0,0-.511-.139.585.585,0,0,0-.6.6,1.036,1.036,0,0,0,.139.464h-.464v.232H152.6l.093-.232Zm3.437-1.486h.325V30.2l-.325.093Zm3.065-1.44A3.734,3.734,0,0,0,157.8,35.4h.372a4.1,4.1,0,0,1,.324-1.347Zm2.322,3.9.324.325.14-.139.185-.186-.325-.325Zm1.068,0,.325.325.186-.186.139-.139-.325-.325Zm5.572-5.944V34.1c0,.65-.417.975-1.068.975h-.882V32.29l-.278-.232h-.743a1.225,1.225,0,0,0-1.393,1.3V34.8c0,1.347-.418,1.811-1.626,1.811a1.463,1.463,0,0,1-1.625-1.532,4.8,4.8,0,0,1,.278-1.625l-.278-.093a5.3,5.3,0,0,0-.325,1.765A1.729,1.729,0,0,0,161.1,36.98c1.625,0,2-.836,2-2.136V33.4c0-.65.418-.975,1.115-.975h.7v3.018h1.208a1.225,1.225,0,0,0,1.393-1.3V31.919Zm-.7,4.551.325.325.139-.139.186-.186-.325-.325Zm1.719-1.068h1.718a1.225,1.225,0,0,0,1.393-1.3v-.6a1.441,1.441,0,0,0-1.532-1.44h-.465v.279h.372a1.173,1.173,0,0,1,1.254,1.161v.511c0,.65-.371.975-1.069.975h-1.811ZM71.71,25.185h5.944V23.978h-4.5V21.563h4.133L77.1,20.356H73.15V18.127h4.365V16.92H71.664v8.266Zm12.909.139,1.579-.186-3.111-4.226,2.786-3.993H84.248L82.3,19.845,80.115,16.78l-1.579.186,2.833,3.947L78.3,25.232h1.625L82.2,21.981Zm9.055-5.665c0-1.625-1.161-2.74-3.2-2.74H86.941v8.312h1.486V22.446h2.09c2-.046,3.158-1.161,3.158-2.786Zm-1.486,0c0,1.022-.743,1.532-1.765,1.532h-2V18.081h2a1.565,1.565,0,0,1,1.765,1.579Zm2.09,1.393a4.438,4.438,0,0,0,8.87,0,4.438,4.438,0,0,0-8.87,0Zm1.532,0a2.928,2.928,0,1,1,5.85,0,2.928,2.928,0,1,1-5.85,0Zm12.816-4.272a5.853,5.853,0,0,0-2.786.789l.232,1.161a4.716,4.716,0,0,1,2.368-.836c.928,0,1.718.371,1.718,1.3,0,2-4.5,2.09-4.5,5.2v.743h6.176l-.186-1.207H107.28c0-1.765,4.411-2.183,4.411-4.829,0-1.625-1.439-2.322-3.065-2.322Zm3.669,4.272c0,2.368,1.207,4.272,3.715,4.272,2.461,0,3.715-1.9,3.715-4.272s-1.208-4.272-3.715-4.272-3.715,1.9-3.715,4.272Zm1.486,0c0-1.857.7-3.111,2.182-3.111,1.533,0,2.183,1.254,2.183,3.111s-.7,3.111-2.183,3.111-2.182-1.254-2.182-3.111Zm9.334-4.272a5.859,5.859,0,0,0-2.786.789l.232,1.161a4.719,4.719,0,0,1,2.368-.836c.928,0,1.718.371,1.718,1.3,0,2-4.5,2.09-4.5,5.2v.743h6.176l-.186-1.207h-4.364c0-1.765,4.411-2.183,4.411-4.829,0-1.625-1.44-2.322-3.065-2.322Zm3.668,4.272c0,2.368,1.208,4.272,3.715,4.272,2.461,0,3.715-1.9,3.715-4.272s-1.208-4.272-3.715-4.272-3.715,1.9-3.715,4.272Zm1.486,0c0-1.857.7-3.111,2.183-3.111s2.182,1.254,2.182,3.111-.7,3.111-2.182,3.111-2.183-1.254-2.183-3.111Zm16.671,5.99L146.1,28.2l.324-.325.836-.836L146.1,25.928Zm23.45-5.108a3.007,3.007,0,0,1-3.343,3.251h-4.133a2.206,2.206,0,0,1-2.09-1.114,2.763,2.763,0,0,1-2.368,1.161,2.21,2.21,0,0,1-2.089-1.068,2.636,2.636,0,0,1-2.229,1.022h-3.576a2.232,2.232,0,0,1-2.043-1.068,2.912,2.912,0,0,1-2.507,1.068h-.6c-.047,2.09-1.3,3.065-3.437,3.065a8.638,8.638,0,0,1-2.089-.279l.278-1.254a8.273,8.273,0,0,0,1.811.186c1.533,0,2.229-.557,2.229-1.718h-1.811a3.139,3.139,0,0,1-3.483-3.343c0-2.182,1.3-3.668,3.3-3.668,1.951,0,3.251,1.44,3.251,3.622v2.043h.6a1.507,1.507,0,0,0,1.719-1.718V18.545l1.3-.186v3.622c0,1.114.511,1.811,1.533,1.811h1.022V19.2l1.3-.186v4.783h1.3c.882,0,1.486-.557,1.486-1.718V18.638l1.3-.186v3.576c0,1.114.51,1.765,1.532,1.765a1.561,1.561,0,0,0,1.626-1.718v-4.04l1.3-.186v4.133c0,1.114.511,1.811,1.533,1.811h4.086a2,2,0,0,0,2.136-1.857,2.042,2.042,0,0,0-2.043-2.09h-3.112l-.789-1.347,3.994-5.108,1.439.511v.046L162.864,18.5h2.322A3.16,3.16,0,0,1,168.39,21.935Zm-26.236.046A2.2,2.2,0,0,0,140.2,19.52c-1.254,0-2,.836-2,2.229s.789,2.09,2.368,2.09H142.2V21.981Zm28.094,5.572a.861.861,0,0,1-.186-.511c0-.279.232-.464.557-.464a2.876,2.876,0,0,1,.743.186v-.743a2.368,2.368,0,0,0-1.022-.232,1.1,1.1,0,0,0-1.161,1.068,1.384,1.384,0,0,0,.232.7h-.65V28.3h2.833l.185-.743Zm.649-3.483v-8.73l-1.3.186v9.705h1.3Z" transform="translate(-4.285 -0.806)" fill="#3a1500"/>
        <g id="Group_2060" data-name="Group 2060">
          <path id="Path_650" data-name="Path 650" d="M29.626,58.649a3.574,3.574,0,0,1-1.95-.511,1.837,1.837,0,0,1-.789-1.579A2.684,2.684,0,0,1,28,54.377h0l.093-.093a3.707,3.707,0,0,0,1.486-2.322,3.809,3.809,0,0,0,1.486,2.368l.046.046h.046l.046.046a2.618,2.618,0,0,1,1.068,2.136,2.044,2.044,0,0,1-2,2.043,3.788,3.788,0,0,1-.65.047Zm6.965-1.3a1.737,1.737,0,0,1-1.207-1.254,2.632,2.632,0,0,1,.371-2.415h0l.093-.093a3.944,3.944,0,0,0,.7-2.693,3.663,3.663,0,0,0,2.136,1.765h.093a.144.144,0,0,1,.093.047,2.787,2.787,0,0,1,1.672,1.718c.6,1.857-1.3,2.647-1.9,2.833a3.878,3.878,0,0,1-.7.186,4.093,4.093,0,0,1-1.347-.093Zm-15.928-.139a2.975,2.975,0,0,1-1.672-1.114,1.827,1.827,0,0,1-.232-1.765,2.644,2.644,0,0,1,1.718-1.718h0l.093-.046A3.808,3.808,0,0,0,22.707,50.8a3.943,3.943,0,0,0,.7,2.693l.046.046v.046l.047.046A2.858,2.858,0,0,1,23.868,56a1.854,1.854,0,0,1-1.532,1.347,2.972,2.972,0,0,1-1.672-.139Zm24.147-3.39a1.748,1.748,0,0,1-1.532-.836,2.653,2.653,0,0,1-.371-2.415h0l.046-.093a3.854,3.854,0,0,0-.186-2.786,3.813,3.813,0,0,0,2.6,1.022h.186a2.663,2.663,0,0,1,2.136,1.114c1.161,1.579-.418,2.926-.929,3.3a3.761,3.761,0,0,1-1.532.7Zm-13.281.046c-.046,0-.046-.046-.093-.046a3.24,3.24,0,0,1-1.3-2.136,3.03,3.03,0,0,1,2.368-3.576,3.074,3.074,0,0,1,3.39,2.647,3.113,3.113,0,0,1-.557,2.415h0l-.047.093h0a2.521,2.521,0,0,1-1.765.789,2.565,2.565,0,0,1-2-.186Zm-5.8.232a2.667,2.667,0,0,1-1.811-.836.162.162,0,0,1-.047-.093,3.2,3.2,0,0,1-.557-2.415,2.925,2.925,0,1,1,5.758.929,3.24,3.24,0,0,1-1.3,2.136h0l-.093.046h0a1.831,1.831,0,0,1-.7.279,6.046,6.046,0,0,1-1.254-.046Zm13.188-2c-.047,0-.047,0-.093-.046a3.2,3.2,0,0,1-1.857-1.625,2.927,2.927,0,1,1,5.2-2.647,3.267,3.267,0,0,1,.232,2.461h0l-.046.093h0a2.516,2.516,0,0,1-1.439,1.3,3.539,3.539,0,0,1-1.161.418,1.733,1.733,0,0,1-.836.046ZM16.485,47.69a3.854,3.854,0,0,0-.186,2.786v.186a2.692,2.692,0,0,1-.418,2.368c-1.161,1.579-2.925.511-3.436.139a3.275,3.275,0,0,1-1.254-1.579,1.806,1.806,0,0,1,.325-1.718A2.75,2.75,0,0,1,13.7,48.758h.139a2.256,2.256,0,0,0,.557-.047,4.424,4.424,0,0,0,2.09-1.022Zm33.341-.046a2.75,2.75,0,0,1-1.114-2.183h0v-.139a3.786,3.786,0,0,0-1.022-2.554,3.854,3.854,0,0,0,2.786.186h.186a2.692,2.692,0,0,1,2.368.418c1.579,1.161.511,2.925.139,3.436a3.275,3.275,0,0,1-1.579,1.254,2.967,2.967,0,0,1-.325.093,2.847,2.847,0,0,1-1.44-.511Zm-17.785-.232-.789-.418a1.19,1.19,0,0,1-.557-.882,1.23,1.23,0,0,1,.279-1.022l.65-.65a.629.629,0,0,1,.743-.139l.789.418a1.249,1.249,0,0,1,.557.789V45.6a1.23,1.23,0,0,1-.279,1.022l-.65.65a.573.573,0,0,1-.371.186.55.55,0,0,1-.371-.046ZM18.389,51.683A2.682,2.682,0,0,1,16.9,50.337c0-.047,0-.047-.046-.093a3.052,3.052,0,1,1,5.433.186,3.181,3.181,0,0,1-1.857,1.625h0l-.093.046h0c-.047,0-.139.046-.186.046a2.892,2.892,0,0,1-1.765-.464Zm27.026-3.576h-.093a3.282,3.282,0,0,1-2.275-.975,3.122,3.122,0,0,1-.186-4.319A3.021,3.021,0,0,1,47.133,43a3.17,3.17,0,0,1,.975,2.275h0v.139h0a2.748,2.748,0,0,1-.975,1.718,2.967,2.967,0,0,1-1.532.975Zm-18.621-.65c-.139,0-.232-.093-.371-.186l-.65-.65a1.279,1.279,0,0,1-.279-1.022,1.054,1.054,0,0,1,.6-.882l.789-.418a.57.57,0,0,1,.743.139l.65.65a1.077,1.077,0,0,1,.279.929v.093a1.054,1.054,0,0,1-.6.882l-.789.418a.279.279,0,0,1-.186.046Zm10.634-1.672-.882-.139a1.223,1.223,0,0,1-.836-.7,1.242,1.242,0,0,1-.046-1.068l.418-.789a.6.6,0,0,1,.7-.325l.882.139a1.231,1.231,0,0,1,.789.6l.047.093a1.242,1.242,0,0,1,.046,1.068l-.464.743a.419.419,0,0,1-.279.279c-.046.046-.093.046-.186.046a.279.279,0,0,1-.186.046Zm-9.752,2,.557-.279a1.77,1.77,0,0,0,.882-1.3v-.093l.511-3.065V43l.464,3.158a1.77,1.77,0,0,0,.882,1.3l.6.325a3.679,3.679,0,0,0-1.95,2.554,3.585,3.585,0,0,0-1.95-2.554Zm5.665-.279.464-.464a1.689,1.689,0,0,0,.418-1.486v-.093L33.759,42.4v0L35.2,45.229a1.9,1.9,0,0,0,1.207.975l.65.093a3.606,3.606,0,0,0-1.068,3.018A3.373,3.373,0,0,0,33.341,47.5ZM22.15,46.3l.65-.093a1.7,1.7,0,0,0,1.207-.975c0-.047.046-.047.046-.093l1.393-2.74a.045.045,0,0,1,.047-.046V42.4l-.511,3.111a1.65,1.65,0,0,0,.418,1.486l.464.464a3.6,3.6,0,0,0-2.647,1.811A3.513,3.513,0,0,0,22.15,46.3Zm16.856-1.439a1.885,1.885,0,0,0-.046-1.579c0-.046-.046-.046-.046-.093l-1.393-2.74a.045.045,0,0,0-.046-.046l.046.046,2.229,2.275a1.882,1.882,0,0,0,1.486.557l.65-.093a3.44,3.44,0,0,0-.093,3.158,3.6,3.6,0,0,0-3.065-.929Zm-17.6.836a.542.542,0,0,1-.279-.279l-.418-.836a1.242,1.242,0,0,1,.047-1.068,1.355,1.355,0,0,1,.836-.7l.882-.139a.691.691,0,0,1,.7.325l.418.836a1.189,1.189,0,0,1,0,.975l-.046.093a1.356,1.356,0,0,1-.836.7l-.882.139h0c-.186.046-.325.046-.418-.046Zm20.618-3.111-.882.139a1.19,1.19,0,0,1-.975-.371,1.231,1.231,0,0,1-.371-1.022l.139-.882a.64.64,0,0,1,.557-.557l.882-.139a1.271,1.271,0,0,1,.929.325l.093.093a1.231,1.231,0,0,1,.371,1.022l-.139.882a.574.574,0,0,1-.186.371l-.418.139Zm-11.841.325a1.231,1.231,0,0,1,.279-1.022l.65-.65a.629.629,0,0,1,.743-.139l.789.418a1.191,1.191,0,0,1,.557.882l.279,1.811a.144.144,0,0,0-.093-.046l-.789-.418a1.076,1.076,0,0,0-.743-.139,1.239,1.239,0,0,0-.65.325l-.65.65c-.046.046-.046.093-.093.093Zm-4.133-.464a1.054,1.054,0,0,1,.6-.882l.789-.418a.57.57,0,0,1,.743.139l.65.65a1.279,1.279,0,0,1,.279,1.022l-.325,1.811-.093-.093-.65-.65a1.323,1.323,0,0,0-.65-.371,1.076,1.076,0,0,0-.743.139l-.789.418c-.047,0-.093.046-.139.093Zm8.219-.325a1.242,1.242,0,0,1-.046-1.068l.418-.789a.6.6,0,0,1,.7-.325l.882.139a1.223,1.223,0,0,1,.836.7l.836,1.672c-.046,0-.093-.047-.139-.047l-.882-.139a1.324,1.324,0,0,0-.743.093.92.92,0,0,0-.511.511l-.464.789c0,.046-.046.093-.046.139Zm-5.062-.6-.65-.65a1.76,1.76,0,0,0,1.068-.836,1.76,1.76,0,0,0,1.068.836l-.6.6a1.567,1.567,0,0,0-.418.929,2.021,2.021,0,0,0-.464-.882Zm3.668-.464-.789-.418a1.725,1.725,0,0,0,.743-1.114,1.753,1.753,0,0,0,1.254.464l-.418.789a1.836,1.836,0,0,0-.139,1.022,1.416,1.416,0,0,0-.65-.743ZM13.931,48.108h-.139a2.748,2.748,0,0,1-1.718-.975,2.456,2.456,0,0,1-.975-1.718v-.046h0v-.046a3.282,3.282,0,0,1,.975-2.275,3.122,3.122,0,0,1,4.319-.186,3.021,3.021,0,0,1-.186,4.272,3.25,3.25,0,0,1-1.811.929,1.58,1.58,0,0,1-.464.046Zm33.852-5.99a2.927,2.927,0,1,1,2.647-5.2,3.181,3.181,0,0,1,1.625,1.857h0l.046.093h0a2.537,2.537,0,0,1-.418,1.9,2.683,2.683,0,0,1-1.347,1.486c-.047,0-.047,0-.093.046a1.65,1.65,0,0,1-.464.093,2.74,2.74,0,0,1-2-.279ZM53.541,35.8l.046-.046h.046l.046-.047a2.858,2.858,0,0,1,2.368-.371c1.857.6,1.347,2.6,1.161,3.2a2.975,2.975,0,0,1-1.114,1.672,1.827,1.827,0,0,1-1.765.232,2.644,2.644,0,0,1-1.718-1.718h0l-.046-.093A3.808,3.808,0,0,0,50.8,36.5a4.1,4.1,0,0,0,1.068,0,3.576,3.576,0,0,0,1.672-.7ZM6.13,46.668a3.309,3.309,0,0,1-.7-1.857,1.748,1.748,0,0,1,.836-1.532,2.653,2.653,0,0,1,2.415-.371h0l.093.046a3.854,3.854,0,0,0,2.786-.186,3.813,3.813,0,0,0-1.022,2.6v.186A2.663,2.663,0,0,1,9.427,47.69a2.008,2.008,0,0,1-.882.371A2.866,2.866,0,0,1,6.13,46.668Zm13.327-3.947c0-.046.046-.046.046-.093l2.183-2.183.046-.046a.045.045,0,0,1-.046.046l-1.44,2.833a1.728,1.728,0,0,0-.046,1.579l.279.6a3.6,3.6,0,0,0-3.065.929,3.537,3.537,0,0,0-.093-3.2l.65.093h.464a2.214,2.214,0,0,0,1.022-.557Zm23.775-1.486a1.736,1.736,0,0,0-.557-1.486c-.046-.046-.046-.046-.093-.046L40.4,37.52l-.046-.046a.045.045,0,0,1,.046.046l2.833,1.44a1.728,1.728,0,0,0,1.579.046l.6-.279a3.6,3.6,0,0,0,.929,3.065,3.537,3.537,0,0,0-3.2.093ZM26.376,39.564a1.849,1.849,0,0,0,.743,1.114l-.789.418a1.475,1.475,0,0,0-.7.789,1.845,1.845,0,0,0-.093-1.022l-.418-.789h.325a2.543,2.543,0,0,0,.929-.511Zm9.891-.093-.882-.139a1.867,1.867,0,0,0,.371-1.3,1.923,1.923,0,0,0,1.347.046l-.139.882a2,2,0,0,0,.186,1.022,2.1,2.1,0,0,0-.882-.511ZM22.243,40.724a1.356,1.356,0,0,1,.836-.7l.882-.139a.691.691,0,0,1,.7.325l.418.836a1.242,1.242,0,0,1-.047,1.068l-.882,1.625c0-.046-.046-.093-.046-.139l-.418-.789a1.98,1.98,0,0,0-.511-.557,1.324,1.324,0,0,0-.743-.093l-.882.139a.171.171,0,0,0-.139.046Zm15.649-.65a1.231,1.231,0,0,1-.371-1.022l.139-.882a.641.641,0,0,1,.557-.557l.882-.139a1.191,1.191,0,0,1,.975.371l1.3,1.3h-.139l-.882.139a.974.974,0,0,0-.65.325,1.238,1.238,0,0,0-.325.65l-.139.882v.139Zm-8.033-.7a1.267,1.267,0,1,1,2.508-.371A1.336,1.336,0,0,1,31.3,40.492a1.4,1.4,0,0,1-1.439-1.114Zm13.7-.929a1.355,1.355,0,0,1-.7-.836l-.139-.882a.691.691,0,0,1,.325-.7l.836-.418a1.189,1.189,0,0,1,.975,0l.093.046a1.356,1.356,0,0,1,.7.836l.139.882a.656.656,0,0,1-.046.418.542.542,0,0,1-.279.279l-.836.418c-.093.046-.186.046-.279.093a1.251,1.251,0,0,1-.789-.139ZM18.11,42.721l-.929-.139a.573.573,0,0,1-.371-.186.932.932,0,0,1-.186-.371l-.139-.882a1.19,1.19,0,0,1,.371-.975,1.231,1.231,0,0,1,1.022-.371l.882.139a.64.64,0,0,1,.557.557l.186.836a1.271,1.271,0,0,1-.325.929l-.093.093a1.706,1.706,0,0,1-.7.371Zm9.8-2.275a1.264,1.264,0,0,1-1.068-1.439,1.267,1.267,0,1,1,1.44,1.439.508.508,0,0,1-.371,0Zm4.969-1.625a1.251,1.251,0,0,1,.557-1.718,1.277,1.277,0,0,1,1.161,2.275,1.215,1.215,0,0,1-.371.139,1.278,1.278,0,0,1-1.347-.7Zm-10.587.186-.139-.882a1.924,1.924,0,0,0,1.347-.047,1.866,1.866,0,0,0,.371,1.3l-.882.093a1.7,1.7,0,0,0-.929.511,1.459,1.459,0,0,0,.232-.975Zm17.042-3.622.139.882a1.7,1.7,0,0,0,.511.929,1.615,1.615,0,0,0-1.022-.186l-.882.139a1.923,1.923,0,0,0-.046-1.347H38.5a2.36,2.36,0,0,0,.836-.418ZM24.658,39.378a1.277,1.277,0,1,1,1.718-.557,1.406,1.406,0,0,1-.929.7,1.157,1.157,0,0,1-.789-.139Zm10.913-2a1.281,1.281,0,1,1,1.811,0,1.462,1.462,0,0,1-.7.371,1.371,1.371,0,0,1-1.114-.371Zm-4.133.046a.931.931,0,0,1-.464-.557.972.972,0,0,1,.6-1.207.9.9,0,0,1,.7.046.931.931,0,0,1,.464.557.972.972,0,0,1-.6,1.207c-.046,0-.093.046-.139.046a.838.838,0,0,1-.557-.093Zm-1.811.464h-.139a1.107,1.107,0,0,1-.511-.279.917.917,0,0,1-.279-.65.931.931,0,0,1,.929-.929.843.843,0,0,1,.65.279.917.917,0,0,1,.279.65.944.944,0,0,1-.789.929Zm-9.612,3.343-.139-.882a.974.974,0,0,0-.325-.65,1.238,1.238,0,0,0-.65-.325l-.882-.139h-.139l1.3-1.3a1.231,1.231,0,0,1,1.022-.371l.882.139a.64.64,0,0,1,.557.557l.139.882a1.191,1.191,0,0,1-.371.975l-1.3,1.3c-.093-.093-.093-.139-.093-.186Zm20.71-4.226a1.356,1.356,0,0,1-.7-.836l-.139-.882a.691.691,0,0,1,.325-.7l.836-.418a1.242,1.242,0,0,1,1.068.046l1.625.836c-.046,0-.093.046-.139.046l-.836.418a1.476,1.476,0,0,0-.557.511,1.324,1.324,0,0,0-.093.743l.139.882a.171.171,0,0,0,.046.139Zm-24.8,1.95c.046,0,.046-.046.093-.046l2.74-1.393.046-.046-.046.046-2.275,2.229a1.882,1.882,0,0,0-.557,1.486l.093.65a3.435,3.435,0,0,0-3.158-.093,3.6,3.6,0,0,0,.929-3.065l.6.279a1.734,1.734,0,0,0,.975.139,2.618,2.618,0,0,0,.557-.186Zm30.23-2.508a1.7,1.7,0,0,0-.975-1.207c-.046,0-.046-.046-.093-.046l-2.74-1.393a.045.045,0,0,1-.046-.046h.046l3.158.511a1.65,1.65,0,0,0,1.486-.418l.464-.464a3.6,3.6,0,0,0,1.811,2.647A3.556,3.556,0,0,0,46.25,37.1Zm-12.4.046a1.032,1.032,0,0,1-.6-.371.9.9,0,0,1,.186-1.3,1.21,1.21,0,0,1,.7-.186,1.032,1.032,0,0,1,.6.371.876.876,0,0,1-.232,1.3c-.046.046-.093.046-.139.093a.66.66,0,0,1-.279.093Zm-6.687.975c-.047,0-.093-.046-.139-.046a.917.917,0,0,1-.464-1.114.952.952,0,0,1,1.207-.6,1.085,1.085,0,0,1,.557.464.911.911,0,0,1,.046.7.964.964,0,0,1-.743.65.764.764,0,0,1-.464-.046Zm-5.2-.093a1.281,1.281,0,1,1,1.811,0,1.461,1.461,0,0,1-.7.371,1.371,1.371,0,0,1-1.114-.371ZM37.66,35.152a1.277,1.277,0,1,1,1.718-.557,1.406,1.406,0,0,1-.929.7,1.2,1.2,0,0,1-.789-.139Zm-2.647-.464a.908.908,0,0,1-.186-1.3,1.032,1.032,0,0,1,.6-.371.777.777,0,0,1,.7.186.908.908,0,0,1,.186,1.3c-.046.047-.046.093-.093.093a1.107,1.107,0,0,1-.511.279h0a.888.888,0,0,1-.7-.186ZM24.751,36.313c-.046-.046-.093-.046-.093-.093a1.107,1.107,0,0,1-.279-.511.777.777,0,0,1,.186-.7.908.908,0,0,1,1.3-.186,1.032,1.032,0,0,1,.371.6.777.777,0,0,1-.186.7.848.848,0,0,1-.6.371,1.209,1.209,0,0,1-.7-.186Zm-5.015-.046.139-.882a1.867,1.867,0,0,0,1.3.371,1.923,1.923,0,0,0-.046,1.347l-.882-.139a2,2,0,0,0-1.022.186,1.445,1.445,0,0,0,.511-.882ZM39.564,32.83a1.849,1.849,0,0,0,1.114-.743l.418.789a1.475,1.475,0,0,0,.789.7,1.845,1.845,0,0,0-1.022.093l-.789.418a2.491,2.491,0,0,0-.511-1.254ZM9.009,42.35h0L8.869,42.3h0a2.517,2.517,0,0,1-1.3-1.439,2.886,2.886,0,0,1-.418-1.95c0-.047,0-.047.046-.093a3.2,3.2,0,0,1,1.625-1.857,3.044,3.044,0,0,1,4.133,1.161,3.058,3.058,0,0,1-1.486,4.04,2.638,2.638,0,0,1-1.022.325,3.716,3.716,0,0,1-1.439-.139ZM50.755,35.9a2.925,2.925,0,1,1,.929-5.758,3.24,3.24,0,0,1,2.136,1.3h0l.046.093h0a2.643,2.643,0,0,1,.232,1.95,2.667,2.667,0,0,1-.836,1.811.162.162,0,0,1-.093.047,3.774,3.774,0,0,1-1.347.557,2.082,2.082,0,0,1-1.068,0ZM45.6,33.713a1.054,1.054,0,0,1-.882-.6L44.3,32.32a.57.57,0,0,1,.139-.743l.65-.65a1.077,1.077,0,0,1,.929-.279h.093a1.054,1.054,0,0,1,.882.6l.418.789a1.437,1.437,0,0,1,.093.371c0,.139-.093.232-.186.371l-.65.65a1.265,1.265,0,0,1-.557.279ZM14.627,38.5l-.836-.418a.419.419,0,0,1-.279-.279.494.494,0,0,1-.046-.371l.139-.882a1.223,1.223,0,0,1,.7-.836,1.242,1.242,0,0,1,1.068-.046l.789.418a.6.6,0,0,1,.325.7l-.139.836a1.231,1.231,0,0,1-.6.789l-.093.046a.749.749,0,0,1-.418.139.886.886,0,0,1-.6-.093Zm2.275-.789.139-.882a1.324,1.324,0,0,0-.093-.743.92.92,0,0,0-.511-.511l-.789-.418c-.046,0-.093-.046-.139-.046l1.672-.836a1.241,1.241,0,0,1,1.068-.046l.789.418a.6.6,0,0,1,.325.7l-.139.882a1.223,1.223,0,0,1-.7.836l-1.672.836a.351.351,0,0,0,.046-.186Zm25.54-4.5a1.054,1.054,0,0,1-.882-.6l-.418-.789a.57.57,0,0,1,.139-.743l.65-.65a1.279,1.279,0,0,1,1.022-.279l1.811.279-.093.093-.65.65a1.323,1.323,0,0,0-.371.65,1.076,1.076,0,0,0,.139.743l.418.789c0,.047.046.093.093.139Zm-6.13-.418a.952.952,0,0,1-.6-1.207,1.084,1.084,0,0,1,.464-.557.911.911,0,0,1,.7-.047.952.952,0,0,1,.6,1.207c0,.046-.046.093-.046.139a.911.911,0,0,1-.418.418.66.66,0,0,1-.279.093,1.286,1.286,0,0,1-.418-.046ZM22.893,34.5c-.046-.046-.046-.093-.093-.139a.8.8,0,0,1-.093-.557,1.032,1.032,0,0,1,.371-.6.9.9,0,0,1,1.3.186,1.209,1.209,0,0,1,.186.7,1.032,1.032,0,0,1-.371.6,1.648,1.648,0,0,1-.418.186,1.018,1.018,0,0,1-.882-.371Zm-3.065.093a1.277,1.277,0,1,1,1.718.557c-.139.046-.232.093-.371.139a1.311,1.311,0,0,1-1.347-.7Zm19.178-2.183a1.264,1.264,0,0,1-1.068-1.44A1.31,1.31,0,0,1,39.424,29.9a1.267,1.267,0,0,1,0,2.508Zm17.553-.093a2.684,2.684,0,0,1-2.182-1.114h0l-.046-.093a3.707,3.707,0,0,0-2.322-1.486,3.809,3.809,0,0,0,2.368-1.486l.046-.046v-.046L54.47,28a2.618,2.618,0,0,1,2.136-1.068c1.95,0,2.09,2.09,2.09,2.693a3.574,3.574,0,0,1-.511,1.95,1.755,1.755,0,0,1-1.207.743ZM2,38.588a3.316,3.316,0,0,1-.093-2,1.737,1.737,0,0,1,1.254-1.207,2.632,2.632,0,0,1,2.415.371h0l.093.093a3.944,3.944,0,0,0,2.693.7,3.808,3.808,0,0,0-1.765,2.136v.093a.144.144,0,0,1-.046.093,2.788,2.788,0,0,1-1.718,1.672,1.436,1.436,0,0,1-.371.093C2.879,40.864,2.182,39.146,2,38.588ZM47.458,28.233l.325-.6a3.679,3.679,0,0,0,2.554,1.95,3.678,3.678,0,0,0-2.554,1.95l-.279-.6a1.77,1.77,0,0,0-1.3-.882h-.093l-3.065-.511H43l3.158-.464h0a1.608,1.608,0,0,0,1.3-.836Zm-37.52,7.8a3.6,3.6,0,0,0,1.811-2.647l.464.464a1.689,1.689,0,0,0,1.486.418h.093l3.065-.464h0l-2.833,1.439a1.894,1.894,0,0,0-.975,1.207l-.093.65a3.471,3.471,0,0,0-3.018-1.068Zm8.219-3.158.418-.789a1.725,1.725,0,0,0,1.114.743,1.753,1.753,0,0,0-.464,1.254l-.789-.418a1.836,1.836,0,0,0-1.022-.139,1.149,1.149,0,0,0,.743-.65Zm21.918-3.251a1.759,1.759,0,0,0,.836-1.068l.6.6a1.567,1.567,0,0,0,.929.418,1.566,1.566,0,0,0-.929.418l-.65.65a1.726,1.726,0,0,0-.789-1.022Zm-3.111.929a.931.931,0,0,1-.929-.929.952.952,0,0,1,.929-.929.931.931,0,0,1,.929.929v.139a1.031,1.031,0,0,1-.789.789ZM21.732,32.18c0-.047-.046-.093-.046-.139a.8.8,0,0,1,.093-.557.93.93,0,0,1,.557-.464.972.972,0,0,1,1.207.6.9.9,0,0,1-.046.7.931.931,0,0,1-.557.464c-.046,0-.093.046-.139.046a1.027,1.027,0,0,1-1.068-.65Zm-2.972-.836A1.267,1.267,0,1,1,20.2,32.412a1.317,1.317,0,0,1-1.439-1.068ZM37.938,28.28a1.264,1.264,0,0,1,1.068-1.44,1.336,1.336,0,0,1,1.486,1.068,1.291,1.291,0,0,1-2.554.371Zm7.1,0-.65-.65a.642.642,0,0,1-.139-.743l.418-.789a1.139,1.139,0,0,1,.789-.557h.093a1.23,1.23,0,0,1,1.022.279l.65.65a.573.573,0,0,1,.186.371.5.5,0,0,1-.093.371L46.9,28a1.191,1.191,0,0,1-.882.557,1.078,1.078,0,0,1-.975-.279ZM13.652,33.713a1.23,1.23,0,0,1-1.022-.279l-.65-.65a.573.573,0,0,1-.186-.371.5.5,0,0,1,.093-.371l.418-.789a1.191,1.191,0,0,1,.882-.557,1.23,1.23,0,0,1,1.022.279l.65.6A.629.629,0,0,1,15,32.32l-.418.789a1.139,1.139,0,0,1-.789.557Zm3.111-.511-1.811.279A.144.144,0,0,0,15,33.388l.418-.789a1.076,1.076,0,0,0,.139-.743,1.238,1.238,0,0,0-.325-.65l-.65-.65c-.046-.046-.093-.046-.093-.093l1.857-.279a1.231,1.231,0,0,1,1.022.279l.65.65a.569.569,0,0,1,.093.743l-.418.789a1.284,1.284,0,0,1-.929.557Zm26.144-4.133a1.23,1.23,0,0,1-1.022-.279l-.65-.65a.562.562,0,0,1-.093-.743l.418-.789a1.191,1.191,0,0,1,.882-.557l1.811-.279a.144.144,0,0,0-.046.093l-.418.789a1.076,1.076,0,0,0-.139.743,1.238,1.238,0,0,0,.325.65l.65.65c.046.046.093.046.093.093Zm-7.2-1.44a.911.911,0,0,1,.047-.7.93.93,0,0,1,.557-.464.972.972,0,0,1,1.207.6c0,.046.046.093.046.139a.8.8,0,0,1-.093.557.931.931,0,0,1-.557.464c-.047,0-.093.046-.139.046a.929.929,0,0,1-1.068-.65Zm-13.42,2.925a.931.931,0,0,1-.929-.929v-.139a1.107,1.107,0,0,1,.279-.511.917.917,0,0,1,.65-.279.931.931,0,0,1,.929.929.917.917,0,0,1-.279.65,1.107,1.107,0,0,1-.511.279Zm-4.551-1.347.65-.65a1.759,1.759,0,0,0,.836,1.068,1.759,1.759,0,0,0-.836,1.068l-.6-.6a1.567,1.567,0,0,0-.929-.418H16.9a2.958,2.958,0,0,0,.836-.464Zm21.825-2.833a1.753,1.753,0,0,0,.464-1.254l.789.418a1.836,1.836,0,0,0,1.022.139,1.553,1.553,0,0,0-.743.7l-.418.789a1.86,1.86,0,0,0-1.114-.789ZM6.037,35.384h0l-.093-.093h0a2.521,2.521,0,0,1-.789-1.765,2.582,2.582,0,0,1,.232-2c0-.046.046-.046.046-.093a3.241,3.241,0,0,1,2.136-1.3,3.03,3.03,0,0,1,3.576,2.368A3.074,3.074,0,0,1,8.5,35.9h0a3.466,3.466,0,0,1-2.461-.511Zm45.6-6.315A3.03,3.03,0,0,1,48.061,26.7a3.074,3.074,0,0,1,2.647-3.39,3.113,3.113,0,0,1,2.415.557h0l.093.047h0a2.521,2.521,0,0,1,.789,1.765,2.582,2.582,0,0,1-.232,2c0,.046-.046.046-.046.093a2.943,2.943,0,0,1-2.09,1.3Zm-16.856-3.2a1.21,1.21,0,0,1-.186-.7,1.032,1.032,0,0,1,.371-.6.9.9,0,0,1,1.3.186c.046.046.046.093.093.139a.8.8,0,0,1,.093.557,1.032,1.032,0,0,1-.371.6,1.648,1.648,0,0,1-.418.186,1.018,1.018,0,0,1-.882-.371ZM19.828,29.348a1.29,1.29,0,0,1-1.068-1.439,1.31,1.31,0,0,1,1.486-1.068,1.267,1.267,0,0,1,0,2.508.644.644,0,0,1-.418,0ZM37.1,25.818a1.277,1.277,0,0,1,2.275-1.161,1.29,1.29,0,0,1-.557,1.718c-.139.046-.232.093-.371.139a1.472,1.472,0,0,1-1.347-.7ZM22.336,28.233a.952.952,0,0,1-.6-1.207c0-.046.046-.093.046-.139a.917.917,0,0,1,1.114-.464.952.952,0,0,1,.6,1.207,1.084,1.084,0,0,1-.464.557.659.659,0,0,1-.279.093,1.432,1.432,0,0,1-.418-.046ZM42.35,25.447l2.833-1.439a1.894,1.894,0,0,0,.975-1.207l.093-.65a3.606,3.606,0,0,0,3.018,1.068,3.6,3.6,0,0,0-1.811,2.647l-.464-.464a1.689,1.689,0,0,0-1.486-.418h-.093l-3.065.464H42.3c0,.047.046.047.046,0ZM8.916,29.626a3.678,3.678,0,0,0,2.554-1.95l.279.557a1.77,1.77,0,0,0,1.3.882h.093l3.065.511h.046l-3.158.464a1.77,1.77,0,0,0-1.3.882l-.325.6a3.56,3.56,0,0,0-2.554-1.95Zm9.519-4.086.789-.418a1.753,1.753,0,0,0,.464,1.254,1.849,1.849,0,0,0-1.114.743l-.418-.789a1.475,1.475,0,0,0-.789-.7,1.326,1.326,0,0,0,.6,0,1.375,1.375,0,0,0,.464-.093ZM38.078,23.5a1.924,1.924,0,0,0,.047-1.347l.882.139a2,2,0,0,0,1.022-.186,1.446,1.446,0,0,0-.511.882l-.139.882a1.715,1.715,0,0,0-1.3-.371Zm2.972,1.532-.836-.418a.6.6,0,0,1-.325-.7l.139-.882a1.223,1.223,0,0,1,.7-.836l1.672-.836c0,.046-.046.093-.046.139l-.139.882a1.324,1.324,0,0,0,.093.743.92.92,0,0,0,.511.511l.789.418c.047,0,.093.046.139.046l-1.672.836a.749.749,0,0,1-.418.139.694.694,0,0,1-.6-.047ZM16.3,29.069l-1.811-.279.093-.093.65-.65a1.325,1.325,0,0,0,.371-.65,1.076,1.076,0,0,0-.139-.743l-.418-.789c0-.047-.046-.093-.093-.139L16.763,26a1.054,1.054,0,0,1,.882.6l.464.789a.57.57,0,0,1-.139.743l-.65.65a1.266,1.266,0,0,1-.557.279.791.791,0,0,1-.464,0Zm17.089-4.644a1.032,1.032,0,0,1-.371-.6.777.777,0,0,1,.186-.7.908.908,0,0,1,1.3-.186c.047.046.093.046.093.093a1.107,1.107,0,0,1,.279.511.777.777,0,0,1-.186.7.848.848,0,0,1-.6.371.777.777,0,0,1-.7-.186ZM23.125,26.051a.908.908,0,0,1-.186-1.3c.046-.046.046-.093.093-.093a1.107,1.107,0,0,1,.511-.279.777.777,0,0,1,.7.186.96.96,0,0,1,.232,1.3,1.032,1.032,0,0,1-.6.371h0a1,1,0,0,1-.743-.186Zm4.644-2.136a1.4,1.4,0,0,0,.836-.789c0,.046.047.046.047.093a1.415,1.415,0,0,0,.743.371h.232a1.331,1.331,0,0,0,1.022-.464c0,.046,0,.046.046.093a1.27,1.27,0,0,0,.6.6c.046.046.139.046.186.093a1.342,1.342,0,0,0,1.114-.139v.093a1.414,1.414,0,0,0,.371.743.641.641,0,0,0,.186.139,1.379,1.379,0,0,0,1.114.232c0,.046,0,.046-.046.093a1.34,1.34,0,0,0,.139.836c.046.046.046.139.093.186a1.411,1.411,0,0,0,.975.557c0,.046-.046.046-.046.093a1.339,1.339,0,0,0-.139.836c0,.093.046.139.046.232a1.4,1.4,0,0,0,.789.836c-.046,0-.046.046-.093.046a1.415,1.415,0,0,0-.371.743v.232a1.331,1.331,0,0,0,.464,1.022c-.046,0-.046,0-.093.046a1.27,1.27,0,0,0-.6.6c-.046.047-.046.139-.093.186a1.342,1.342,0,0,0,.139,1.114h-.093a1.414,1.414,0,0,0-.743.371.641.641,0,0,0-.139.186,1.379,1.379,0,0,0-.232,1.114c-.046,0-.046,0-.093-.046a1.34,1.34,0,0,0-.836.139c-.046.046-.139.046-.186.093a1.411,1.411,0,0,0-.557.975c-.046,0-.046-.046-.093-.046a1.339,1.339,0,0,0-.836-.139c-.093,0-.139.047-.232.047a1.4,1.4,0,0,0-.836.789c0-.047-.046-.047-.046-.093a1.415,1.415,0,0,0-.743-.371h-.232a1.331,1.331,0,0,0-1.022.464c0-.047,0-.047-.046-.093a1.27,1.27,0,0,0-.6-.6c-.047-.046-.139-.046-.186-.093a1.342,1.342,0,0,0-1.114.139v-.093a1.414,1.414,0,0,0-.371-.743A.643.643,0,0,0,26,34.5a1.38,1.38,0,0,0-1.114-.232c0-.046,0-.046.046-.093a1.34,1.34,0,0,0-.139-.836.352.352,0,0,1-.093-.186,1.41,1.41,0,0,0-.975-.557c0-.047.046-.047.046-.093a1.339,1.339,0,0,0,.139-.836c0-.093-.047-.139-.047-.232a1.4,1.4,0,0,0-.789-.836c.047,0,.047-.047.093-.047a1.415,1.415,0,0,0,.371-.743V29.58a1.331,1.331,0,0,0-.464-1.022c.047,0,.047,0,.093-.046a1.27,1.27,0,0,0,.6-.6c.046-.046.046-.139.093-.186a1.342,1.342,0,0,0-.139-1.114h.093a1.414,1.414,0,0,0,.743-.371.643.643,0,0,0,.139-.186,1.38,1.38,0,0,0,.232-1.114c.046,0,.046,0,.093.046a1.34,1.34,0,0,0,.836-.139c.046-.046.139-.046.186-.093a1.41,1.41,0,0,0,.557-.975c.047,0,.047.046.093.046a1.339,1.339,0,0,0,.836.139.348.348,0,0,0,.232-.046Zm16.113-.325-.789-.418a.6.6,0,0,1-.325-.7l.139-.882a1.231,1.231,0,0,1,.6-.789l.093-.046a1.242,1.242,0,0,1,1.068-.047l.789.418a.419.419,0,0,1,.279.279.583.583,0,0,1,.046.418l-.139.882a1.223,1.223,0,0,1-.7.836,1.476,1.476,0,0,1-.418.139,1.022,1.022,0,0,1-.65-.093ZM13.234,28.558h-.093a1.054,1.054,0,0,1-.882-.6l-.418-.789a.55.55,0,0,1-.046-.371c0-.139.093-.232.186-.371l.65-.65a1.279,1.279,0,0,1,1.022-.279,1.054,1.054,0,0,1,.882.6l.418.789a.57.57,0,0,1-.139.743l-.65.65a1.059,1.059,0,0,1-.557.279.509.509,0,0,1-.371,0Zm40.4-5.061h0l-.093-.093a3.943,3.943,0,0,0-2.693-.7,3.808,3.808,0,0,0,1.765-2.136v-.093c0-.046,0-.046.046-.093a2.788,2.788,0,0,1,1.718-1.672c1.857-.6,2.647,1.3,2.833,1.9a3.315,3.315,0,0,1,.093,2,1.737,1.737,0,0,1-1.254,1.207,1.356,1.356,0,0,1-.418.093,2.389,2.389,0,0,1-2-.418ZM2.693,32.32C.743,32.32.6,30.23.6,29.626a3.575,3.575,0,0,1,.511-1.95,1.837,1.837,0,0,1,1.579-.789A2.684,2.684,0,0,1,4.876,28h0l.046.093A3.707,3.707,0,0,0,7.244,29.58a3.809,3.809,0,0,0-2.368,1.486l-.046.046v.046l-.046.046a2.561,2.561,0,0,1-1.718,1.022.5.5,0,0,1-.371.093Zm17.692-5.944a1.277,1.277,0,1,1,1.718-.557,1.406,1.406,0,0,1-.929.7,2.576,2.576,0,0,1-.789-.139ZM35.57,23.682a1.281,1.281,0,1,1,1.811,0,1.462,1.462,0,0,1-.7.371,1.371,1.371,0,0,1-1.114-.371Zm-3.993-.139a1.084,1.084,0,0,1-.557-.464.911.911,0,0,1-.047-.7.952.952,0,0,1,1.207-.6c.046,0,.093.046.139.046a.917.917,0,0,1,.464,1.114.891.891,0,0,1-.743.65,1.742,1.742,0,0,1-.464-.046Zm-6.408,1.068a1.032,1.032,0,0,1-.6-.371.9.9,0,0,1,.186-1.3c.046-.046.093-.046.139-.093a.8.8,0,0,1,.557-.093,1.032,1.032,0,0,1,.6.371.9.9,0,0,1-.186,1.3,1.65,1.65,0,0,1-.418.186Zm4.458-1.393a.952.952,0,0,1-.929-.929.931.931,0,0,1,.929-.929h.139a1.107,1.107,0,0,1,.511.279.917.917,0,0,1,.279.65.944.944,0,0,1-.789.929Zm-2.693.279a.931.931,0,0,1-.464-.557.972.972,0,0,1,.6-1.207c.046,0,.093-.046.139-.046a.8.8,0,0,1,.557.093.931.931,0,0,1,.464.557.972.972,0,0,1-.6,1.207c-.046,0-.093.046-.139.046a2.332,2.332,0,0,1-.557-.093Zm-7.2-.511a1.7,1.7,0,0,0-.511-.929,1.615,1.615,0,0,0,1.022.186l.882-.139a1.923,1.923,0,0,0,.046,1.347,1.867,1.867,0,0,0-1.3.371Zm15.649-3.111.882-.139a1.7,1.7,0,0,0,.929-.511,1.615,1.615,0,0,0-.186,1.022l.139.882a1.923,1.923,0,0,0-1.347.046,2.173,2.173,0,0,0-.418-1.3ZM21.871,23.682a1.281,1.281,0,1,1,1.811,0,1.461,1.461,0,0,1-.7.371,1.371,1.371,0,0,1-1.114-.371ZM33.434,22.1a1.277,1.277,0,1,1,1.718-.557,1.406,1.406,0,0,1-.929.7,1.157,1.157,0,0,1-.789-.139ZM7.569,29.069a3.241,3.241,0,0,1-2.136-1.3h0l-.046-.093h0a2.892,2.892,0,0,1-.232-1.95,2.667,2.667,0,0,1,.836-1.811c.046,0,.046-.047.093-.047A3.2,3.2,0,0,1,8.5,23.311a3.04,3.04,0,0,1,2.647,3.39,2.909,2.909,0,0,1-2.508,2.368,4.108,4.108,0,0,1-1.068,0ZM46.25,21.128a3.058,3.058,0,0,1,1.486-4.04,3.267,3.267,0,0,1,2.461-.232h0l.093.046h0a2.517,2.517,0,0,1,1.3,1.439,2.886,2.886,0,0,1,.418,1.95c0,.047,0,.047-.046.093a3.2,3.2,0,0,1-1.625,1.857,2.636,2.636,0,0,1-1.022.325,2.867,2.867,0,0,1-3.065-1.439Zm-5.8.6L42.721,19.5a1.882,1.882,0,0,0,.557-1.486l-.093-.65a3.687,3.687,0,0,0,3.2.093,3.6,3.6,0,0,0-.929,3.065l-.6-.279a1.885,1.885,0,0,0-1.579.046c-.046,0-.046.047-.093.047l-2.74,1.393Zm-27.49.418.093.65a1.7,1.7,0,0,0,.975,1.207c.046,0,.046.046.093.046l2.74,1.393a.045.045,0,0,1,.046.047h-.046L13.7,24.983a1.65,1.65,0,0,0-1.486.418l-.464.464a3.6,3.6,0,0,0-1.811-2.647,2.532,2.532,0,0,0,1.022-.046,3.327,3.327,0,0,0,2-1.022Zm26.1-.418-.882-.139a.558.558,0,0,1-.511-.557l-.139-.882a1.19,1.19,0,0,1,.371-.975l1.3-1.3v.139l.139.882a.974.974,0,0,0,.325.65,1.239,1.239,0,0,0,.65.325l.882.139h.139l-1.254,1.347a1.707,1.707,0,0,1-.7.371ZM17.135,24.983l-1.672-.836c.046,0,.093-.046.139-.046l.836-.418A1.98,1.98,0,0,0,17,23.172a1.324,1.324,0,0,0,.093-.743l-.139-.882a.171.171,0,0,0-.046-.139l1.672.836a1.356,1.356,0,0,1,.7.836l.139.882a.691.691,0,0,1-.325.7l-.836.418c-.093.046-.186.046-.279.093a1.7,1.7,0,0,1-.836-.186ZM24.1,21.546a1.277,1.277,0,1,1,2.275-1.161,1.251,1.251,0,0,1-.557,1.718c-.139.046-.232.093-.371.139a1.246,1.246,0,0,1-1.347-.7Zm6.826-.232a1.29,1.29,0,0,1-1.068-1.44A1.264,1.264,0,0,1,31.3,18.807a1.267,1.267,0,0,1,0,2.508ZM26.84,20.246a1.267,1.267,0,1,1,1.44,1.068,1.264,1.264,0,0,1-1.44-1.068ZM41.328,19.5l-.929-.139a.64.64,0,0,1-.557-.557l-.139-.882A1.271,1.271,0,0,1,40.028,17l.093-.093a1.231,1.231,0,0,1,1.022-.371l.882.139a.573.573,0,0,1,.371.186.932.932,0,0,1,.186.371l.139.882a1.19,1.19,0,0,1-.371.975,1.706,1.706,0,0,1-.7.371.907.907,0,0,1-.325.046ZM14.4,23.59l-.093-.046a1.356,1.356,0,0,1-.7-.836l-.139-.929a.656.656,0,0,1,.046-.418.542.542,0,0,1,.279-.279l.836-.418a1.242,1.242,0,0,1,1.068.046,1.356,1.356,0,0,1,.7.836l.139.882a.691.691,0,0,1-.325.7l-.836.418c-.093.046-.186.046-.279.093a.911.911,0,0,1-.7-.046Zm7.894-3.343a2,2,0,0,0-.186-1.022,1.446,1.446,0,0,0,.882.511l.882.139a1.866,1.866,0,0,0-.371,1.3,1.923,1.923,0,0,0-1.347-.046Zm9.8-1.672.789-.418a1.475,1.475,0,0,0,.7-.789,1.845,1.845,0,0,0,.093,1.022l.418.789a1.753,1.753,0,0,0-1.254.464,1.887,1.887,0,0,0-.743-1.068Zm-6.965.65.418-.789a1.836,1.836,0,0,0,.139-1.022,1.553,1.553,0,0,0,.7.743l.789.418a1.725,1.725,0,0,0-.743,1.114,1.946,1.946,0,0,0-1.3-.464Zm3.436-.882.6-.6a1.567,1.567,0,0,0,.418-.929,1.566,1.566,0,0,0,.418.929l.65.65a1.759,1.759,0,0,0-1.068.836,1.5,1.5,0,0,0-1.022-.882ZM19.55,19.55a1.239,1.239,0,0,0,.325-.65l.139-.882v-.139l1.3,1.3a1.19,1.19,0,0,1,.371.975l-.139.882a.641.641,0,0,1-.557.557l-.882.139a1.191,1.191,0,0,1-.975-.371l-1.3-1.3h.139l.882-.139h0a1.243,1.243,0,0,0,.7-.371Zm15.045-.557-.418-.836a1.242,1.242,0,0,1,.046-1.068l.836-1.625c0,.046.046.093.046.139l.418.836a1.98,1.98,0,0,0,.511.557,1.324,1.324,0,0,0,.743.093l.882-.139A.171.171,0,0,0,37.8,16.9l-.836,1.672a1.356,1.356,0,0,1-.836.7l-.882.139h0a.7.7,0,0,1-.65-.418ZM12.863,17.46a3.537,3.537,0,0,0,3.2-.093l-.093.65a1.736,1.736,0,0,0,.557,1.486c0,.047.046.047.093.047l2.183,2.182.046.046a.045.045,0,0,1-.046-.046l-2.833-1.44a1.728,1.728,0,0,0-1.579-.046l-.6.279a3.6,3.6,0,0,0-.929-3.065Zm28.93-4.6a3.537,3.537,0,0,0,.093,3.2l-.65-.093a1.736,1.736,0,0,0-1.486.557c-.046.046-.046.046-.046.093L37.52,18.807l-.046.046a.045.045,0,0,1,.046-.046l1.44-2.833a1.728,1.728,0,0,0,.046-1.579l-.279-.6a2.454,2.454,0,0,0,1.161,0,3.506,3.506,0,0,0,1.9-.929Zm-5.758,3.3-.418-.836a1.189,1.189,0,0,1,0-.975l.046-.093a1.356,1.356,0,0,1,.836-.7l.882-.139a.656.656,0,0,1,.418.046.542.542,0,0,1,.279.279l.418.836a1.242,1.242,0,0,1-.047,1.068,1.355,1.355,0,0,1-.836.7l-.882.139h0a.6.6,0,0,1-.7-.325Zm-17.228,3.2-.882.139A1.271,1.271,0,0,1,17,19.178l-.093-.093a1.231,1.231,0,0,1-.371-1.022l.139-.882a.573.573,0,0,1,.186-.371.932.932,0,0,1,.371-.186l.882-.139a1.19,1.19,0,0,1,.975.371,1.231,1.231,0,0,1,.371,1.022l-.139.882a.6.6,0,0,1-.511.6Zm4.365-2.415a.92.92,0,0,0,.511-.511l.418-.789c0-.046.046-.093.046-.139l.836,1.672a1.241,1.241,0,0,1,.046,1.068l-.418.743a.6.6,0,0,1-.7.325l-.882-.139a1.223,1.223,0,0,1-.836-.7l-.836-1.672c.046,0,.093.046.139.046l.882.139a.644.644,0,0,0,.418,0,.524.524,0,0,0,.371-.046Zm7.894,1.022-.65-.65a1.083,1.083,0,0,1-.232-1.022l.279-1.811.093.093.65.65a1.325,1.325,0,0,0,.65.371,1.076,1.076,0,0,0,.743-.139l.789-.418c.046,0,.093-.046.139-.093l-.279,1.811a1.054,1.054,0,0,1-.6.882l-.836.464a.279.279,0,0,1-.186.046.507.507,0,0,1-.557-.186Zm17.646-4.086V13.7a2.664,2.664,0,0,1,1.114-2.136c1.579-1.161,2.926.418,3.3.929a3.309,3.309,0,0,1,.7,1.857,1.748,1.748,0,0,1-.836,1.532,2.653,2.653,0,0,1-2.415.371h0l-.093-.046a3.853,3.853,0,0,0-2.786.186,3.43,3.43,0,0,0,1.022-2.508ZM3.158,23.868c-1.857-.6-1.347-2.6-1.161-3.2a2.975,2.975,0,0,1,1.114-1.672,1.827,1.827,0,0,1,1.765-.232,2.644,2.644,0,0,1,1.718,1.718h0l.046.093A3.808,3.808,0,0,0,8.4,22.707a3.943,3.943,0,0,0-2.693.7l-.046.046H5.619l-.046.047a3.348,3.348,0,0,1-1.114.464,2.488,2.488,0,0,1-1.3-.093ZM27.4,18.11l-.789-.418a1.191,1.191,0,0,1-.557-.882L25.772,15a.144.144,0,0,0,.093.046l.789.418a1.076,1.076,0,0,0,.743.139,1.239,1.239,0,0,0,.65-.325l.65-.65c.046-.046.046-.093.093-.093l.279,1.857a1.23,1.23,0,0,1-.279,1.022l-.65.65a.573.573,0,0,1-.371.186,3.194,3.194,0,0,0-.371-.139ZM8.823,22.289A3.18,3.18,0,0,1,7.2,20.432h0l-.046-.093h0a2.536,2.536,0,0,1,.418-1.9,2.683,2.683,0,0,1,1.347-1.486c.046,0,.046,0,.093-.046a3.05,3.05,0,0,1,2.461.232,3.058,3.058,0,0,1,1.486,4.04,2.775,2.775,0,0,1-2.136,1.486,3.83,3.83,0,0,1-2-.371Zm33.991-5.9A3.021,3.021,0,0,1,43,12.12a3.17,3.17,0,0,1,2.275-.975h.093a2.748,2.748,0,0,1,1.718.975,2.456,2.456,0,0,1,.975,1.718v.046h0v.046a3.327,3.327,0,0,1-2.786,3.2,2.739,2.739,0,0,1-2.461-.743ZM31.577,14.813l-.65-.65a1.077,1.077,0,0,1-.279-.929v-.093a1.054,1.054,0,0,1,.6-.882l.789-.418a.55.55,0,0,1,.371-.046c.139,0,.232.093.371.186l.65.65a1.279,1.279,0,0,1,.279,1.022,1.054,1.054,0,0,1-.6.882l-.789.418a.279.279,0,0,1-.186.046.507.507,0,0,1-.557-.186Zm-9.055,1.718-.882-.139a1.232,1.232,0,0,1-.789-.6L20.8,15.7a1.242,1.242,0,0,1-.046-1.068l.418-.789a.419.419,0,0,1,.279-.279.583.583,0,0,1,.418-.046l.882.139a1.223,1.223,0,0,1,.836.7,1.242,1.242,0,0,1,.046,1.068l-.418.789a.559.559,0,0,1-.464.325Zm4.365-1.579-.789-.418a1.249,1.249,0,0,1-.557-.789v-.093a1.23,1.23,0,0,1,.279-1.022l.65-.65a.573.573,0,0,1,.371-.186.5.5,0,0,1,.371.093l.789.418a1.191,1.191,0,0,1,.557.882,1.23,1.23,0,0,1-.279,1.022l-.6.65a.573.573,0,0,1-.371.186.69.69,0,0,1-.418-.093Zm-5.154,3.854L19.5,16.531a1.882,1.882,0,0,0-1.486-.557l-.65.093a3.687,3.687,0,0,0,.093-3.2,3.6,3.6,0,0,0,3.065.929l-.279.6a1.885,1.885,0,0,0,.046,1.579c0,.047.047.047.047.093l1.393,2.74Zm14.3-8.869A3.556,3.556,0,0,0,37.1,12.956l-.65.093a1.7,1.7,0,0,0-1.207.975c0,.046-.046.046-.046.093l-1.393,2.74a.045.045,0,0,1-.046.046v-.046L34.27,13.7a1.65,1.65,0,0,0-.418-1.486l-.464-.464h.093a3.751,3.751,0,0,0,2.554-1.811ZM25.447,16.9,24.008,14.07a1.894,1.894,0,0,0-1.207-.975L22.15,13a3.606,3.606,0,0,0,1.068-3.018,3.6,3.6,0,0,0,2.647,1.811l-.464.464a1.689,1.689,0,0,0-.418,1.486v.093l.464,3.065v.046c.047-.046.047-.046,0-.046Zm4.179-.7-.464-3.158a1.77,1.77,0,0,0-.882-1.3l-.6-.325a3.678,3.678,0,0,0,1.95-2.554,3.679,3.679,0,0,0,1.95,2.554l-.6.279a1.77,1.77,0,0,0-.882,1.3v.093l-.464,3.111v0ZM11.145,13.792h0a2.639,2.639,0,0,1,.975-1.718,2.456,2.456,0,0,1,1.718-.975h.093a3.281,3.281,0,0,1,2.275.975,3.122,3.122,0,0,1,.186,4.319,3.021,3.021,0,0,1-4.272-.186,3.093,3.093,0,0,1-.975-2.275h0ZM38.96,7.151h0a2.5,2.5,0,0,1,1.9.418A2.682,2.682,0,0,1,42.35,8.916v.046h0v.046a3.05,3.05,0,0,1-.232,2.461,3.058,3.058,0,0,1-4.04,1.486,3.045,3.045,0,0,1-1.161-4.133A3.18,3.18,0,0,1,38.774,7.2h0Zm3.947,1.625V8.591a2.692,2.692,0,0,1,.418-2.368c1.161-1.579,2.925-.511,3.436-.139a3.275,3.275,0,0,1,1.254,1.579A1.805,1.805,0,0,1,47.69,9.38a2.75,2.75,0,0,1-2.183,1.115h-.139a3.786,3.786,0,0,0-2.554,1.022,4.243,4.243,0,0,0,.093-2.74Zm-36.638,7.2c-1.579-1.161-.511-2.925-.139-3.436a3.274,3.274,0,0,1,1.579-1.254,1.805,1.805,0,0,1,1.718.325,2.75,2.75,0,0,1,1.114,2.183h0v.139a3.7,3.7,0,0,0,1.022,2.554A3.854,3.854,0,0,0,8.776,16.3H8.591c-.139.046-.232.046-.371.093a2.289,2.289,0,0,1-1.95-.418ZM16.9,8.869h0a2.517,2.517,0,0,1,1.439-1.3,2.886,2.886,0,0,1,1.95-.418c.047,0,.047,0,.093.046a3.2,3.2,0,0,1,1.857,1.625,3.044,3.044,0,0,1-1.161,4.133,3.058,3.058,0,0,1-4.04-1.486,3.267,3.267,0,0,1-.232-2.461h0ZM31.53,5.34h0a2.643,2.643,0,0,1,1.95-.232,2.667,2.667,0,0,1,1.811.836.162.162,0,0,1,.047.093A3.2,3.2,0,0,1,35.9,8.451a2.925,2.925,0,1,1-5.758-.929,3.241,3.241,0,0,1,1.3-2.136h0Zm-7.569.6h0a2.346,2.346,0,0,1,1.765-.789,2.582,2.582,0,0,1,2,.232c.046,0,.046.046.093.046a3.241,3.241,0,0,1,1.3,2.136,3.03,3.03,0,0,1-2.368,3.576A3.074,3.074,0,0,1,23.357,8.5a3.112,3.112,0,0,1,.557-2.415h0ZM35.8,5.712l-.046-.046V5.619l-.047-.046A2.858,2.858,0,0,1,35.338,3.2c.6-1.857,2.6-1.347,3.2-1.161a2.975,2.975,0,0,1,1.672,1.114,1.827,1.827,0,0,1,.232,1.765A2.644,2.644,0,0,1,38.728,6.64h0l-.093.046A3.808,3.808,0,0,0,36.5,8.451a3.523,3.523,0,0,0-.7-2.74ZM13.884,10.541H13.7a2.664,2.664,0,0,1-2.136-1.114c-1.161-1.579.418-2.925.929-3.3a3.309,3.309,0,0,1,1.857-.7,1.748,1.748,0,0,1,1.532.836,2.653,2.653,0,0,1,.371,2.415h0l-.046.093a3.853,3.853,0,0,0,.186,2.786,3.43,3.43,0,0,0-2.508-1.022ZM28.14,4.969l-.046-.046h-.046L28,4.876a2.77,2.77,0,0,1-1.068-2.183c0-1.95,2.09-2.09,2.693-2.09a3.575,3.575,0,0,1,1.95.511,1.837,1.837,0,0,1,.789,1.579,2.684,2.684,0,0,1-1.114,2.183h0l-.139.093A3.707,3.707,0,0,0,29.626,7.29,3.908,3.908,0,0,0,28.14,4.969ZM20.571,6.594h-.093c-.046,0-.046,0-.093-.046a2.788,2.788,0,0,1-1.672-1.718c-.6-1.857,1.3-2.647,1.9-2.833a3.316,3.316,0,0,1,2-.093,1.737,1.737,0,0,1,1.207,1.254,2.632,2.632,0,0,1-.371,2.415h0l-.093.093a3.944,3.944,0,0,0-.7,2.693,3.6,3.6,0,0,0-2.09-1.765ZM28.79.046a2.6,2.6,0,0,0-2.461,2.647A3.2,3.2,0,0,0,26.887,4.5a3.456,3.456,0,0,0-1.207.093,5.277,5.277,0,0,0-1.161.279,3.168,3.168,0,0,0-.046-1.857,2.409,2.409,0,0,0-1.579-1.625,3.8,3.8,0,0,0-2.368.093c-1.95.65-2.786,2-2.275,3.576a2.987,2.987,0,0,0,1.068,1.532,4.02,4.02,0,0,0-1.114.464,6.243,6.243,0,0,0-1.022.65,3.354,3.354,0,0,0-.6-1.765,2.451,2.451,0,0,0-2.043-1.068,3.812,3.812,0,0,0-2.229.836C10.68,6.919,10.262,8.5,11.238,9.844a3.338,3.338,0,0,0,1.486,1.161,5.2,5.2,0,0,0-.929.789,5.2,5.2,0,0,0-.789.929,3.6,3.6,0,0,0-1.254-1.579,2.38,2.38,0,0,0-2.275-.371,3.957,3.957,0,0,0-1.857,1.486c-1.207,1.625-1.114,3.251.232,4.226a3.11,3.11,0,0,0,1.765.6,6.247,6.247,0,0,0-.65,1.022A4.71,4.71,0,0,0,6.5,19.225a3.188,3.188,0,0,0-1.532-1.068,2.453,2.453,0,0,0-2.275.325,4.023,4.023,0,0,0-1.3,1.95c-.6,1.95-.046,3.436,1.532,3.947a3.169,3.169,0,0,0,1.857.046A5.088,5.088,0,0,0,4.5,25.633a9.805,9.805,0,0,0-.093,1.207A3.468,3.468,0,0,0,2.6,26.283,2.406,2.406,0,0,0,.557,27.3,4.9,4.9,0,0,0,0,29.626c0,2.043,1.022,3.3,2.693,3.3A3.2,3.2,0,0,0,4.5,32.366,3.456,3.456,0,0,0,4.6,33.573a5.277,5.277,0,0,0,.279,1.161,3.169,3.169,0,0,0-1.857.046A2.409,2.409,0,0,0,1.393,36.36a3.8,3.8,0,0,0,.093,2.368c.65,1.95,2,2.786,3.576,2.275a2.987,2.987,0,0,0,1.532-1.068,4.02,4.02,0,0,0,.464,1.114,6.247,6.247,0,0,0,.65,1.022,3.353,3.353,0,0,0-1.765.6,2.451,2.451,0,0,0-1.068,2.043,3.812,3.812,0,0,0,.836,2.229C6.919,48.572,8.5,48.99,9.844,48.015a3.338,3.338,0,0,0,1.161-1.486,5.193,5.193,0,0,0,.789.929,5.2,5.2,0,0,0,.929.789,3.045,3.045,0,0,0-1.486,1.161,2.38,2.38,0,0,0-.371,2.275,3.956,3.956,0,0,0,1.486,1.857c1.625,1.207,3.251,1.114,4.226-.232a3.11,3.11,0,0,0,.6-1.765,6.243,6.243,0,0,0,1.022.65,4.707,4.707,0,0,0,1.114.464,3.189,3.189,0,0,0-1.068,1.532,2.453,2.453,0,0,0,.325,2.275,4.022,4.022,0,0,0,1.95,1.3c1.95.6,3.436.046,3.947-1.532a3.168,3.168,0,0,0,.046-1.857,10.866,10.866,0,0,0,1.161.325,9.807,9.807,0,0,0,1.207.093,3.468,3.468,0,0,0-.557,1.811,2.407,2.407,0,0,0,1.022,2.043,3.778,3.778,0,0,0,2.275.65c2.043,0,3.3-1.022,3.3-2.693a3.2,3.2,0,0,0-.557-1.811,3.457,3.457,0,0,0,1.207-.093,5.284,5.284,0,0,0,1.161-.279,3.169,3.169,0,0,0,.046,1.857,2.409,2.409,0,0,0,1.579,1.625,3.8,3.8,0,0,0,2.368-.093c1.95-.65,2.786-2,2.275-3.576a2.987,2.987,0,0,0-1.068-1.532,4.021,4.021,0,0,0,1.114-.464,6.248,6.248,0,0,0,1.022-.65,3.353,3.353,0,0,0,.6,1.765,2.451,2.451,0,0,0,2.043,1.068,3.812,3.812,0,0,0,2.229-.836c1.625-1.207,2.043-2.786,1.068-4.133a3.338,3.338,0,0,0-1.486-1.161,7.543,7.543,0,0,0,1.718-1.718,3.045,3.045,0,0,0,1.161,1.486,2.38,2.38,0,0,0,2.275.371,3.957,3.957,0,0,0,1.857-1.486c1.207-1.625,1.114-3.251-.232-4.226a3.109,3.109,0,0,0-1.765-.6,6.248,6.248,0,0,0,.65-1.022,4.707,4.707,0,0,0,.464-1.114,3.188,3.188,0,0,0,1.532,1.068,2.453,2.453,0,0,0,2.275-.325,4.022,4.022,0,0,0,1.3-1.95c.6-1.95.046-3.436-1.532-3.947a3.169,3.169,0,0,0-1.857-.046,5.089,5.089,0,0,0,.279-1.207,9.789,9.789,0,0,0,.093-1.207,3.468,3.468,0,0,0,1.811.557A2.406,2.406,0,0,0,58.6,31.9a3.778,3.778,0,0,0,.65-2.275,4.249,4.249,0,0,0-.046-.789V28.79a2.6,2.6,0,0,0-2.647-2.461,3.2,3.2,0,0,0-1.811.557,3.454,3.454,0,0,0-.093-1.207,5.278,5.278,0,0,0-.279-1.161,3.168,3.168,0,0,0,1.857-.046,2.409,2.409,0,0,0,1.625-1.579,3.8,3.8,0,0,0-.093-2.368c-.65-1.95-2-2.786-3.576-2.275a2.987,2.987,0,0,0-1.532,1.068,4.018,4.018,0,0,0-.464-1.114,6.243,6.243,0,0,0-.65-1.022,3.354,3.354,0,0,0,1.765-.6,2.451,2.451,0,0,0,1.068-2.043,3.812,3.812,0,0,0-.836-2.229c-1.207-1.625-2.786-2.043-4.133-1.068a3.338,3.338,0,0,0-1.161,1.486,5.2,5.2,0,0,0-.789-.929,5.193,5.193,0,0,0-.929-.789,3.045,3.045,0,0,0,1.486-1.161,2.38,2.38,0,0,0,.371-2.275A3.957,3.957,0,0,0,46.9,5.712C45.275,4.5,43.65,4.6,42.675,5.944a3.11,3.11,0,0,0-.6,1.765,6.247,6.247,0,0,0-1.022-.65,4.71,4.71,0,0,0-1.114-.464A3.189,3.189,0,0,0,41,5.062a2.283,2.283,0,0,0-.279-2.322,4.023,4.023,0,0,0-1.95-1.3c-1.95-.6-3.436-.046-3.947,1.532a3.169,3.169,0,0,0-.046,1.857,5.088,5.088,0,0,0-1.207-.279,9.806,9.806,0,0,0-1.207-.093,3.468,3.468,0,0,0,.557-1.811A2.406,2.406,0,0,0,31.9.6,4.359,4.359,0,0,0,29.626,0a4.249,4.249,0,0,0-.789.046Z" transform="translate(0 0)" fill="url(#radial-gradient)"/>
          <g id="Group_2059" data-name="Group 2059" transform="translate(52.334 4.504)">
            <path id="Path_651" data-name="Path 651" d="M1.228.624H.346V.346h2.09L2.389.624H1.553V2.807H1.228Z" transform="translate(-0.346 -0.346)" fill="#3a1500"/>
            <path id="Path_652" data-name="Path 652" d="M4.126,2.25,3.243.95v1.9H2.965V.346H3.29l.975,1.486L5.24.346h.325V2.807l-.325.046V.95l-.882,1.3Z" transform="translate(-0.504 -0.346)" fill="#3a1500"/>
          </g>
        </g>
      </g>
      <path id="Path_653" data-name="Path 653" d="M194.844,26.933a.557.557,0,1,1,.557-.557A.536.536,0,0,1,194.844,26.933Zm.557,5.9a.557.557,0,1,0-.557.557A.536.536,0,0,0,195.4,32.83Zm0,3.251a.557.557,0,1,0-.557.557A.565.565,0,0,0,195.4,36.081Zm0-25.818a.557.557,0,1,0-.557.557A.6.6,0,0,0,195.4,10.262Zm0,9.659a.557.557,0,1,0-.557.557A.537.537,0,0,0,195.4,19.921Zm0-19.364a.557.557,0,0,0-1.115,0,.536.536,0,0,0,.557.557A.565.565,0,0,0,195.4.557Zm0,6.455a.557.557,0,1,0-.557.557A.536.536,0,0,0,195.4,7.012Zm0-3.251a.557.557,0,0,0-1.115,0,.557.557,0,0,0,1.115,0Zm0,12.956a.557.557,0,1,0-.557.557A.565.565,0,0,0,195.4,16.717Zm0,6.455a.557.557,0,1,0-.557.557A.565.565,0,0,0,195.4,23.172Zm0,6.455a.557.557,0,1,0-.557.557A.565.565,0,0,0,195.4,29.626Zm0-16.16a.557.557,0,1,0-.557.557A.536.536,0,0,0,195.4,13.466Zm0,25.819a.557.557,0,1,0-.557.557A.537.537,0,0,0,195.4,39.285Zm0,3.251a.557.557,0,1,0-.557.557A.537.537,0,0,0,195.4,42.536Zm0,3.251a.557.557,0,1,0-.557.557A.6.6,0,0,0,195.4,45.786Zm0,3.2a.557.557,0,1,0-.557.557A.536.536,0,0,0,195.4,48.99Zm0,3.251a.557.557,0,1,0-.557.557A.565.565,0,0,0,195.4,52.241Zm0,3.2a.557.557,0,1,0-.557.557A.537.537,0,0,0,195.4,55.445Zm0,3.251a.557.557,0,1,0-.557.557A.565.565,0,0,0,195.4,58.7Z" transform="translate(-11.7 0)" fill="#3a1500"/>
    </g>
  </g>
  <g id="Group-2" data-name="Group" transform="translate(199.722 0.046)">
    <path id="Shape-3" data-name="Shape" d="M4.739,59.209H39.845a4.677,4.677,0,0,0,4.69-4.69V4.739a4.677,4.677,0,0,0-4.69-4.69H4.739a4.677,4.677,0,0,0-4.69,4.69V54.565a4.667,4.667,0,0,0,4.69,4.644Z" transform="translate(-0.049 -0.049)"/>
    <path id="Shape-4" data-name="Shape" d="M17.152,30.981a3.1,3.1,0,0,1-1.393-.279c-1.718-.882-3.111-5.247-3.065-9.659,0-2.926,1.857-4.5,4.6-4.5a11.6,11.6,0,0,1,5.062,1.393c5.34,2.74,6.687,7.1,3.065,9.659-2.833,2.09-6.13,3.39-8.266,3.39m-.7-18.9a6.251,6.251,0,0,0-2.136.325c-2.415.743-3.343,2.972-3.158,6.083a40.15,40.15,0,0,0,1.857,8.684c.789,2.368,1.347,3.9,2.322,4.412a2.365,2.365,0,0,0,1.022.232,15.36,15.36,0,0,0,3.854-.882,38.8,38.8,0,0,0,8.173-3.529c2.647-1.625,3.947-3.715,3.158-6.083-.743-2.322-3.483-5.015-7.29-6.965a17.434,17.434,0,0,0-7.8-2.275M6.8,9.388C5.4,11.153,5.4,14.125,6.286,17.747c1.3,5.108,3.483,10.309,4.5,13.745C12,35.021,12,36.832,12.462,37.064c.046,0,.093.047.139.047.6,0,2.136-.929,5.34-1.9,3.436-1.161,8.916-2.368,13.838-4.272,3.483-1.347,5.851-3.065,6.5-5.2A12.926,12.926,0,0,1,32.522,29.5c-4.922,1.9-10.4,3.111-13.838,4.272-3.2.975-4.736,1.9-5.34,1.9a.279.279,0,0,1-.186-.046c-.464-.232-.464-2.043-1.672-5.572-1.022-3.436-3.251-8.637-4.5-13.745-.6-2.786-.789-5.154-.186-6.919" transform="translate(-0.388 -0.612)" fill="#c3cf21"/>
    <path id="Shape-5" data-name="Shape" d="M12.719,5.781a9.774,9.774,0,0,0-2.74.371A4.433,4.433,0,0,0,6.868,9.171,4.568,4.568,0,0,1,9.236,7.592a8.327,8.327,0,0,1,2.74-.371c3.576,0,8.591,1.486,13.745,4.179,6.687,3.436,11.563,7.8,12.631,11.238a4.539,4.539,0,0,1,.093,2.926,4.453,4.453,0,0,0,.65-4.319c-1.022-3.436-5.944-7.8-12.631-11.238C21.31,7.267,16.341,5.781,12.719,5.781" transform="translate(-0.46 -0.395)" fill="#7f9d3d"/>
    <path id="Shape-6" data-name="Shape" d="M38.4,25.514a4,4,0,0,0,.186-1.3,5.2,5.2,0,0,0-.279-1.625c-1.022-3.436-5.944-7.8-12.631-11.238C20.517,8.7,15.5,7.171,11.927,7.171a9.773,9.773,0,0,0-2.74.371A4.568,4.568,0,0,0,6.819,9.122,4.519,4.519,0,0,1,9.93,6.1a8.152,8.152,0,0,1,2.74-.371c3.576,0,8.591,1.486,13.745,4.179,6.687,3.436,11.563,7.8,12.631,11.238a5.2,5.2,0,0,1,.279,1.625,4.013,4.013,0,0,1-.929,2.74" transform="translate(-0.457 -0.392)" fill="#7f9d3d"/>
    <path id="Shape-7" data-name="Shape" d="M12.719,5.781a9.774,9.774,0,0,0-2.74.371A4.433,4.433,0,0,0,6.868,9.171,4.568,4.568,0,0,1,9.236,7.592a8.327,8.327,0,0,1,2.74-.371c3.576,0,8.591,1.486,13.745,4.179,6.687,3.436,11.563,7.8,12.631,11.238a4.983,4.983,0,0,1,.279,1.625h0a4,4,0,0,1-.186,1.3,4.536,4.536,0,0,0,.929-2.74,5.2,5.2,0,0,0-.279-1.625c-1.022-3.436-5.944-7.8-12.631-11.238C21.31,7.267,16.341,5.781,12.719,5.781" transform="translate(-0.46 -0.395)" fill="#456f1e"/>
    <path id="Shape-8" data-name="Shape" d="M16.459,31.645a1.758,1.758,0,0,1-1.022-.232c-.975-.511-1.532-2-2.322-4.365a40.145,40.145,0,0,1-1.857-8.684c-.186-3.111.743-5.34,3.158-6.083a7.374,7.374,0,0,1,2.136-.325,18.269,18.269,0,0,1,7.8,2.229c3.808,1.95,6.594,4.644,7.29,6.965.789,2.368-.511,4.458-3.158,6.083a38.8,38.8,0,0,1-8.173,3.529,15.36,15.36,0,0,1-3.854.882M12,7.313a9.533,9.533,0,0,0-2.74.371A4.568,4.568,0,0,0,6.893,9.263c-.6,1.765-.464,4.133.232,6.919,1.3,5.108,3.483,10.309,4.5,13.745,1.207,3.529,1.207,5.34,1.672,5.572.046.046.093.046.186.046.6,0,2.136-.929,5.34-1.9,3.436-1.161,8.916-2.368,13.838-4.272,2.647-1.022,4.69-2.275,5.758-3.761a4.544,4.544,0,0,0-.093-2.926c-1.022-3.436-5.944-7.8-12.631-11.238C20.545,8.8,15.577,7.313,12,7.313" transform="translate(-0.439 -0.487)" fill="#78a22f"/>
    <path id="Shape-9" data-name="Shape" d="M35.342,42.478v-.139l-.139.046-.371.186-.371.139c-.046,0-.093.046-.093.325v3.158H31.674V43.406a1.134,1.134,0,0,0-.325-.929,1.523,1.523,0,0,0-.975-.279A6.86,6.86,0,0,0,26.1,43.685l-.371.418-.139.139-.093-.186a1.3,1.3,0,0,0-.371-.557l-.139-.139-.093-.093c0,.139.046.418.046.836v2H23.408V39.134l-.139.093-.371.186-.371.139c-.046,0-.093.046-.093.371v6.222a.947.947,0,0,0,.186.743.838.838,0,0,0,.789.371h1.44v.093a6.268,6.268,0,0,1-.279,1.393v.046a1.525,1.525,0,0,0,.371-.279,3.8,3.8,0,0,0,.7-1.207v-.093h8.5a1.038,1.038,0,0,0,.7-.186c.279-.232.371-.371.371-.929V43.546c.139-.093.139-1.068.139-1.068ZM30.7,46.192H25.962V46.1c0-.046.279-2.693,4.133-2.833a.6.6,0,0,1,.464.186.817.817,0,0,1,.186.511v2.229Z" transform="translate(-1.397 -2.403)" fill="#fff"/>
    <path id="Shape-10" data-name="Shape" d="M14.522,46.4V44.173c0-.325.046-.371.093-.371l.371-.139a2.46,2.46,0,0,0,.464-.279v3.251a.917.917,0,0,1-.279.65,1.055,1.055,0,0,1-.743.232H9.182a1.664,1.664,0,0,1-1.347-.836,2.6,2.6,0,0,1-.325-1.207,4.142,4.142,0,0,1,.139-1.022,1.164,1.164,0,0,1,.186-.418v.093a6.016,6.016,0,0,0,.371,1.486,1.814,1.814,0,0,0,1.672.882H14.43V46.4Z" transform="translate(-0.499 -2.659)" fill="#fff"/>
    <path id="Shape-11" data-name="Shape" d="M19.734,40.118h0c0-.371.047-.371.093-.418l.371-.139s.418-.232.464-.279V43c0,3.251-1.486,4.179-1.625,4.226H17.6a4.9,4.9,0,0,0,1.254-1.114l.046-.046v-.046L17.18,42.254a3.007,3.007,0,0,1-.232-1.114,1.653,1.653,0,0,1,.511-1.207v.093a5.326,5.326,0,0,0,.371,1.486s1.022,2,1.439,3.018l.139.371.046.186L19.5,44.9l.046-.093a7.781,7.781,0,0,0,.186-.929h0v-.093h0V40.118Z" transform="translate(-1.067 -2.412)" fill="#fff"/>
    <path id="Shape-12" data-name="Shape" d="M10.809,54.221,7.7,54.546a1.491,1.491,0,0,0,1.625,1.347h2a.439.439,0,0,1,.464.464v.418H9.323a2.466,2.466,0,0,1-2.554-2.74,2.535,2.535,0,0,1,2.647-2.647,2.264,2.264,0,0,1,2.275,1.718c.186.6-.139,1.022-.882,1.114Zm-.557-.7a1.069,1.069,0,0,0,.511-.186.347.347,0,0,0,0-.418,1.391,1.391,0,0,0-1.347-.789A1.586,1.586,0,0,0,7.7,53.756c0,.046,2.415-.232,2.554-.232Z" transform="translate(-0.454 -3.141)" fill="#fff"/>
    <path id="Shape-13" data-name="Shape" d="M22.4,51.388c.279,0,.511.139.511.418s-.232.418-.511.418H20.213c-.464.047-.511.511-.464.789a.255.255,0,0,0,.139.232c.139.139.371.139.65.186l1.625.279A1.241,1.241,0,0,1,23.371,55.1c0,1.207-.743,1.672-1.9,1.672h-2.74v-.418c0-.279.186-.418.511-.418H21.42c.836,0,1.068-.279,1.068-.743,0-.418-.139-.557-.7-.65l-1.672-.279c-.836-.139-1.207-.557-1.254-1.161-.046-.836.279-1.718,1.393-1.718Z" transform="translate(-1.174 -3.141)" fill="#fff"/>
    <path id="Shape-14" data-name="Shape" d="M28.667,53.292c0-.929-.232-1.9-1.625-1.9h-1.95c-.325,0-.511.139-.511.418s.186.418.511.418H26.9c.65,0,.836.139.836.6v.139c-.047.279-.371.325-.511.371-1.3.325-3.065-.046-3.065,1.857,0,1.022.836,1.579,2.043,1.579,0,0,1.161.046,1.625-.511v.046c.046.279.186.464.464.464h.371V53.292Zm-.929,1.532c0,.929-.511,1.254-1.393,1.254-.789,0-1.254-.279-1.254-.929a.988.988,0,0,1,.882-.882c.464-.093,1.207-.139,1.765-.232v.789Z" transform="translate(-1.502 -3.141)" fill="#fff"/>
    <path id="Shape-15" data-name="Shape" d="M36.177,53.292c0-.929-.232-1.9-1.625-1.9H32.6c-.325,0-.511.139-.511.418s.186.418.511.418h1.811c.65,0,.836.139.836.6v.139c-.046.279-.371.325-.511.371-1.3.325-3.065-.046-3.065,1.857,0,1.022.836,1.579,2.043,1.579,0,0,1.161.046,1.625-.511v.046c.046.279.186.464.464.464h.371V53.292Zm-.929,1.532c0,.929-.511,1.254-1.393,1.254-.789,0-1.254-.279-1.254-.929a.988.988,0,0,1,.882-.882c.464-.093,1.207-.139,1.765-.232v.789Z" transform="translate(-1.954 -3.141)" fill="#fff"/>
    <path id="Shape-16" data-name="Shape" d="M30.872,49.807h-.511a.375.375,0,0,0-.418.418V56.68h.929V49.807Z" transform="translate(-1.85 -3.046)" fill="#fff"/>
    <path id="Shape-17" data-name="Shape" d="M15.2,55.9c-.7,0-.975-.046-.975-.557V52.181h.836c.279,0,.511-.139.511-.418s-.232-.418-.511-.418h-.836v-.882h0v-.557h-.6a.367.367,0,0,0-.325.418v1.022h-.232c-.279,0-.511.139-.511.418s.232.418.511.418h.232v3.39c0,1.161.789,1.161,1.9,1.161h.557V56.36c0-.325-.232-.464-.557-.464" transform="translate(-0.802 -3.052)" fill="#fff"/>
    <path id="Shape-18" data-name="Shape" d="M39.656,55.9c-.7,0-.975-.046-.975-.557V52.181h.836c.279,0,.511-.139.511-.418s-.232-.418-.511-.418h-.836v-.882h0v-.557h-.6a.367.367,0,0,0-.325.418v1.022H37.52c-.279,0-.511.139-.511.418s.232.418.511.418h.232v3.39c0,1.161.789,1.161,1.9,1.161h.557V56.36c0-.325-.186-.464-.557-.464" transform="translate(-2.275 -3.052)" fill="#fff"/>
    <path id="Shape-19" data-name="Shape" d="M17.729,56.775V51.388h-.511c-.371,0-.418.232-.418.418v4.969Z" transform="translate(-1.058 -3.141)" fill="#fff"/>
    <path id="Shape-20" data-name="Shape" d="M17.171,50.881a.7.7,0,0,0,.464-.093c.093-.093.093-.232.093-.418v-.464h-.511c-.371,0-.418.232-.418.418v.6s.279-.046.371-.046" transform="translate(-1.058 -3.052)" fill="#fff"/>
    <path id="Shape-21" data-name="Shape" d="M37.9,45.18V40.072c0-.325.046-.371.093-.371l.371-.139.511-.279v3.343h0v4.69h-.929C37.9,47.13,37.9,45.18,37.9,45.18" transform="translate(-2.329 -2.412)" fill="#fff"/>
    <path id="Shape-22" data-name="Shape" d="M11.044,43.318a.7.7,0,0,0,.464-.093.7.7,0,0,0,.093-.464V42.3h-.511c-.371,0-.418.232-.418.418v.6h.371" transform="translate(-0.689 -2.594)" fill="#fff"/>
    <path id="Shape-23" data-name="Shape" d="M12.379,43.318a.7.7,0,0,0,.464-.093.7.7,0,0,0,.093-.464V42.3h-.511c-.371,0-.418.232-.418.418v.6h.371" transform="translate(-0.77 -2.594)" fill="#fff"/>
    <path id="Shape-24" data-name="Shape" d="M34.268,41.539a.7.7,0,0,0,.464-.093c.093-.093.093-.232.093-.464v-.464h-.511c-.371,0-.418.232-.418.418v.6h.371" transform="translate(-2.088 -2.486)" fill="#fff"/>
    <path id="Shape-25" data-name="Shape" d="M35.553,41.539a.7.7,0,0,0,.464-.093c.093-.093.093-.232.093-.464v-.464H35.6c-.371,0-.418.232-.418.418v.6h.371" transform="translate(-2.165 -2.486)" fill="#fff"/>
  </g>
</svg>
