<svg xmlns="http://www.w3.org/2000/svg" width="200.226" height="182.678" viewBox="0 0 200.226 182.678">
  <g id="find-right-api-icon" transform="translate(-64.164 -34.386)">
    <g id="noun_Medical_Records_36235" data-name="noun_Medical Records_36235" transform="translate(55.98 19)">
      <g id="Group_2053" data-name="Group 2053" transform="translate(0 5.386)">
        <g id="Group_2046" data-name="Group 2046" transform="translate(171.881 54.865)">
          <path id="Path_540" data-name="Path 540" d="M29.625,457.25a7.625,7.625,0,1,1,7.625-7.625A7.633,7.633,0,0,1,29.625,457.25Zm0-12.708a5.083,5.083,0,1,0,5.083,5.083A5.089,5.089,0,0,0,29.625,444.542Z" transform="translate(-22 -442)" fill="#ff9d00" opacity="0.7"/>
        </g>
        <g id="Group_2047" data-name="Group 2047" transform="translate(8.185)">
          <path id="Path_541" data-name="Path 541" d="M35.354,48.708a1.214,1.214,0,0,1-1.138-.793L31.13,39.578l-8.338-3.085a1.214,1.214,0,0,1,0-2.277L31.13,31.13l3.085-8.338a1.214,1.214,0,0,1,2.277,0l3.085,8.338,8.338,3.085a1.214,1.214,0,0,1,0,2.277l-8.338,3.085-3.085,8.338A1.214,1.214,0,0,1,35.354,48.708ZM26.712,35.354,32.5,37.495a1.215,1.215,0,0,1,.717.717L35.354,44l2.141-5.784a1.214,1.214,0,0,1,.717-.717L44,35.354l-5.784-2.141a1.215,1.215,0,0,1-.717-.717l-2.141-5.784L33.214,32.5a1.214,1.214,0,0,1-.717.717Z" transform="translate(-22 -12)" fill="#91b70e" opacity="0.7"/>
          <path id="Path_603" data-name="Path 603" d="M35.354,48.708a1.214,1.214,0,0,1-1.138-.793L31.13,39.578l-8.338-3.085a1.214,1.214,0,0,1,0-2.277L31.13,31.13l3.085-8.338a1.214,1.214,0,0,1,2.277,0l3.085,8.338,8.338,3.085a1.214,1.214,0,0,1,0,2.277l-8.338,3.085-3.085,8.338A1.214,1.214,0,0,1,35.354,48.708ZM26.712,35.354,32.5,37.495a1.215,1.215,0,0,1,.717.717L35.354,44l2.141-5.784a1.214,1.214,0,0,1,.717-.717L44,35.354l-5.784-2.141a1.215,1.215,0,0,1-.717-.717l-2.141-5.784L33.214,32.5a1.214,1.214,0,0,1-.717.717Z" transform="translate(151.518 143.97)" fill="#91b70e" opacity="0.7"/>
        </g>
        <g id="Group_2052" data-name="Group 2052" transform="translate(0 169.452)">
          <path id="Path_540-2" data-name="Path 540" d="M29.625,457.25a7.625,7.625,0,1,1,7.625-7.625A7.633,7.633,0,0,1,29.625,457.25Zm0-12.708a5.083,5.083,0,1,0,5.083,5.083A5.089,5.089,0,0,0,29.625,444.542Z" transform="translate(18 -442)" fill="#ff9d00" opacity="0.7"/>
        </g>
      </g>
      <g id="find" transform="translate(40.411 36)">
        <g id="Group_2054" data-name="Group 2054" transform="translate(-7.3 -7.3)">
          <path id="Path_604" data-name="Path 604" d="M127.045,64.022A63.132,63.132,0,1,0,105.1,111.756L134.748,141.4l6.652-6.652L111.756,105.1A62.782,62.782,0,0,0,127.045,64.022ZM64.022,117.708a53.686,53.686,0,1,1,53.686-53.686A53.693,53.693,0,0,1,64.022,117.708Z" fill="#3b4550"/>
          <path id="Path_605" data-name="Path 605" d="M25.6,33.222l7.236,5.952A34.833,34.833,0,0,1,59.912,26.337V17A44.5,44.5,0,0,0,25.6,33.222Z" transform="translate(4.11 2.673)" fill="#3b4550"/>
          <g id="Group_2055" data-name="Group 2055" transform="translate(14.3 -934.547)">
            <path id="Path_607" data-name="Path 607" d="M74.984,979.847l-2.844,2.813c-9.926,9.948-20.551,21.346-30.469,31.406l-14.156-11.656-3.062-2.562-5.094,6.187,3.094,2.531,17,14,2.781,2.313,2.594-2.562c10.749-10.772,22.415-23.392,33-34l2.813-2.844Z" fill="#3b4550"/>
          </g>
        </g>
      </g>
    </g>
  </g>
</svg>
