<svg xmlns="http://www.w3.org/2000/svg" width="208.411" height="199.064" viewBox="0 0 208.411 199.064">
  <g id="get-started-icon" transform="translate(-55.98 -19)">
    <g id="noun_Medical_Records_36235" data-name="noun_Medical Records_36235" transform="translate(55.98 19)">
      <g id="icon" transform="translate(17.166 0)">
        <path id="Path_588" data-name="Path 588" d="M61.173,67.56c14.476,0,26.395-15.987,27.944-36.533a32.912,32.912,0,0,0,.312-4.062l-4.52,5.19c2.491-5.524-6.384-19.574-6.384-19.574-14.962,10.823-37.211,0-37.211,0-6.714,2.65-3.536,21.528-3.536,21.53a13.5,13.5,0,0,0-4.46-2.089C35.162,52.091,46.928,67.56,61.173,67.56Z" transform="translate(21.56 8.174)" fill="none"/>
        <path id="Path_589" data-name="Path 589" d="M29.951,49.576H15.89a7.8,7.8,0,0,0-7.846,7.752l15.837,72.3a7.8,7.8,0,0,0,7.844,7.752H147.9a7.8,7.8,0,0,0,7.839-7.752l15.835-72.3a7.8,7.8,0,0,0-7.842-7.752H150.021M89.816,98.385a4.212,4.212,0,1,1,4.208-4.218A4.213,4.213,0,0,1,89.816,98.385Z" transform="translate(-7.259 50.355)" fill="none"/>
        <path id="Path_590" data-name="Path 590" d="M55.631,49.576H47.92" transform="translate(38.207 50.355)" fill="none"/>
        <path id="Path_591" data-name="Path 591" d="M31.655,41.913c.021.3.051.6.075.907C33.763,65.789,47.2,83.538,63.481,83.538c16.488,0,30.065-18.211,31.822-41.614a36.2,36.2,0,0,0,.368-5.154,36.86,36.86,0,0,0-.368-5.16C92.947,15.35,79.595,2.883,63.483,2.883S34.009,15.358,31.657,31.63a36.022,36.022,0,0,0-.364,5.147c0,.706.024,1.41.064,2.112C31.415,39.91,31.513,40.916,31.655,41.913Zm11.97-18.273s22.249,10.823,37.211,0c0,0,8.875,14.05,6.384,19.574l4.52-5.19a32.128,32.128,0,0,1-.321,4.062C89.878,62.633,77.96,78.62,63.481,78.62c-14.245,0-26.01-15.471-27.857-35.54a13.655,13.655,0,0,1,4.462,2.089S36.909,26.29,43.625,23.641Z" transform="translate(19.25 -2.883)" fill="#3b4550"/>
        <path id="Path_592" data-name="Path 592" d="M65.457,38.073c-.081,3.852-6.816,14.093-13.5,23.337H99.338A42.073,42.073,0,0,0,65.457,38.073Z" transform="translate(42.81 37.24)" fill="#3b4550"/>
        <path id="Path_594" data-name="Path 594" d="M52.453,38.073A42.073,42.073,0,0,0,18.568,61.41H64.777C58.681,52.166,52.537,41.925,52.453,38.073Z" transform="translate(4.741 37.24)" fill="#3b4550"/>
        <g id="Group_2051" data-name="Group 2051" transform="translate(12.676 140.319)">
          <circle id="Ellipse_161" data-name="Ellipse 161" cx="4.212" cy="4.212" r="4.212" transform="translate(65.669)" fill="#3b4550"/>
          <path id="Path_595" data-name="Path 595" d="M149.974,92.138H16.992a3.39,3.39,0,1,0,0,6.78H149.974a3.39,3.39,0,0,0,0-6.78Z" transform="translate(-13.6 -41.435)" fill="#3b4550"/>
        </g>
        <path id="Path_596" data-name="Path 596" d="M55.68,50.258c.31-.426.619-.854.931-1.28H47.877l.092,1.28Z" transform="translate(38.158 49.674)" fill="#3b4550" stroke="#3b4550" stroke-width="1"/>
        <path id="Path_597" data-name="Path 597" d="M48.449,50.258l.09-1.28H40.158c.283.43.569.854.854,1.28Z" transform="translate(29.357 49.674)" fill="#3b4550" stroke="#3b4550" stroke-width="1"/>
        <path id="Path_598" data-name="Path 598" d="M31.433,139.347H149.038a7.913,7.913,0,0,0,7.912-7.919L172.79,56.9a7.918,7.918,0,0,0-7.921-7.919H149.83c.208.422.413.845.612,1.28h13.716a7.8,7.8,0,0,1,7.848,7.752l-15.842,72.3a7.8,7.8,0,0,1-7.839,7.752H32.146a7.8,7.8,0,0,1-7.844-7.752L8.46,58.01A7.8,7.8,0,0,1,16.3,50.258H30.367c.195-.434.407-.858.614-1.28H15.6A7.913,7.913,0,0,0,7.677,56.9L23.51,131.428A7.919,7.919,0,0,0,31.433,139.347Z" transform="translate(-7.677 49.674)" fill="#3b4550" stroke="#3b4550" stroke-width="1"/>
        <path id="Path_599" data-name="Path 599" d="M65.958,50.258c-.283-.426-.571-.85-.852-1.28H18.9c-.21.422-.417.845-.616,1.28Z" transform="translate(4.411 49.674)" fill="#3b4550" stroke="#3b4550" stroke-width="1"/>
        <path id="Path_600" data-name="Path 600" d="M52.353,50.258l-.092-1.28H44.12l-.088,1.28Z" transform="translate(33.774 49.674)" fill="#3b4550" stroke="#3b4550" stroke-width="1"/>
        <path id="Path_601" data-name="Path 601" d="M100.45,50.258c-.193-.434-.4-.858-.612-1.28H52.454c-.312.426-.621.858-.931,1.28Z" transform="translate(42.315 49.674)" fill="#3b4550" stroke="#3b4550" stroke-width="1"/>
      </g>
      <g id="Group_2053" data-name="Group 2053" transform="translate(0 5.386)">
        <g id="Group_2046" data-name="Group 2046" transform="translate(171.881 54.865)">
          <path id="Path_540" data-name="Path 540" d="M29.625,457.25a7.625,7.625,0,1,1,7.625-7.625A7.633,7.633,0,0,1,29.625,457.25Zm0-12.708a5.083,5.083,0,1,0,5.083,5.083A5.089,5.089,0,0,0,29.625,444.542Z" transform="translate(-22 -442)" fill="#ff9d00" opacity="0.7"/>
        </g>
        <g id="Group_2047" data-name="Group 2047" transform="translate(8.185)">
          <path id="Path_541" data-name="Path 541" d="M35.354,48.708a1.214,1.214,0,0,1-1.138-.793L31.13,39.578l-8.338-3.085a1.214,1.214,0,0,1,0-2.277L31.13,31.13l3.085-8.338a1.214,1.214,0,0,1,2.277,0l3.085,8.338,8.338,3.085a1.214,1.214,0,0,1,0,2.277l-8.338,3.085-3.085,8.338A1.214,1.214,0,0,1,35.354,48.708ZM26.712,35.354,32.5,37.495a1.215,1.215,0,0,1,.717.717L35.354,44l2.141-5.784a1.214,1.214,0,0,1,.717-.717L44,35.354l-5.784-2.141a1.215,1.215,0,0,1-.717-.717l-2.141-5.784L33.214,32.5a1.214,1.214,0,0,1-.717.717Z" transform="translate(-22 -22)" fill="#91b70e" opacity="0.7"/>
          <path id="Path_603" data-name="Path 603" d="M35.354,48.708a1.214,1.214,0,0,1-1.138-.793L31.13,39.578l-8.338-3.085a1.214,1.214,0,0,1,0-2.277L31.13,31.13l3.085-8.338a1.214,1.214,0,0,1,2.277,0l3.085,8.338,8.338,3.085a1.214,1.214,0,0,1,0,2.277l-8.338,3.085-3.085,8.338A1.214,1.214,0,0,1,35.354,48.708ZM26.712,35.354,32.5,37.495a1.215,1.215,0,0,1,.717.717L35.354,44l2.141-5.784a1.214,1.214,0,0,1,.717-.717L44,35.354l-5.784-2.141a1.215,1.215,0,0,1-.717-.717l-2.141-5.784L33.214,32.5a1.214,1.214,0,0,1-.717.717Z" transform="translate(151.518 144.97)" fill="#91b70e" opacity="0.7"/>
        </g>
        <g id="Group_2052" data-name="Group 2052" transform="translate(0 169.452)">
          <path id="Path_540-2" data-name="Path 540" d="M29.625,457.25a7.625,7.625,0,1,1,7.625-7.625A7.633,7.633,0,0,1,29.625,457.25Zm0-12.708a5.083,5.083,0,1,0,5.083,5.083A5.089,5.089,0,0,0,29.625,444.542Z" transform="translate(-22 -442)" fill="#ff9d00" opacity="0.7"/>
        </g>
      </g>
    </g>
  </g>
</svg>
