<svg xmlns="http://www.w3.org/2000/svg" width="208.411" height="193.678" viewBox="0 0 208.411 193.678">
  <g id="hand-to-help-icon" transform="translate(-55.98 -24.386)">
    <g id="noun_Medical_Records_36235" data-name="noun_Medical Records_36235" transform="translate(55.98 19)">
      <g id="Group_2053" data-name="Group 2053" transform="translate(0 5.386)">
        <g id="Group_2046" data-name="Group 2046" transform="translate(171.881 54.865)">
          <path id="Path_540" data-name="Path 540" d="M29.625,457.25a7.625,7.625,0,1,1,7.625-7.625A7.633,7.633,0,0,1,29.625,457.25Zm0-12.708a5.083,5.083,0,1,0,5.083,5.083A5.089,5.089,0,0,0,29.625,444.542Z" transform="translate(-22 -442)" fill="#ff9d00" opacity="0.7"/>
        </g>
        <g id="Group_2047" data-name="Group 2047" transform="translate(8.185)">
          <path id="Path_541" data-name="Path 541" d="M35.354,48.708a1.214,1.214,0,0,1-1.138-.793L31.13,39.578l-8.338-3.085a1.214,1.214,0,0,1,0-2.277L31.13,31.13l3.085-8.338a1.214,1.214,0,0,1,2.277,0l3.085,8.338,8.338,3.085a1.214,1.214,0,0,1,0,2.277l-8.338,3.085-3.085,8.338A1.214,1.214,0,0,1,35.354,48.708ZM26.712,35.354,32.5,37.495a1.215,1.215,0,0,1,.717.717L35.354,44l2.141-5.784a1.214,1.214,0,0,1,.717-.717L44,35.354l-5.784-2.141a1.215,1.215,0,0,1-.717-.717l-2.141-5.784L33.214,32.5a1.214,1.214,0,0,1-.717.717Z" transform="translate(-22 -22)" fill="#91b70e" opacity="0.7"/>
          <path id="Path_603" data-name="Path 603" d="M35.354,48.708a1.214,1.214,0,0,1-1.138-.793L31.13,39.578l-8.338-3.085a1.214,1.214,0,0,1,0-2.277L31.13,31.13l3.085-8.338a1.214,1.214,0,0,1,2.277,0l3.085,8.338,8.338,3.085a1.214,1.214,0,0,1,0,2.277l-8.338,3.085-3.085,8.338A1.214,1.214,0,0,1,35.354,48.708ZM26.712,35.354,32.5,37.495a1.215,1.215,0,0,1,.717.717L35.354,44l2.141-5.784a1.214,1.214,0,0,1,.717-.717L44,35.354l-5.784-2.141a1.215,1.215,0,0,1-.717-.717l-2.141-5.784L33.214,32.5a1.214,1.214,0,0,1-.717.717Z" transform="translate(151.518 144.97)" fill="#91b70e" opacity="0.7"/>
        </g>
        <g id="Group_2052" data-name="Group 2052" transform="translate(0 169.452)">
          <path id="Path_540-2" data-name="Path 540" d="M29.625,457.25a7.625,7.625,0,1,1,7.625-7.625A7.633,7.633,0,0,1,29.625,457.25Zm0-12.708a5.083,5.083,0,1,0,5.083,5.083A5.089,5.089,0,0,0,29.625,444.542Z" transform="translate(-22 -442)" fill="#ff9d00" opacity="0.7"/>
        </g>
      </g>
      <g id="Group_2056" data-name="Group 2056" transform="translate(55.01 86.545) rotate(16)">
        <path id="Path_608" data-name="Path 608" d="M132.7,982.362a129.066,129.066,0,0,0-14.648.986c-5.687.713-11.255,1.75-14.648,3.709a1.546,1.546,0,0,0-.7,1.644l.939,3.756a16.574,16.574,0,0,0-2.817-.751,23.815,23.815,0,0,0-4.225-.328,2.486,2.486,0,0,0-.329.047L55.7,1001.943a22.41,22.41,0,0,0-7.7,3.428,8.883,8.883,0,0,0-3.944,7.043v1.878c-7.36-2.552-14.975-4.954-22.536-4.883q-.047,0-.094,0a22.913,22.913,0,0,0-6.479,1.5,12.77,12.77,0,0,0-4.695,3.052A8.535,8.535,0,0,0,8,1019.835a1.541,1.541,0,0,0,.892,1.409c8.661,3.676,20.325,8.965,30.564,13.336,5.119,2.185,9.9,4.125,13.8,5.541s6.728,2.369,8.827,2.348c.5-.092,1.055-.168,1.5-.234,18.483-2.8,32.723-8.393,47.909-13.184l1.176-.385.539,2.11a1.549,1.549,0,0,0,1.455,1.174H132.7a1.5,1.5,0,1,0,0-3.005H115.843l-9.906-39.632a47.344,47.344,0,0,1,12.489-3.005,126.257,126.257,0,0,1,14.273-.939,1.5,1.5,0,1,0,0-3.005Zm-15.118,8.969a1.571,1.571,0,0,0-1.362,1.878l1.5,6.01a1.5,1.5,0,1,0,2.911-.7l-1.5-6.01a1.552,1.552,0,0,0-1.549-1.174Zm-20.8,3.052a19.937,19.937,0,0,1,3.521.282c1.888.327,3.628,1.152,3.991,1.878a1.526,1.526,0,0,0,.516.61l7.115,28.56c-.6.23-1.211.424-1.783.6-15.456,4.894-29.659,10.435-48.151,13.1a34.841,34.841,0,0,1-7.747-2.113c-3.808-1.381-8.521-3.319-13.615-5.494-9.842-4.2-20.871-9.188-29.484-12.867a5.465,5.465,0,0,1,1.362-2.958,9.866,9.866,0,0,1,3.568-2.3,19.607,19.607,0,0,1,5.446-1.267h.094c10.84-.069,22.692,5.691,34.038,8.922a1.511,1.511,0,0,0,.7.047l30.048-6.01a1.506,1.506,0,1,0-.563-2.958l-29.672,5.917c-2.963-.857-6.012-1.919-9.108-3.005v-2.911c0-1.846,1.013-3.338,2.77-4.649a19.717,19.717,0,0,1,6.62-2.911Z" transform="translate(-0.444 -981.408)" stroke="#3b4550" stroke-width="3"/>
      </g>
      <g id="Group_2058" data-name="Group 2058" transform="translate(35.182 47.884) rotate(16)">
        <path id="Path_608-2" data-name="Path 608" d="M9.523,1042.469a129.09,129.09,0,0,0,14.648-.986c5.687-.713,11.255-1.75,14.648-3.71a1.545,1.545,0,0,0,.7-1.643l-.939-3.757a16.539,16.539,0,0,0,2.817.751,23.789,23.789,0,0,0,4.225.329,2.491,2.491,0,0,0,.329-.047l40.564-10.519a22.408,22.408,0,0,0,7.7-3.428,8.883,8.883,0,0,0,3.944-7.043v-1.878c7.36,2.552,14.975,4.954,22.536,4.883q.047,0,.094,0a22.918,22.918,0,0,0,6.479-1.5,12.768,12.768,0,0,0,4.695-3.052,8.534,8.534,0,0,0,2.254-5.87,1.541,1.541,0,0,0-.892-1.409c-8.661-3.676-20.325-8.965-30.564-13.336-5.119-2.185-9.9-4.124-13.8-5.541s-6.728-2.369-8.827-2.348c-.5.092-1.055.168-1.5.234-18.483,2.8-32.723,8.393-47.909,13.184l-1.176.384-.539-2.11a1.549,1.549,0,0,0-1.455-1.174H9.524a1.5,1.5,0,1,0,0,3.005H26.378l9.906,39.632a47.34,47.34,0,0,1-12.489,3.005,126.2,126.2,0,0,1-14.273.939,1.5,1.5,0,1,0,0,3.006Zm15.118-8.969A1.571,1.571,0,0,0,26,1031.622l-1.5-6.01a1.5,1.5,0,1,0-2.911.7l1.5,6.01a1.552,1.552,0,0,0,1.549,1.174Zm20.8-3.052a19.924,19.924,0,0,1-3.521-.282c-1.888-.327-3.628-1.153-3.991-1.878a1.527,1.527,0,0,0-.516-.61L30.3,999.117c.6-.23,1.211-.423,1.783-.6,15.456-4.894,29.659-10.435,48.15-13.1a34.828,34.828,0,0,1,7.747,2.113c3.808,1.381,8.521,3.319,13.615,5.494,9.842,4.2,20.871,9.188,29.484,12.867a5.465,5.465,0,0,1-1.362,2.958,9.866,9.866,0,0,1-3.568,2.3,19.612,19.612,0,0,1-5.446,1.267h-.094c-10.84.069-22.692-5.691-34.038-8.922a1.514,1.514,0,0,0-.7-.047l-30.048,6.01a1.506,1.506,0,1,0,.563,2.958l29.672-5.917c2.963.857,6.012,1.919,9.108,3.005v2.911c0,1.846-1.013,3.338-2.77,4.649a19.715,19.715,0,0,1-6.62,2.911Z" transform="translate(-8 -982.362)" stroke="#3b4550" stroke-width="3"/>
      </g>
    </g>
  </g>
</svg>
