<svg xmlns="http://www.w3.org/2000/svg" width="118.042" height="130.251" viewBox="0 0 118.042 130.251">
  <g id="login-admin-icon" transform="translate(-897.303 -1128.584)">
    <g id="Group_5944" data-name="Group 5944" transform="translate(897.303 1128.584)">
      <path id="Path_9461" data-name="Path 9461" d="M90.035,95.641h16.281a2.035,2.035,0,0,0,0-4.07H96.141V89.535a2.035,2.035,0,1,0-4.07,0V91.57H90.035a2.035,2.035,0,0,0,0,4.07Z" transform="translate(-4.558 1.539)" fill="#b9b9b9" stroke="#fff" stroke-width="0.4"/>
      <path id="Path_9462" data-name="Path 9462" d="M90.915,26.457A26.457,26.457,0,1,0,64.457,52.915,26.458,26.458,0,0,0,90.915,26.457ZM64.457,48.844A22.387,22.387,0,1,1,86.844,26.457,22.387,22.387,0,0,1,64.457,48.844Z" transform="translate(-5.437)" fill="#b9b9b9"/>
      <path id="Path_9463" data-name="Path 9463" d="M6.859,77.57a4.071,4.071,0,0,0-.735,3.5l11.328,44.774a4.071,4.071,0,0,0,3.946,3.072h87.244a4.071,4.071,0,0,0,3.946-3.072l11.328-44.774A4.07,4.07,0,0,0,119.97,76H10.07A4.068,4.068,0,0,0,6.859,77.57Zm113.111,2.5-11.328,44.774H21.4L10.07,80.07Z" transform="translate(-6 1.337)" fill="#b9b9b9"/>
      <path id="Path_9464" data-name="Path 9464" d="M64.211,111.352c6.847,0,12.211-4.47,12.211-10.176S71.058,91,64.211,91,52,95.47,52,101.176,57.364,111.352,64.211,111.352Zm0-16.281c4.5,0,8.141,2.733,8.141,6.106s-3.645,6.106-8.141,6.106-8.141-2.733-8.141-6.106S59.715,95.07,64.211,95.07Z" transform="translate(-5.191 1.601)" fill="#b9b9b9" stroke="#fff" stroke-width="0.4"/>
      <path id="Path_9465" data-name="Path 9465" d="M37.811,52.07H49.662A30.7,30.7,0,0,1,44.136,48H37.811A22.642,22.642,0,0,0,15,70.474h0l.084,1.947h4.072l-.089-2.035A18.554,18.554,0,0,1,37.811,52.07Z" transform="translate(-5.842 0.844)" fill="#b9b9b9" stroke="#fff" stroke-width="0.4"/>
      <path id="Path_9466" data-name="Path 9466" d="M113.511,72.422l.089-2.035A22.627,22.627,0,0,0,90.789,48H84.464a30.7,30.7,0,0,1-5.527,4.07H90.789c10.333,0,18.74,8.217,18.742,18.228l-.093,2.124Z" transform="translate(-4.717 0.844)" fill="#b9b9b9" stroke="#fff" stroke-width="0.4"/>
      <path id="Path_9467" data-name="Path 9467" d="M72.15,57.731l-.679-2.611a30.4,30.4,0,0,1-4.021.713l.76,2.921L64.141,61.1l-4.07-2.349.76-2.921a30.4,30.4,0,0,1-4.02-.713l-.679,2.611a4.069,4.069,0,0,0,1.9,4.55l.379.219-1.083,9.8h4.095l.84-7.589a4,4,0,0,0,3.749,0l.84,7.589h4.095l-1.083-9.8.379-.219A4.069,4.069,0,0,0,72.15,57.731Z" transform="translate(-5.121 0.97)" fill="#b9b9b9" stroke="#fff" stroke-width="0.4"/>
      <circle id="Ellipse_169" data-name="Ellipse 169" cx="23" cy="23" r="23" transform="translate(35.813 3.251)" fill="#fff"/>
    </g>
  </g>
</svg>
