<svg xmlns="http://www.w3.org/2000/svg" xmlns:xlink="http://www.w3.org/1999/xlink" width="123" height="239" viewBox="0 0 123 239">
  <defs>
    <clipPath id="clip-path">
      <rect id="Rectangle_1230" data-name="Rectangle 1230" width="123" height="239" fill="#fff"/>
    </clipPath>
  </defs>
  <g id="ornament-dotted-bg" clip-path="url(#clip-path)">
    <g id="Ornament_Dotted_white" data-name="Ornament/Dotted/white" transform="translate(0.076 0.5)" opacity="0.7">
      <path id="Fill_1" data-name="Fill 1" d="M0,3.306A3.306,3.306,0,1,0,3.3,0,3.306,3.306,0,0,0,0,3.306" transform="translate(231.39 0)" fill="#aaa"/>
      <path id="Fill_3" data-name="Fill 3" d="M0,3.306A3.306,3.306,0,1,0,3.3,0,3.306,3.306,0,0,0,0,3.306" transform="translate(198.334 0)" fill="#aaa"/>
      <path id="Fill_5" data-name="Fill 5" d="M0,3.306A3.306,3.306,0,1,0,3.3,0,3.306,3.306,0,0,0,0,3.306" transform="translate(165.279 0)" fill="#aaa"/>
      <path id="Fill_7" data-name="Fill 7" d="M0,3.306A3.306,3.306,0,1,0,3.3,0,3.306,3.306,0,0,0,0,3.306" transform="translate(132.223 0)" fill="#aaa"/>
      <path id="Fill_9" data-name="Fill 9" d="M0,3.306A3.306,3.306,0,1,0,3.3,0,3.306,3.306,0,0,0,0,3.306" transform="translate(99.168 0)" fill="#aaa"/>
      <path id="Fill_11" data-name="Fill 11" d="M0,3.306A3.306,3.306,0,1,0,3.3,0,3.306,3.306,0,0,0,0,3.306" transform="translate(66.112 0)" fill="#aaa"/>
      <path id="Fill_13" data-name="Fill 13" d="M0,3.306A3.306,3.306,0,1,0,3.3,0,3.306,3.306,0,0,0,0,3.306" transform="translate(33.057 0)" fill="#aaa"/>
      <path id="Fill_15" data-name="Fill 15" d="M0,3.306A3.306,3.306,0,1,0,3.3,0,3.306,3.306,0,0,0,0,3.306" transform="translate(0.001 0)" fill="#aaa"/>
      <path id="Fill_17" data-name="Fill 17" d="M0,3.306A3.306,3.306,0,1,0,3.3,0,3.306,3.306,0,0,0,0,3.306" transform="translate(231.39 33.056)" fill="#aaa"/>
      <path id="Fill_19" data-name="Fill 19" d="M0,3.306A3.306,3.306,0,1,0,3.3,0,3.306,3.306,0,0,0,0,3.306" transform="translate(198.334 33.056)" fill="#aaa"/>
      <path id="Fill_21" data-name="Fill 21" d="M0,3.306A3.306,3.306,0,1,0,3.3,0,3.306,3.306,0,0,0,0,3.306" transform="translate(165.279 33.056)" fill="#aaa"/>
      <path id="Fill_23" data-name="Fill 23" d="M0,3.306A3.306,3.306,0,1,0,3.3,0,3.306,3.306,0,0,0,0,3.306" transform="translate(132.223 33.056)" fill="#aaa"/>
      <path id="Fill_25" data-name="Fill 25" d="M0,3.306A3.306,3.306,0,1,0,3.3,0,3.306,3.306,0,0,0,0,3.306" transform="translate(99.168 33.056)" fill="#aaa"/>
      <path id="Fill_27" data-name="Fill 27" d="M0,3.306A3.306,3.306,0,1,0,3.3,0,3.306,3.306,0,0,0,0,3.306" transform="translate(66.112 33.056)" fill="#aaa"/>
      <path id="Fill_29" data-name="Fill 29" d="M0,3.306A3.306,3.306,0,1,0,3.3,0,3.306,3.306,0,0,0,0,3.306" transform="translate(33.057 33.056)" fill="#aaa"/>
      <path id="Fill_31" data-name="Fill 31" d="M0,3.306A3.306,3.306,0,1,0,3.3,0,3.306,3.306,0,0,0,0,3.306" transform="translate(0.001 33.056)" fill="#aaa"/>
      <path id="Fill_33" data-name="Fill 33" d="M0,3.306A3.306,3.306,0,1,0,3.3,0,3.306,3.306,0,0,0,0,3.306" transform="translate(231.39 66.111)" fill="#aaa"/>
      <path id="Fill_35" data-name="Fill 35" d="M0,3.306A3.306,3.306,0,1,0,3.3,0,3.306,3.306,0,0,0,0,3.306" transform="translate(198.334 66.111)" fill="#aaa"/>
      <path id="Fill_37" data-name="Fill 37" d="M0,3.306A3.306,3.306,0,1,0,3.3,0,3.306,3.306,0,0,0,0,3.306" transform="translate(165.279 66.111)" fill="#aaa"/>
      <path id="Fill_39" data-name="Fill 39" d="M0,3.306A3.306,3.306,0,1,0,3.3,0,3.306,3.306,0,0,0,0,3.306" transform="translate(132.223 66.111)" fill="#aaa"/>
      <path id="Fill_41" data-name="Fill 41" d="M0,3.306A3.306,3.306,0,1,0,3.3,0,3.306,3.306,0,0,0,0,3.306" transform="translate(99.168 66.111)" fill="#aaa"/>
      <path id="Fill_43" data-name="Fill 43" d="M0,3.306A3.306,3.306,0,1,0,3.3,0,3.306,3.306,0,0,0,0,3.306" transform="translate(66.112 66.111)" fill="#aaa"/>
      <path id="Fill_45" data-name="Fill 45" d="M0,3.306A3.306,3.306,0,1,0,3.3,0,3.306,3.306,0,0,0,0,3.306" transform="translate(33.057 66.111)" fill="#aaa"/>
      <path id="Fill_47" data-name="Fill 47" d="M0,3.306A3.306,3.306,0,1,0,3.3,0,3.306,3.306,0,0,0,0,3.306" transform="translate(0.001 66.111)" fill="#aaa"/>
      <path id="Fill_49" data-name="Fill 49" d="M0,3.306A3.306,3.306,0,1,0,3.3,0,3.306,3.306,0,0,0,0,3.306" transform="translate(231.39 99.167)" fill="#aaa"/>
      <path id="Fill_51" data-name="Fill 51" d="M0,3.306A3.306,3.306,0,1,0,3.3,0,3.306,3.306,0,0,0,0,3.306" transform="translate(198.334 99.167)" fill="#aaa"/>
      <path id="Fill_53" data-name="Fill 53" d="M0,3.306A3.306,3.306,0,1,0,3.3,0,3.306,3.306,0,0,0,0,3.306" transform="translate(165.279 99.167)" fill="#aaa"/>
      <path id="Fill_55" data-name="Fill 55" d="M0,3.306A3.306,3.306,0,1,0,3.3,0,3.306,3.306,0,0,0,0,3.306" transform="translate(132.223 99.167)" fill="#aaa"/>
      <path id="Fill_57" data-name="Fill 57" d="M0,3.306A3.306,3.306,0,1,0,3.3,0,3.306,3.306,0,0,0,0,3.306" transform="translate(99.168 99.167)" fill="#aaa"/>
      <path id="Fill_59" data-name="Fill 59" d="M0,3.306A3.306,3.306,0,1,0,3.3,0,3.306,3.306,0,0,0,0,3.306" transform="translate(66.112 99.167)" fill="#aaa"/>
      <path id="Fill_61" data-name="Fill 61" d="M0,3.306A3.306,3.306,0,1,0,3.3,0,3.306,3.306,0,0,0,0,3.306" transform="translate(33.057 99.167)" fill="#aaa"/>
      <path id="Fill_63" data-name="Fill 63" d="M0,3.306A3.306,3.306,0,1,0,3.3,0,3.306,3.306,0,0,0,0,3.306" transform="translate(0.001 99.167)" fill="#aaa"/>
      <path id="Fill_65" data-name="Fill 65" d="M0,3.306A3.306,3.306,0,1,0,3.3,0,3.306,3.306,0,0,0,0,3.306" transform="translate(231.39 132.222)" fill="#aaa"/>
      <path id="Fill_67" data-name="Fill 67" d="M0,3.306A3.306,3.306,0,1,0,3.3,0,3.306,3.306,0,0,0,0,3.306" transform="translate(198.334 132.222)" fill="#aaa"/>
      <path id="Fill_69" data-name="Fill 69" d="M0,3.306A3.306,3.306,0,1,0,3.3,0,3.306,3.306,0,0,0,0,3.306" transform="translate(165.279 132.222)" fill="#aaa"/>
      <path id="Fill_71" data-name="Fill 71" d="M0,3.306A3.306,3.306,0,1,0,3.3,0,3.306,3.306,0,0,0,0,3.306" transform="translate(132.223 132.222)" fill="#aaa"/>
      <path id="Fill_73" data-name="Fill 73" d="M0,3.306A3.306,3.306,0,1,0,3.3,0,3.306,3.306,0,0,0,0,3.306" transform="translate(99.168 132.222)" fill="#aaa"/>
      <path id="Fill_75" data-name="Fill 75" d="M0,3.306A3.306,3.306,0,1,0,3.3,0,3.306,3.306,0,0,0,0,3.306" transform="translate(66.112 132.222)" fill="#aaa"/>
      <path id="Fill_77" data-name="Fill 77" d="M0,3.306A3.306,3.306,0,1,0,3.3,0,3.306,3.306,0,0,0,0,3.306" transform="translate(33.057 132.222)" fill="#aaa"/>
      <path id="Fill_79" data-name="Fill 79" d="M0,3.306A3.306,3.306,0,1,0,3.3,0,3.306,3.306,0,0,0,0,3.306" transform="translate(0.001 132.222)" fill="#aaa"/>
      <path id="Fill_81" data-name="Fill 81" d="M0,3.306A3.306,3.306,0,1,0,3.3,0,3.306,3.306,0,0,0,0,3.306" transform="translate(231.39 165.278)" fill="#aaa"/>
      <path id="Fill_83" data-name="Fill 83" d="M0,3.306A3.306,3.306,0,1,0,3.3,0,3.306,3.306,0,0,0,0,3.306" transform="translate(198.334 165.278)" fill="#aaa"/>
      <path id="Fill_85" data-name="Fill 85" d="M0,3.306A3.306,3.306,0,1,0,3.3,0,3.306,3.306,0,0,0,0,3.306" transform="translate(165.279 165.278)" fill="#aaa"/>
      <path id="Fill_87" data-name="Fill 87" d="M0,3.306A3.306,3.306,0,1,0,3.3,0,3.306,3.306,0,0,0,0,3.306" transform="translate(132.223 165.278)" fill="#aaa"/>
      <path id="Fill_89" data-name="Fill 89" d="M0,3.306A3.306,3.306,0,1,0,3.3,0,3.306,3.306,0,0,0,0,3.306" transform="translate(99.168 165.278)" fill="#aaa"/>
      <path id="Fill_91" data-name="Fill 91" d="M0,3.306A3.306,3.306,0,1,0,3.3,0,3.306,3.306,0,0,0,0,3.306" transform="translate(66.112 165.278)" fill="#aaa"/>
      <path id="Fill_93" data-name="Fill 93" d="M0,3.306A3.306,3.306,0,1,0,3.3,0,3.306,3.306,0,0,0,0,3.306" transform="translate(33.057 165.278)" fill="#aaa"/>
      <path id="Fill_95" data-name="Fill 95" d="M0,3.306A3.306,3.306,0,1,0,3.3,0,3.306,3.306,0,0,0,0,3.306" transform="translate(0.001 165.278)" fill="#aaa"/>
      <path id="Fill_97" data-name="Fill 97" d="M0,3.306A3.306,3.306,0,1,0,3.3,0,3.306,3.306,0,0,0,0,3.306" transform="translate(231.39 198.333)" fill="#aaa"/>
      <path id="Fill_99" data-name="Fill 99" d="M0,3.306A3.306,3.306,0,1,0,3.3,0,3.306,3.306,0,0,0,0,3.306" transform="translate(198.334 198.333)" fill="#aaa"/>
      <path id="Fill_101" data-name="Fill 101" d="M0,3.306A3.306,3.306,0,1,0,3.3,0,3.306,3.306,0,0,0,0,3.306" transform="translate(165.279 198.333)" fill="#aaa"/>
      <path id="Fill_103" data-name="Fill 103" d="M0,3.306A3.306,3.306,0,1,0,3.3,0,3.306,3.306,0,0,0,0,3.306" transform="translate(132.223 198.333)" fill="#aaa"/>
      <path id="Fill_105" data-name="Fill 105" d="M0,3.306A3.306,3.306,0,1,0,3.3,0,3.306,3.306,0,0,0,0,3.306" transform="translate(99.168 198.333)" fill="#aaa"/>
      <path id="Fill_107" data-name="Fill 107" d="M0,3.306A3.306,3.306,0,1,0,3.3,0,3.306,3.306,0,0,0,0,3.306" transform="translate(66.112 198.333)" fill="#aaa"/>
      <path id="Fill_109" data-name="Fill 109" d="M0,3.306A3.306,3.306,0,1,0,3.3,0,3.306,3.306,0,0,0,0,3.306" transform="translate(33.057 198.333)" fill="#aaa"/>
      <path id="Fill_111" data-name="Fill 111" d="M0,3.306A3.306,3.306,0,1,0,3.3,0,3.306,3.306,0,0,0,0,3.306" transform="translate(0.001 198.333)" fill="#aaa"/>
      <path id="Fill_113" data-name="Fill 113" d="M0,3.306A3.306,3.306,0,1,0,3.3,0,3.306,3.306,0,0,0,0,3.306" transform="translate(231.39 231.389)" fill="#aaa"/>
      <path id="Fill_115" data-name="Fill 115" d="M0,3.306A3.306,3.306,0,1,0,3.3,0,3.306,3.306,0,0,0,0,3.306" transform="translate(198.334 231.389)" fill="#aaa"/>
      <path id="Fill_117" data-name="Fill 117" d="M0,3.306A3.306,3.306,0,1,0,3.3,0,3.306,3.306,0,0,0,0,3.306" transform="translate(165.279 231.389)" fill="#aaa"/>
      <path id="Fill_119" data-name="Fill 119" d="M0,3.306A3.306,3.306,0,1,0,3.3,0,3.306,3.306,0,0,0,0,3.306" transform="translate(132.223 231.389)" fill="#aaa"/>
      <path id="Fill_121" data-name="Fill 121" d="M0,3.306A3.306,3.306,0,1,0,3.3,0,3.306,3.306,0,0,0,0,3.306" transform="translate(99.168 231.389)" fill="#aaa"/>
      <path id="Fill_123" data-name="Fill 123" d="M0,3.306A3.306,3.306,0,1,0,3.3,0,3.306,3.306,0,0,0,0,3.306" transform="translate(66.112 231.389)" fill="#aaa"/>
      <path id="Fill_125" data-name="Fill 125" d="M0,3.306A3.306,3.306,0,1,0,3.3,0,3.306,3.306,0,0,0,0,3.306" transform="translate(33.057 231.389)" fill="#aaa"/>
      <path id="Fill_127" data-name="Fill 127" d="M0,3.306A3.306,3.306,0,1,0,3.3,0,3.306,3.306,0,0,0,0,3.306" transform="translate(0.001 231.389)" fill="#aaa"/>
    </g>
  </g>
</svg>
