<svg id="product-customer-icon" xmlns="http://www.w3.org/2000/svg" width="86" height="86" viewBox="0 0 86 86">
  <g id="Ellipse_139" data-name="Ellipse 139" fill="none" stroke="#e5e5e5" stroke-width="1.5">
    <circle cx="43" cy="43" r="43" stroke="none"/>
    <circle cx="43" cy="43" r="42.25" fill="none"/>
  </g>
  <g id="noun_Profile_Details_168511" data-name="noun_Profile Details_168511" transform="translate(20 13)">
    <g id="Group_106" data-name="Group 106">
      <g id="Group_105" data-name="Group 105">
        <path id="Path_479" data-name="Path 479" d="M3059.606,614.354v3.768h-1.255V615.61h-36.415v48.971h1.9v1.256h-3.159V614.354Z" transform="translate(-3020.68 -614.354)" fill="#70a111" stroke="#70a111" stroke-width="0.5" fill-rule="evenodd"/>
        <path id="Path_480" data-name="Path 480" d="M3064.635,620.356v3.771h-1.256v-2.515h-36.415v48.971h2.089v1.256h-3.344V620.356Z" transform="translate(-3022.551 -616.588)" fill="#70a111" stroke="#70a111" stroke-width="0.5" fill-rule="evenodd"/>
        <path id="Path_481" data-name="Path 481" d="M3069.965,626.361v51.483h-38.926V626.361Zm-1.255,1.256h-36.416v48.971h36.416Z" transform="translate(-3024.534 -618.822)" fill="#70a111" stroke="#70a111" stroke-width="0.5" fill-rule="evenodd"/>
        <g id="Group_104" data-name="Group 104" transform="translate(35.908 48.619) rotate(180)">
          <path id="Path_482" data-name="Path 482" d="M0,1.254V0H19.888V1.254Z" transform="translate(0 9.808)" fill="#70a111" stroke="#70a111" stroke-width="0.5" fill-rule="evenodd"/>
          <path id="Path_483" data-name="Path 483" d="M0,1.254V0H19.888V1.254Z" transform="translate(0 4.904)" fill="#70a111" stroke="#70a111" stroke-width="0.5" fill-rule="evenodd"/>
          <path id="Path_484" data-name="Path 484" d="M0,3.92V0H7.567V3.92H6.314V1.254H1.253V3.92Z" transform="translate(6.159 18.745)" fill="#70a111" stroke="#70a111" stroke-width="0.5"/>
          <path id="Path_485" data-name="Path 485" d="M2.2,4.41A2.2,2.2,0,1,1,4.411,2.2,2.213,2.213,0,0,1,2.2,4.41Zm0-1.253A.94.94,0,0,0,3.156,2.2.94.94,0,0,0,2.2,1.253a.94.94,0,0,0-.952.952A.94.94,0,0,0,2.2,3.156Z" transform="translate(7.74 22.234)" fill="#70a111" stroke="#70a111" stroke-width="0.5"/>
          <path id="Path_486" data-name="Path 486" d="M7.983,15.966a7.983,7.983,0,1,1,7.984-7.983A7.992,7.992,0,0,1,7.983,15.966Zm0-1.253a6.73,6.73,0,1,0-6.728-6.73A6.72,6.72,0,0,0,7.983,14.712Z" transform="translate(1.962 14.712)" fill="#70a111" stroke="#70a111" stroke-width="0.5"/>
          <path id="Path_487" data-name="Path 487" d="M0,1.254V0H19.888V1.254Z" fill="#70a111" stroke="#70a111" stroke-width="0.5" fill-rule="evenodd"/>
          <path id="Path_488" data-name="Path 488" d="M7.847,15.693a7.847,7.847,0,1,1,7.847-7.847A7.854,7.854,0,0,1,7.847,15.693Zm0-.981A6.866,6.866,0,1,0,.981,7.847,6.858,6.858,0,0,0,7.847,14.712Z" transform="translate(2.098 14.849)" fill="none" stroke="#70a111" stroke-width="0.5"/>
        </g>
      </g>
    </g>
  </g>
</svg>
