<svg xmlns="http://www.w3.org/2000/svg" width="86" height="86" viewBox="0 0 86 86">
  <g id="wallet-management-icon" transform="translate(-0.469)">
    <g id="Group_33" data-name="Group 33" transform="translate(0.469)">
      <g id="Ellipse_139" data-name="Ellipse 139" fill="#fff" stroke="#e5e5e5" stroke-width="1.5">
        <circle cx="43" cy="43" r="43" stroke="none"/>
        <circle cx="43" cy="43" r="42.25" fill="none"/>
      </g>
      <g id="Group_2099" data-name="Group 2099" transform="translate(14.473 14.474)">
        <g id="Group_112" data-name="Group 112">
          <g id="Group_107" data-name="Group 107" transform="translate(32.715 30.523)">
            <path id="Path_489" data-name="Path 489" d="M92.624,100.974H90a.443.443,0,0,1-.429-.335l-.712-2.825a10.546,10.546,0,0,1-5.288-3.056l-2.805.8a.442.442,0,0,1-.5-.2l-1.311-2.271a.443.443,0,0,1,.075-.539l2.092-2.029a10.643,10.643,0,0,1,0-6.108l-2.092-2.029a.443.443,0,0,1-.075-.539l1.311-2.271a.443.443,0,0,1,.5-.2l2.805.8A10.545,10.545,0,0,1,88.861,77.1l.712-2.825A.443.443,0,0,1,90,73.942h2.623a.443.443,0,0,1,.429.335l.711,2.825a10.55,10.55,0,0,1,5.288,3.056l2.805-.8a.443.443,0,0,1,.5.2l1.311,2.271a.443.443,0,0,1-.075.539L101.507,84.4a10.644,10.644,0,0,1,0,6.108l2.092,2.029a.443.443,0,0,1,.075.539l-1.311,2.271a.442.442,0,0,1-.5.2l-2.805-.8a10.55,10.55,0,0,1-5.288,3.056l-.711,2.825A.443.443,0,0,1,92.624,100.974Zm-2.277-.885h1.933l.694-2.755a.443.443,0,0,1,.339-.325,9.682,9.682,0,0,0,5.27-3.045.442.442,0,0,1,.451-.13l2.736.778.966-1.674-2.04-1.979a.443.443,0,0,1-.112-.456,9.757,9.757,0,0,0,0-6.087.443.443,0,0,1,.112-.456l2.04-1.979-.966-1.674-2.736.778a.443.443,0,0,1-.451-.13,9.682,9.682,0,0,0-5.27-3.045.443.443,0,0,1-.339-.325l-.694-2.755H90.347l-.694,2.755a.443.443,0,0,1-.339.325,9.679,9.679,0,0,0-5.27,3.045.443.443,0,0,1-.451.131l-2.736-.778-.966,1.674,2.04,1.979a.443.443,0,0,1,.112.456,9.758,9.758,0,0,0,0,6.087.443.443,0,0,1-.112.456l-2.04,1.979.966,1.674,2.736-.778a.443.443,0,0,1,.451.131,9.677,9.677,0,0,0,5.27,3.045.443.443,0,0,1,.339.325Z" transform="translate(-78.892 -73.942)" fill="#70a111" stroke="#70a111" stroke-width="1"/>
          </g>
          <g id="Group_108" data-name="Group 108" transform="translate(38.678 37.582)">
            <path id="Path_490" data-name="Path 490" d="M98.818,102.8a6.457,6.457,0,1,1,6.457-6.457A6.465,6.465,0,0,1,98.818,102.8Zm0-12.029a5.572,5.572,0,1,0,5.572,5.572A5.578,5.578,0,0,0,98.818,90.771Z" transform="translate(-92.361 -89.886)" fill="#70a111" stroke="#70a111" stroke-width="1"/>
          </g>
          <g id="Group_111" data-name="Group 111">
            <g id="Group_109" data-name="Group 109">
              <path id="Path_491" data-name="Path 491" d="M23.988,42.376h-3.66a.443.443,0,0,1-.429-.335l-1.019-4.046a14.551,14.551,0,0,1-7.469-4.316L7.394,34.821a.443.443,0,0,1-.5-.2l-1.83-3.17a.443.443,0,0,1,.075-.539L8.13,28a14.685,14.685,0,0,1,0-8.626l-3-2.907a.443.443,0,0,1-.075-.539l1.83-3.17a.443.443,0,0,1,.5-.2L11.412,13.7a14.551,14.551,0,0,1,7.469-4.316L19.9,5.335A.443.443,0,0,1,20.328,5h3.66a.443.443,0,0,1,.429.335l1.019,4.046A14.55,14.55,0,0,1,32.905,13.7l4.017-1.142a.443.443,0,0,1,.5.2l1.83,3.17a.443.443,0,0,1-.075.539l-3,2.907a14.676,14.676,0,0,1,0,8.626l3,2.907a.443.443,0,0,1,.075.539l-1.83,3.17a.442.442,0,0,1-.5.2l-4.018-1.142a14.551,14.551,0,0,1-7.469,4.316l-1.019,4.046A.443.443,0,0,1,23.988,42.376Zm-3.315-.885h2.97l1-3.977a.443.443,0,0,1,.339-.325,13.684,13.684,0,0,0,7.449-4.3.442.442,0,0,1,.451-.13l3.949,1.122L38.318,31.3l-2.945-2.857a.443.443,0,0,1-.112-.456,13.789,13.789,0,0,0,0-8.6.443.443,0,0,1,.112-.456l2.945-2.857L36.833,13.5l-3.949,1.123a.443.443,0,0,1-.451-.13,13.684,13.684,0,0,0-7.449-4.3.443.443,0,0,1-.339-.325l-1-3.977h-2.97l-1,3.977a.443.443,0,0,1-.339.325,13.683,13.683,0,0,0-7.45,4.3.443.443,0,0,1-.451.13L7.484,13.5,6,16.073,8.944,18.93a.443.443,0,0,1,.112.456,13.8,13.8,0,0,0,0,8.6.443.443,0,0,1-.112.456L6,31.3l1.485,2.572,3.949-1.122a.443.443,0,0,1,.451.13,13.683,13.683,0,0,0,7.45,4.3.443.443,0,0,1,.339.325Z" transform="translate(-5 -5)" fill="#70a111" stroke="#70a111" stroke-width="1"/>
            </g>
            <g id="Group_110" data-name="Group 110" transform="translate(7.817 9.347)">
              <path id="Path_492" data-name="Path 492" d="M32,44.794a9.341,9.341,0,1,1,9.341-9.341A9.352,9.352,0,0,1,32,44.794ZM32,27a8.455,8.455,0,1,0,8.455,8.455A8.465,8.465,0,0,0,32,27Z" transform="translate(-22.657 -26.112)" fill="#70a111" stroke="#70a111" stroke-width="1"/>
            </g>
          </g>
        </g>
        <g id="Group_115" data-name="Group 115" transform="translate(29.645 5.313)">
          <g id="Group_113" data-name="Group 113">
            <path id="Path_493" data-name="Path 493" d="M91.236,36.623a.443.443,0,0,1-.443-.443v-18.3H72.4a.443.443,0,1,1,0-.885H91.236a.443.443,0,0,1,.443.443V36.181A.443.443,0,0,1,91.236,36.623Z" transform="translate(-71.958 -17)" fill="#70a111" stroke="#70a111" stroke-width="1"/>
          </g>
          <g id="Group_114" data-name="Group 114" transform="translate(15.957 15.459)">
            <path id="Path_494" data-name="Path 494" d="M111.32,56.082a.443.443,0,0,1-.333-.151l-2.878-3.279a.443.443,0,0,1,.666-.584l2.545,2.9,2.545-2.9a.443.443,0,0,1,.666.584l-2.878,3.279A.443.443,0,0,1,111.32,56.082Z" transform="translate(-108 -51.918)" fill="#70a111" stroke="#70a111" stroke-width="1"/>
          </g>
        </g>
        <g id="Group_118" data-name="Group 118" transform="translate(5.313 34.39)">
          <g id="Group_116" data-name="Group 116" transform="translate(2.878)">
            <path id="Path_495" data-name="Path 495" d="M44.548,100.529H23.943a.443.443,0,0,1-.443-.443V83.12a.443.443,0,0,1,.885,0V99.644H44.548a.443.443,0,1,1,0,.885Z" transform="translate(-23.5 -82.677)" fill="#70a111" stroke="#70a111" stroke-width="1"/>
          </g>
          <g id="Group_117" data-name="Group 117" transform="translate(0 0.007)">
            <path id="Path_496" data-name="Path 496" d="M23.2,86.85a.442.442,0,0,1-.333-.151L20.32,83.8l-2.545,2.9a.443.443,0,0,1-.666-.584l2.878-3.279a.458.458,0,0,1,.666,0l2.878,3.279a.443.443,0,0,1-.333.735Z" transform="translate(-17 -82.693)" fill="#70a111" stroke="#70a111" stroke-width="1"/>
          </g>
        </g>
      </g>
    </g>
  </g>
</svg>
