<svg xmlns="http://www.w3.org/2000/svg" width="63.25" height="100.25" viewBox="0 0 63.25 100.25">
  <g id="step-4-icon" transform="translate(0)">
    <g id="Group_2053" data-name="Group 2053">
      <g id="Group_2052" data-name="Group 2052">
        <path id="Path_540" data-name="Path 540" d="M29.625,457.25a7.625,7.625,0,1,1,7.625-7.625A7.633,7.633,0,0,1,29.625,457.25Zm0-12.708a5.083,5.083,0,1,0,5.083,5.083A5.089,5.089,0,0,0,29.625,444.542Z" transform="translate(26 -357)" fill="#ff9d00" opacity="0.7"/>
        <path id="Path_9475" data-name="Path 9475" d="M29.625,457.25a7.625,7.625,0,1,1,7.625-7.625A7.633,7.633,0,0,1,29.625,457.25Zm0-12.708a5.083,5.083,0,1,0,5.083,5.083A5.089,5.089,0,0,0,29.625,444.542Z" transform="translate(-22 -442)" fill="#91b70e" opacity="0.7"/>
        <path id="Path_9476" data-name="Path 9476" d="M25.625,449.25a3.625,3.625,0,1,1,3.625-3.625A3.629,3.629,0,0,1,25.625,449.25Zm0-6.041a2.417,2.417,0,1,0,2.417,2.417A2.419,2.419,0,0,0,25.625,443.208Z" transform="translate(-18 -363)" fill="#ff9d00" opacity="0.7"/>
        <path id="Path_9477" data-name="Path 9477" d="M25.625,449.25a3.625,3.625,0,1,1,3.625-3.625A3.629,3.629,0,0,1,25.625,449.25Zm0-6.041a2.417,2.417,0,1,0,2.417,2.417A2.419,2.419,0,0,0,25.625,443.208Z" transform="translate(30 -432)" fill="#91b70e" opacity="0.7"/>
      </g>
    </g>
    <g id="Group_5948" data-name="Group 5948" transform="translate(8.204 22.022)">
      <g id="Group_5950" data-name="Group 5950">
        <path id="Path_9483" data-name="Path 9483" d="M56.6,6.4V25.685l6-3.978V58.524H12.5V22.314l6,3.844V6.4ZM54.577,8.423H20.524V27.438L37.517,38.362l17.06-11.328Z" transform="translate(-12.5 -6.4)" fill="#3b4550"/>
        <path id="Path_9484" data-name="Path 9484" d="M44.877,14.4A9.845,9.845,0,1,1,35.1,24.245,9.8,9.8,0,0,1,44.877,14.4Zm5.866,7.889L49.126,20.6l-5.394,5.125-2.293-2.158L39.82,25.256l3.911,3.776Z" transform="translate(-19.861 -9.006)" fill="#3b4550"/>
        <path id="Path_9485" data-name="Path 9485" d="M7.8-5.418,6.315-9.478q-.11-.27-.228-.641t-.236-.8q-.11.43-.228.806T5.4-9.461L3.918-5.418ZM11.809-.81H10.054a.749.749,0,0,1-.481-.148.92.92,0,0,1-.279-.367l-.911-2.49H3.328l-.911,2.49a.809.809,0,0,1-.262.354.73.73,0,0,1-.481.16H-.1l4.8-12.2H7.016Zm5.233-6.068a3.42,3.42,0,0,0,1.089-.156,2.062,2.062,0,0,0,.772-.447,1.811,1.811,0,0,0,.46-.709,2.713,2.713,0,0,0,.152-.933,2.461,2.461,0,0,0-.152-.886,1.752,1.752,0,0,0-.456-.675,2.027,2.027,0,0,0-.768-.426,3.633,3.633,0,0,0-1.1-.148h-1.7v4.38Zm0-6.136a6.965,6.965,0,0,1,2.118.287,4.077,4.077,0,0,1,1.477.8,3.179,3.179,0,0,1,.865,1.232,4.245,4.245,0,0,1,.283,1.57,4.337,4.337,0,0,1-.3,1.625,3.371,3.371,0,0,1-.886,1.27,4.12,4.12,0,0,1-1.481.827,6.616,6.616,0,0,1-2.08.3h-1.7v4.3h-2.27v-12.2ZM27.49-6.878a3.42,3.42,0,0,0,1.089-.156,2.063,2.063,0,0,0,.772-.447,1.811,1.811,0,0,0,.46-.709,2.713,2.713,0,0,0,.152-.933,2.461,2.461,0,0,0-.152-.886,1.752,1.752,0,0,0-.456-.675,2.027,2.027,0,0,0-.768-.426,3.633,3.633,0,0,0-1.1-.148h-1.7v4.38Zm0-6.136a6.965,6.965,0,0,1,2.118.287,4.077,4.077,0,0,1,1.477.8,3.179,3.179,0,0,1,.865,1.232,4.245,4.245,0,0,1,.283,1.57,4.337,4.337,0,0,1-.3,1.625,3.371,3.371,0,0,1-.886,1.27,4.12,4.12,0,0,1-1.481.827,6.616,6.616,0,0,1-2.08.3h-1.7v4.3h-2.27v-12.2Z" transform="translate(9.279 48.856)" fill="#fff" stroke="#fff" stroke-width="0.5"/>
      </g>
    </g>
  </g>
</svg>
