<svg xmlns="http://www.w3.org/2000/svg" width="63.25" height="100.25" viewBox="0 0 63.25 100.25">
  <g id="step-1-icon" transform="translate(0)">
    <g id="noun_find_2333411" transform="translate(5.411 20.162)">
      <path id="Path_9470" data-name="Path 9470" d="M44.468,41.149a23.094,23.094,0,0,0,5.283-14.773A23.376,23.376,0,1,0,26.376,49.751a23.094,23.094,0,0,0,14.773-5.283L52.977,56.3,56.3,52.977ZM26.376,45.076a18.7,18.7,0,1,1,18.7-18.7A18.7,18.7,0,0,1,26.376,45.076Z" transform="translate(-3 -3)" fill="#3b4550"/>
      <path id="Path_9471" data-name="Path 9471" d="M29.8,28.1l3.6,2.992a9.49,9.49,0,0,1,7.246-3.413V23A14.153,14.153,0,0,0,29.8,28.1Z" transform="translate(-17.271 -13.65)" fill="#3b4550"/>
      <path id="Path_9472" data-name="Path 9472" d="M29.8,28.1A14.153,14.153,0,0,1,40.646,23" transform="translate(-17.271 -13.65)" fill="#3b4550"/>
      <path id="Path_9473" data-name="Path 9473" d="M28.049,45.756,23.561,44.4A14.162,14.162,0,0,0,23,48.421h4.675A9.916,9.916,0,0,1,28.049,45.756Z" transform="translate(-13.65 -25.045)" fill="#3b4550"/>
      <path id="Path_9474" data-name="Path 9474" d="M23,48.421a14.162,14.162,0,0,1,.561-4.021" transform="translate(-13.65 -25.045)" fill="#70a111"/>
    </g>
    <g id="Group_2053" data-name="Group 2053">
      <g id="Group_2052" data-name="Group 2052">
        <path id="Path_540" data-name="Path 540" d="M29.625,457.25a7.625,7.625,0,1,1,7.625-7.625A7.633,7.633,0,0,1,29.625,457.25Zm0-12.708a5.083,5.083,0,1,0,5.083,5.083A5.089,5.089,0,0,0,29.625,444.542Z" transform="translate(26 -357)" fill="#ff9d00" opacity="0.7"/>
        <path id="Path_9475" data-name="Path 9475" d="M29.625,457.25a7.625,7.625,0,1,1,7.625-7.625A7.633,7.633,0,0,1,29.625,457.25Zm0-12.708a5.083,5.083,0,1,0,5.083,5.083A5.089,5.089,0,0,0,29.625,444.542Z" transform="translate(-22 -442)" fill="#91b70e" opacity="0.7"/>
        <path id="Path_9476" data-name="Path 9476" d="M25.625,449.25a3.625,3.625,0,1,1,3.625-3.625A3.629,3.629,0,0,1,25.625,449.25Zm0-6.041a2.417,2.417,0,1,0,2.417,2.417A2.419,2.419,0,0,0,25.625,443.208Z" transform="translate(-18 -371)" fill="#ff9d00" opacity="0.7"/>
        <path id="Path_9477" data-name="Path 9477" d="M25.625,449.25a3.625,3.625,0,1,1,3.625-3.625A3.629,3.629,0,0,1,25.625,449.25Zm0-6.041a2.417,2.417,0,1,0,2.417,2.417A2.419,2.419,0,0,0,25.625,443.208Z" transform="translate(30 -427)" fill="#91b70e" opacity="0.7"/>
      </g>
    </g>
  </g>
</svg>
