<svg xmlns="http://www.w3.org/2000/svg" width="70.011" height="100.25" viewBox="0 0 70.011 100.25">
  <g id="step-3-icon" transform="translate(0)">
    <g id="Group_2053" data-name="Group 2053">
      <g id="Group_2052" data-name="Group 2052">
        <path id="Path_540" data-name="Path 540" d="M29.625,457.25a7.625,7.625,0,1,1,7.625-7.625A7.633,7.633,0,0,1,29.625,457.25Zm0-12.708a5.083,5.083,0,1,0,5.083,5.083A5.089,5.089,0,0,0,29.625,444.542Z" transform="translate(26 -357)" fill="#ff9d00" opacity="0.7"/>
        <path id="Path_9475" data-name="Path 9475" d="M29.625,457.25a7.625,7.625,0,1,1,7.625-7.625A7.633,7.633,0,0,1,29.625,457.25Zm0-12.708a5.083,5.083,0,1,0,5.083,5.083A5.089,5.089,0,0,0,29.625,444.542Z" transform="translate(-22 -442)" fill="#91b70e" opacity="0.7"/>
        <path id="Path_9476" data-name="Path 9476" d="M25.625,449.25a3.625,3.625,0,1,1,3.625-3.625A3.629,3.629,0,0,1,25.625,449.25Zm0-6.041a2.417,2.417,0,1,0,2.417,2.417A2.419,2.419,0,0,0,25.625,443.208Z" transform="translate(-18 -368)" fill="#ff9d00" opacity="0.7"/>
        <path id="Path_9477" data-name="Path 9477" d="M25.625,449.25a3.625,3.625,0,1,1,3.625-3.625A3.629,3.629,0,0,1,25.625,449.25Zm0-6.041a2.417,2.417,0,1,0,2.417,2.417A2.419,2.419,0,0,0,25.625,443.208Z" transform="translate(30 -430)" fill="#91b70e" opacity="0.7"/>
      </g>
    </g>
    <g id="Group_5948" data-name="Group 5948" transform="translate(1.411 25.162)">
      <g id="noun_add-user_61729">
        <rect id="Rectangle_1230" data-name="Rectangle 1230" width="59" height="44" rx="1" fill="#3b4550"/>
        <circle id="Ellipse_172" data-name="Ellipse 172" cx="1.5" cy="1.5" r="1.5" transform="translate(3 4)" fill="#fff"/>
        <circle id="Ellipse_173" data-name="Ellipse 173" cx="1.5" cy="1.5" r="1.5" transform="translate(7 4)" fill="#fff"/>
        <rect id="Rectangle_1232" data-name="Rectangle 1232" width="53" height="31" rx="1" transform="translate(3 11)" fill="#fff"/>
        <g id="Group_5949" data-name="Group 5949" transform="translate(42.765 12.162)">
          <g id="Rectangle_1233" data-name="Rectangle 1233" transform="translate(12.235 4.838)" fill="#fff" stroke="#fff" stroke-width="1">
            <rect width="5" height="27" stroke="none"/>
            <rect x="0.5" y="0.5" width="4" height="26" fill="none"/>
          </g>
          <path id="Path_9481" data-name="Path 9481" d="M4.291,0a.783.783,0,0,0-.685.661L.01,23.514a.783.783,0,0,0,1.174.8l5.027-3.07,2.055,7.682a.783.783,0,0,0,.966.55l5.3-1.419a.783.783,0,0,0,.55-.954l-2.067-7.682,5.9.135a.783.783,0,0,0,.624-1.272L4.988.3A.783.783,0,0,0,4.291,0Zm.6,2.642,12.367,15.3-5.248-.122a.783.783,0,0,0-.771.979l2.128,7.938-3.78,1.015L7.459,19.82a.783.783,0,0,0-1.174-.465L1.82,22.083,4.89,2.647Z" transform="translate(0 4.432) rotate(-13)" fill="#3b4550"/>
        </g>
        <path id="Path_9482" data-name="Path 9482" d="M8.325-4.914,6.741-9.243q-.117-.288-.243-.684t-.252-.855q-.117.459-.243.859t-.243.7L4.185-4.914ZM12.6,0H10.728a.8.8,0,0,1-.513-.157.981.981,0,0,1-.3-.392L8.946-3.2H3.555L2.583-.549A.863.863,0,0,1,2.3-.171.779.779,0,0,1,1.791,0H-.1L5.022-13.014H7.488Zm5.58-6.471a3.647,3.647,0,0,0,1.161-.167,2.2,2.2,0,0,0,.823-.477,1.931,1.931,0,0,0,.49-.756,2.894,2.894,0,0,0,.162-.995,2.624,2.624,0,0,0-.162-.945,1.868,1.868,0,0,0-.486-.72,2.162,2.162,0,0,0-.819-.455,3.875,3.875,0,0,0-1.17-.157H16.371v4.671Zm0-6.543a7.427,7.427,0,0,1,2.259.306,4.348,4.348,0,0,1,1.575.855,3.39,3.39,0,0,1,.923,1.314,4.526,4.526,0,0,1,.3,1.674,4.624,4.624,0,0,1-.315,1.733,3.6,3.6,0,0,1-.945,1.354A4.394,4.394,0,0,1,20.4-4.9a7.055,7.055,0,0,1-2.219.315H16.371V0H13.95V-13.014ZM29.322-6.471a3.647,3.647,0,0,0,1.161-.167,2.2,2.2,0,0,0,.823-.477,1.931,1.931,0,0,0,.49-.756,2.894,2.894,0,0,0,.162-.995A2.624,2.624,0,0,0,31.8-9.81a1.868,1.868,0,0,0-.486-.72,2.162,2.162,0,0,0-.819-.455,3.875,3.875,0,0,0-1.17-.157H27.513v4.671Zm0-6.543a7.427,7.427,0,0,1,2.259.306,4.348,4.348,0,0,1,1.575.855,3.39,3.39,0,0,1,.923,1.314,4.526,4.526,0,0,1,.3,1.674,4.624,4.624,0,0,1-.315,1.733,3.6,3.6,0,0,1-.945,1.354,4.394,4.394,0,0,1-1.58.882,7.055,7.055,0,0,1-2.219.315H27.513V0H25.092V-13.014Z" transform="translate(10 33)" fill="#3b4550" stroke="#3b4550" stroke-width="0.5"/>
      </g>
    </g>
  </g>
</svg>
