<svg xmlns="http://www.w3.org/2000/svg" width="64.565" height="100.25" viewBox="0 0 64.565 100.25">
  <g id="step-2-icon" transform="translate(-0.274)">
    <g id="Group_2053" data-name="Group 2053" transform="translate(1.589)">
      <g id="Group_2052" data-name="Group 2052">
        <path id="Path_540" data-name="Path 540" d="M29.625,457.25a7.625,7.625,0,1,1,7.625-7.625A7.633,7.633,0,0,1,29.625,457.25Zm0-12.708a5.083,5.083,0,1,0,5.083,5.083A5.089,5.089,0,0,0,29.625,444.542Z" transform="translate(26 -357)" fill="#ff9d00" opacity="0.7"/>
        <path id="Path_9475" data-name="Path 9475" d="M29.625,457.25a7.625,7.625,0,1,1,7.625-7.625A7.633,7.633,0,0,1,29.625,457.25Zm0-12.708a5.083,5.083,0,1,0,5.083,5.083A5.089,5.089,0,0,0,29.625,444.542Z" transform="translate(-22 -442)" fill="#91b70e" opacity="0.7"/>
        <path id="Path_9476" data-name="Path 9476" d="M25.625,449.25a3.625,3.625,0,1,1,3.625-3.625A3.629,3.629,0,0,1,25.625,449.25Zm0-6.041a2.417,2.417,0,1,0,2.417,2.417A2.419,2.419,0,0,0,25.625,443.208Z" transform="translate(-18 -371)" fill="#ff9d00" opacity="0.7"/>
        <path id="Path_9477" data-name="Path 9477" d="M25.625,449.25a3.625,3.625,0,1,1,3.625-3.625A3.629,3.629,0,0,1,25.625,449.25Zm0-6.041a2.417,2.417,0,1,0,2.417,2.417A2.419,2.419,0,0,0,25.625,443.208Z" transform="translate(30 -427)" fill="#91b70e" opacity="0.7"/>
      </g>
    </g>
    <g id="Group_5948" data-name="Group 5948" transform="translate(0 19.162)">
      <g id="noun_add-user_61729">
        <ellipse id="Ellipse_171" data-name="Ellipse 171" cx="10.5" cy="11" rx="10.5" ry="11" transform="translate(25.274 0)" fill="none" stroke="#3b4550" stroke-width="3"/>
        <path id="Path_9480" data-name="Path 9480" d="M27.679,14C11.911,14,7,24.34,7,24.34v5.17H48.358V24.34S43.447,14,27.679,14Z" transform="translate(8 12.565)" fill="none" stroke="#3b4550" stroke-width="3"/>
        <rect id="Rectangle_1228" data-name="Rectangle 1228" width="3" height="16" transform="translate(6.274 13)" fill="#3b4550"/>
        <rect id="Rectangle_1229" data-name="Rectangle 1229" width="15" height="3" transform="translate(0.274 20)" fill="#3b4550"/>
      </g>
    </g>
  </g>
</svg>
