<svg xmlns="http://www.w3.org/2000/svg" xmlns:xlink="http://www.w3.org/1999/xlink" width="246" height="246" viewBox="0 0 246 246">
  <defs>
    <clipPath id="clip-path">
      <rect id="Rectangle_1229" data-name="Rectangle 1229" width="246" height="246" fill="#fff"/>
    </clipPath>
  </defs>
  <g id="why-work-dotted-bg" opacity="0.33" clip-path="url(#clip-path)">
    <g id="Group_1" data-name="Group 1" transform="translate(-0.2 246.205) rotate(-90)">
      <circle id="Ellipse_1" data-name="Ellipse 1" cx="2.99" cy="2.99" r="2.99" transform="translate(0 40.069)" fill="#aaa"/>
      <circle id="Ellipse_2" data-name="Ellipse 2" cx="2.99" cy="2.99" r="2.99" transform="translate(20.035 40.069)" fill="#aaa"/>
      <circle id="Ellipse_3" data-name="Ellipse 3" cx="2.99" cy="2.99" r="2.99" transform="translate(0 20.035)" fill="#aaa"/>
      <circle id="Ellipse_4" data-name="Ellipse 4" cx="2.99" cy="2.99" r="2.99" transform="translate(20.035 20.035)" fill="#aaa"/>
      <circle id="Ellipse_5" data-name="Ellipse 5" cx="2.99" cy="2.99" r="2.99" transform="translate(30.052 30.052)" fill="#aaa"/>
      <circle id="Ellipse_6" data-name="Ellipse 6" cx="2.99" cy="2.99" r="2.99" transform="translate(10.017 30.052)" fill="#aaa"/>
      <circle id="Ellipse_7" data-name="Ellipse 7" cx="2.99" cy="2.99" r="2.99" transform="translate(10.017 10.017)" fill="#aaa"/>
      <circle id="Ellipse_8" data-name="Ellipse 8" cx="2.99" cy="2.99" r="2.99" transform="translate(0 0)" fill="#aaa"/>
      <circle id="Ellipse_9" data-name="Ellipse 9" cx="2.99" cy="2.99" r="2.99" transform="translate(0 79.99)" fill="#aaa"/>
      <circle id="Ellipse_10" data-name="Ellipse 10" cx="2.99" cy="2.99" r="2.99" transform="translate(20.035 79.99)" fill="#aaa"/>
      <circle id="Ellipse_11" data-name="Ellipse 11" cx="2.99" cy="2.99" r="2.99" transform="translate(0 59.955)" fill="#aaa"/>
      <circle id="Ellipse_12" data-name="Ellipse 12" cx="2.99" cy="2.99" r="2.99" transform="translate(20.035 59.955)" fill="#aaa"/>
      <circle id="Ellipse_13" data-name="Ellipse 13" cx="2.99" cy="2.99" r="2.99" transform="translate(30.052 69.972)" fill="#aaa"/>
      <circle id="Ellipse_14" data-name="Ellipse 14" cx="2.99" cy="2.99" r="2.99" transform="translate(10.017 69.972)" fill="#aaa"/>
      <circle id="Ellipse_15" data-name="Ellipse 15" cx="2.99" cy="2.99" r="2.99" transform="translate(30.052 50.087)" fill="#aaa"/>
      <circle id="Ellipse_16" data-name="Ellipse 16" cx="2.99" cy="2.99" r="2.99" transform="translate(10.017 50.087)" fill="#aaa"/>
      <circle id="Ellipse_17" data-name="Ellipse 17" cx="2.99" cy="2.99" r="2.99" transform="translate(0 120.059)" fill="#aaa"/>
      <circle id="Ellipse_18" data-name="Ellipse 18" cx="2.99" cy="2.99" r="2.99" transform="translate(20.035 120.059)" fill="#aaa"/>
      <circle id="Ellipse_19" data-name="Ellipse 19" cx="2.99" cy="2.99" r="2.99" transform="translate(0 100.024)" fill="#aaa"/>
      <circle id="Ellipse_20" data-name="Ellipse 20" cx="2.99" cy="2.99" r="2.99" transform="translate(20.035 100.024)" fill="#aaa"/>
      <circle id="Ellipse_21" data-name="Ellipse 21" cx="2.99" cy="2.99" r="2.99" transform="translate(30.052 110.042)" fill="#aaa"/>
      <circle id="Ellipse_22" data-name="Ellipse 22" cx="2.99" cy="2.99" r="2.99" transform="translate(10.017 110.042)" fill="#aaa"/>
      <circle id="Ellipse_23" data-name="Ellipse 23" cx="2.99" cy="2.99" r="2.99" transform="translate(30.052 90.007)" fill="#aaa"/>
      <circle id="Ellipse_24" data-name="Ellipse 24" cx="2.99" cy="2.99" r="2.99" transform="translate(10.017 90.007)" fill="#aaa"/>
      <circle id="Ellipse_25" data-name="Ellipse 25" cx="2.99" cy="2.99" r="2.99" transform="translate(0 160.129)" fill="#aaa"/>
      <circle id="Ellipse_26" data-name="Ellipse 26" cx="2.99" cy="2.99" r="2.99" transform="translate(20.035 160.129)" fill="#aaa"/>
      <circle id="Ellipse_27" data-name="Ellipse 27" cx="2.99" cy="2.99" r="2.99" transform="translate(0 140.094)" fill="#aaa"/>
      <circle id="Ellipse_28" data-name="Ellipse 28" cx="2.99" cy="2.99" r="2.99" transform="translate(20.035 140.094)" fill="#aaa"/>
      <circle id="Ellipse_29" data-name="Ellipse 29" cx="2.99" cy="2.99" r="2.99" transform="translate(30.052 150.111)" fill="#aaa"/>
      <circle id="Ellipse_30" data-name="Ellipse 30" cx="2.99" cy="2.99" r="2.99" transform="translate(10.017 150.111)" fill="#aaa"/>
      <circle id="Ellipse_31" data-name="Ellipse 31" cx="2.99" cy="2.99" r="2.99" transform="translate(30.052 130.077)" fill="#aaa"/>
      <circle id="Ellipse_32" data-name="Ellipse 32" cx="2.99" cy="2.99" r="2.99" transform="translate(10.017 130.077)" fill="#aaa"/>
      <circle id="Ellipse_33" data-name="Ellipse 33" cx="2.99" cy="2.99" r="2.99" transform="translate(0 200.198)" fill="#aaa"/>
      <circle id="Ellipse_34" data-name="Ellipse 34" cx="2.99" cy="2.99" r="2.99" transform="translate(20.035 200.198)" fill="#aaa"/>
      <circle id="Ellipse_35" data-name="Ellipse 35" cx="2.99" cy="2.99" r="2.99" transform="translate(0 180.164)" fill="#aaa"/>
      <circle id="Ellipse_36" data-name="Ellipse 36" cx="2.99" cy="2.99" r="2.99" transform="translate(20.035 180.164)" fill="#aaa"/>
      <circle id="Ellipse_37" data-name="Ellipse 37" cx="2.99" cy="2.99" r="2.99" transform="translate(30.052 190.181)" fill="#aaa"/>
      <circle id="Ellipse_38" data-name="Ellipse 38" cx="2.99" cy="2.99" r="2.99" transform="translate(10.017 190.181)" fill="#aaa"/>
      <circle id="Ellipse_39" data-name="Ellipse 39" cx="2.99" cy="2.99" r="2.99" transform="translate(30.052 170.146)" fill="#aaa"/>
      <circle id="Ellipse_40" data-name="Ellipse 40" cx="2.99" cy="2.99" r="2.99" transform="translate(10.017 170.146)" fill="#aaa"/>
      <circle id="Ellipse_41" data-name="Ellipse 41" cx="2.99" cy="2.99" r="2.99" transform="translate(0 240.268)" fill="#aaa"/>
      <circle id="Ellipse_42" data-name="Ellipse 42" cx="2.99" cy="2.99" r="2.99" transform="translate(20.035 240.268)" fill="#aaa"/>
      <circle id="Ellipse_43" data-name="Ellipse 43" cx="2.99" cy="2.99" r="2.99" transform="translate(0 220.233)" fill="#aaa"/>
      <circle id="Ellipse_44" data-name="Ellipse 44" cx="2.99" cy="2.99" r="2.99" transform="translate(20.035 220.233)" fill="#aaa"/>
      <circle id="Ellipse_45" data-name="Ellipse 45" cx="2.99" cy="2.99" r="2.99" transform="translate(30.052 230.251)" fill="#aaa"/>
      <circle id="Ellipse_46" data-name="Ellipse 46" cx="2.99" cy="2.99" r="2.99" transform="translate(10.017 230.251)" fill="#aaa"/>
      <circle id="Ellipse_47" data-name="Ellipse 47" cx="2.99" cy="2.99" r="2.99" transform="translate(30.052 210.216)" fill="#aaa"/>
      <circle id="Ellipse_48" data-name="Ellipse 48" cx="2.99" cy="2.99" r="2.99" transform="translate(10.017 210.216)" fill="#aaa"/>
      <path id="Path_2" data-name="Path 2" d="M2.991,0A3.014,3.014,0,0,1,4.636.45,3.33,3.33,0,0,1,5.982,2.992,3.33,3.33,0,0,1,4.636,5.533a3.014,3.014,0,0,1-1.645.449A3.33,3.33,0,0,1,.45,4.636,3.014,3.014,0,0,1,0,2.992,3.014,3.014,0,0,1,.45,1.347,3.33,3.33,0,0,1,2.991,0Z" transform="translate(40.069 39.918)" fill="#aaa"/>
      <path id="Path_3" data-name="Path 3" d="M2.991,0A3.014,3.014,0,0,1,4.636.45,3.33,3.33,0,0,1,5.982,2.992,3.33,3.33,0,0,1,4.636,5.533a3.014,3.014,0,0,1-1.645.449A3.33,3.33,0,0,1,.45,4.636,3.014,3.014,0,0,1,0,2.992,3.014,3.014,0,0,1,.45,1.347,3.33,3.33,0,0,1,2.991,0Z" transform="translate(40.069 79.988)" fill="#aaa"/>
      <circle id="Ellipse_49" data-name="Ellipse 49" cx="2.99" cy="2.99" r="2.99" transform="translate(60.104 79.99)" fill="#aaa"/>
      <path id="Path_4" data-name="Path 4" d="M2.991,0A3.014,3.014,0,0,1,4.636.45,3.33,3.33,0,0,1,5.982,2.992,3.33,3.33,0,0,1,4.636,5.533a3.014,3.014,0,0,1-1.645.449A3.33,3.33,0,0,1,.45,4.636,3.014,3.014,0,0,1,0,2.992,3.014,3.014,0,0,1,.45,1.347,3.33,3.33,0,0,1,2.991,0Z" transform="translate(40.069 59.953)" fill="#aaa"/>
      <circle id="Ellipse_50" data-name="Ellipse 50" cx="2.99" cy="2.99" r="2.99" transform="translate(60.104 59.955)" fill="#aaa"/>
      <circle id="Ellipse_51" data-name="Ellipse 51" cx="2.99" cy="2.99" r="2.99" transform="translate(70.122 69.972)" fill="#aaa"/>
      <circle id="Ellipse_52" data-name="Ellipse 52" cx="2.99" cy="2.99" r="2.99" transform="translate(50.087 69.972)" fill="#aaa"/>
      <circle id="Ellipse_53" data-name="Ellipse 53" cx="2.99" cy="2.99" r="2.99" transform="translate(50.087 50.087)" fill="#aaa"/>
      <path id="Path_5" data-name="Path 5" d="M2.991,0A3.014,3.014,0,0,1,4.636.45,3.33,3.33,0,0,1,5.982,2.992,3.33,3.33,0,0,1,4.636,5.533a3.014,3.014,0,0,1-1.645.449A3.33,3.33,0,0,1,.45,4.636,3.014,3.014,0,0,1,0,2.992,3.014,3.014,0,0,1,.45,1.347,3.33,3.33,0,0,1,2.991,0Z" transform="translate(40.069 120.057)" fill="#aaa"/>
      <circle id="Ellipse_54" data-name="Ellipse 54" cx="2.99" cy="2.99" r="2.99" transform="translate(60.104 120.059)" fill="#aaa"/>
      <path id="Path_6" data-name="Path 6" d="M2.991,0A3.014,3.014,0,0,1,4.636.45,3.33,3.33,0,0,1,5.982,2.992,3.33,3.33,0,0,1,4.636,5.533a3.014,3.014,0,0,1-1.645.449A3.33,3.33,0,0,1,.45,4.636,3.014,3.014,0,0,1,0,2.992,3.014,3.014,0,0,1,.45,1.347,3.33,3.33,0,0,1,2.991,0Z" transform="translate(40.069 100.022)" fill="#aaa"/>
      <circle id="Ellipse_55" data-name="Ellipse 55" cx="2.99" cy="2.99" r="2.99" transform="translate(60.104 100.024)" fill="#aaa"/>
      <circle id="Ellipse_56" data-name="Ellipse 56" cx="2.99" cy="2.99" r="2.99" transform="translate(70.122 110.042)" fill="#aaa"/>
      <circle id="Ellipse_57" data-name="Ellipse 57" cx="2.99" cy="2.99" r="2.99" transform="translate(50.087 110.042)" fill="#aaa"/>
      <circle id="Ellipse_58" data-name="Ellipse 58" cx="2.99" cy="2.99" r="2.99" transform="translate(70.122 90.007)" fill="#aaa"/>
      <circle id="Ellipse_59" data-name="Ellipse 59" cx="2.99" cy="2.99" r="2.99" transform="translate(50.087 90.007)" fill="#aaa"/>
      <path id="Path_7" data-name="Path 7" d="M2.991,0A3.014,3.014,0,0,1,4.636.45,3.33,3.33,0,0,1,5.982,2.992,3.33,3.33,0,0,1,4.636,5.533a3.014,3.014,0,0,1-1.645.449A3.33,3.33,0,0,1,.45,4.636,3.014,3.014,0,0,1,0,2.992,3.014,3.014,0,0,1,.45,1.347,3.33,3.33,0,0,1,2.991,0Z" transform="translate(40.069 160.127)" fill="#aaa"/>
      <circle id="Ellipse_60" data-name="Ellipse 60" cx="2.99" cy="2.99" r="2.99" transform="translate(60.104 160.129)" fill="#aaa"/>
      <path id="Path_8" data-name="Path 8" d="M2.991,0A3.014,3.014,0,0,1,4.636.45,3.33,3.33,0,0,1,5.982,2.992,3.33,3.33,0,0,1,4.636,5.533a3.014,3.014,0,0,1-1.645.449A3.33,3.33,0,0,1,.45,4.636,3.014,3.014,0,0,1,0,2.992,3.014,3.014,0,0,1,.45,1.347,3.33,3.33,0,0,1,2.991,0Z" transform="translate(40.069 140.092)" fill="#aaa"/>
      <circle id="Ellipse_61" data-name="Ellipse 61" cx="2.99" cy="2.99" r="2.99" transform="translate(60.104 140.094)" fill="#aaa"/>
      <circle id="Ellipse_62" data-name="Ellipse 62" cx="2.99" cy="2.99" r="2.99" transform="translate(70.122 150.111)" fill="#aaa"/>
      <circle id="Ellipse_63" data-name="Ellipse 63" cx="2.99" cy="2.99" r="2.99" transform="translate(50.087 150.111)" fill="#aaa"/>
      <circle id="Ellipse_64" data-name="Ellipse 64" cx="2.99" cy="2.99" r="2.99" transform="translate(70.122 130.077)" fill="#aaa"/>
      <circle id="Ellipse_65" data-name="Ellipse 65" cx="2.99" cy="2.99" r="2.99" transform="translate(50.087 130.077)" fill="#aaa"/>
      <path id="Path_9" data-name="Path 9" d="M2.991,0A3.014,3.014,0,0,1,4.636.45,3.33,3.33,0,0,1,5.982,2.992,3.33,3.33,0,0,1,4.636,5.533a3.014,3.014,0,0,1-1.645.449A3.33,3.33,0,0,1,.45,4.636,3.014,3.014,0,0,1,0,2.992,3.014,3.014,0,0,1,.45,1.347,2.938,2.938,0,0,1,2.991,0Z" transform="translate(40.069 200.196)" fill="#aaa"/>
      <circle id="Ellipse_66" data-name="Ellipse 66" cx="2.99" cy="2.99" r="2.99" transform="translate(60.104 200.198)" fill="#aaa"/>
      <path id="Path_10" data-name="Path 10" d="M2.991,0A3.014,3.014,0,0,1,4.636.45,3.33,3.33,0,0,1,5.982,2.992,3.33,3.33,0,0,1,4.636,5.533a3.014,3.014,0,0,1-1.645.449A3.33,3.33,0,0,1,.45,4.636,3.014,3.014,0,0,1,0,2.992,3.014,3.014,0,0,1,.45,1.347,3.33,3.33,0,0,1,2.991,0Z" transform="translate(40.069 180.162)" fill="#aaa"/>
      <circle id="Ellipse_67" data-name="Ellipse 67" cx="2.99" cy="2.99" r="2.99" transform="translate(60.104 180.164)" fill="#aaa"/>
      <circle id="Ellipse_68" data-name="Ellipse 68" cx="2.99" cy="2.99" r="2.99" transform="translate(70.122 190.181)" fill="#aaa"/>
      <circle id="Ellipse_69" data-name="Ellipse 69" cx="2.99" cy="2.99" r="2.99" transform="translate(50.087 190.181)" fill="#aaa"/>
      <circle id="Ellipse_70" data-name="Ellipse 70" cx="2.99" cy="2.99" r="2.99" transform="translate(70.122 170.146)" fill="#aaa"/>
      <circle id="Ellipse_71" data-name="Ellipse 71" cx="2.99" cy="2.99" r="2.99" transform="translate(50.087 170.146)" fill="#aaa"/>
      <path id="Path_11" data-name="Path 11" d="M2.991,0A3.014,3.014,0,0,1,4.636.45,3.33,3.33,0,0,1,5.982,2.992,3.33,3.33,0,0,1,4.636,5.533a3.014,3.014,0,0,1-1.645.449A3.33,3.33,0,0,1,.45,4.636,3.014,3.014,0,0,1,0,2.992,3.014,3.014,0,0,1,.45,1.347,2.938,2.938,0,0,1,2.991,0Z" transform="translate(40.069 240.266)" fill="#aaa"/>
      <circle id="Ellipse_72" data-name="Ellipse 72" cx="2.99" cy="2.99" r="2.99" transform="translate(60.104 240.268)" fill="#aaa"/>
      <path id="Path_12" data-name="Path 12" d="M2.991,0A3.014,3.014,0,0,1,4.636.45,3.33,3.33,0,0,1,5.982,2.992,3.33,3.33,0,0,1,4.636,5.533a3.014,3.014,0,0,1-1.645.449A3.33,3.33,0,0,1,.45,4.636,3.014,3.014,0,0,1,0,2.992,3.014,3.014,0,0,1,.45,1.347,2.938,2.938,0,0,1,2.991,0Z" transform="translate(40.069 220.231)" fill="#aaa"/>
      <circle id="Ellipse_73" data-name="Ellipse 73" cx="2.99" cy="2.99" r="2.99" transform="translate(60.104 220.233)" fill="#aaa"/>
      <circle id="Ellipse_74" data-name="Ellipse 74" cx="2.99" cy="2.99" r="2.99" transform="translate(70.122 230.251)" fill="#aaa"/>
      <circle id="Ellipse_75" data-name="Ellipse 75" cx="2.99" cy="2.99" r="2.99" transform="translate(50.087 230.251)" fill="#aaa"/>
      <circle id="Ellipse_76" data-name="Ellipse 76" cx="2.99" cy="2.99" r="2.99" transform="translate(70.122 210.216)" fill="#aaa"/>
      <circle id="Ellipse_77" data-name="Ellipse 77" cx="2.99" cy="2.99" r="2.99" transform="translate(50.087 210.216)" fill="#aaa"/>
      <path id="Path_13" data-name="Path 13" d="M3,0A3.014,3.014,0,0,1,4.64.45,3.33,3.33,0,0,1,5.986,2.992,3.33,3.33,0,0,1,4.64,5.533,3.014,3.014,0,0,1,3,5.982a2.509,2.509,0,0,1-2.09-.9,2.952,2.952,0,0,1-.9-2.09A2.509,2.509,0,0,1,.905.9,3.029,3.029,0,0,1,3,0Z" transform="translate(80.134 79.988)" fill="#aaa"/>
      <path id="Path_14" data-name="Path 14" d="M3,.005A3.014,3.014,0,0,1,4.64.454,3.33,3.33,0,0,1,5.986,3,3.33,3.33,0,0,1,4.64,5.537,3.014,3.014,0,0,1,3,5.986a2.509,2.509,0,0,1-2.09-.9A2.952,2.952,0,0,1,.005,3,2.509,2.509,0,0,1,.905.9,2.509,2.509,0,0,1,3,.005Z" transform="translate(80.134 120.053)" fill="#aaa"/>
      <circle id="Ellipse_78" data-name="Ellipse 78" cx="2.99" cy="2.99" r="2.99" transform="translate(100.174 120.059)" fill="#aaa"/>
      <path id="Path_15" data-name="Path 15" d="M3,0A3.014,3.014,0,0,1,4.64.45,3.33,3.33,0,0,1,5.986,2.992,3.33,3.33,0,0,1,4.64,5.533,3.014,3.014,0,0,1,3,5.982a2.509,2.509,0,0,1-2.09-.9,2.952,2.952,0,0,1-.9-2.09A2.509,2.509,0,0,1,.905.9,3.029,3.029,0,0,1,3,0Z" transform="translate(80.134 100.022)" fill="#aaa"/>
      <circle id="Ellipse_79" data-name="Ellipse 79" cx="2.99" cy="2.99" r="2.99" transform="translate(100.174 100.024)" fill="#aaa"/>
      <circle id="Ellipse_80" data-name="Ellipse 80" cx="2.99" cy="2.99" r="2.99" transform="translate(110.191 110.042)" fill="#aaa"/>
      <circle id="Ellipse_81" data-name="Ellipse 81" cx="2.99" cy="2.99" r="2.99" transform="translate(90.157 110.042)" fill="#aaa"/>
      <circle id="Ellipse_82" data-name="Ellipse 82" cx="2.99" cy="2.99" r="2.99" transform="translate(90.157 90.007)" fill="#aaa"/>
      <path id="Path_16" data-name="Path 16" d="M3,.005A3.014,3.014,0,0,1,4.64.454,3.33,3.33,0,0,1,5.986,3,3.33,3.33,0,0,1,4.64,5.537,3.014,3.014,0,0,1,3,5.986a2.509,2.509,0,0,1-2.09-.9A2.952,2.952,0,0,1,.005,3,2.509,2.509,0,0,1,.905.9,2.509,2.509,0,0,1,3,.005Z" transform="translate(80.134 160.123)" fill="#aaa"/>
      <circle id="Ellipse_83" data-name="Ellipse 83" cx="2.99" cy="2.99" r="2.99" transform="translate(100.174 160.129)" fill="#aaa"/>
      <path id="Path_17" data-name="Path 17" d="M3,.005A3.014,3.014,0,0,1,4.64.454,3.33,3.33,0,0,1,5.986,3,3.33,3.33,0,0,1,4.64,5.537,3.014,3.014,0,0,1,3,5.986a2.509,2.509,0,0,1-2.09-.9A2.952,2.952,0,0,1,.005,3,2.509,2.509,0,0,1,.905.9,2.509,2.509,0,0,1,3,.005Z" transform="translate(80.134 140.088)" fill="#aaa"/>
      <circle id="Ellipse_84" data-name="Ellipse 84" cx="2.99" cy="2.99" r="2.99" transform="translate(100.174 140.094)" fill="#aaa"/>
      <circle id="Ellipse_85" data-name="Ellipse 85" cx="2.99" cy="2.99" r="2.99" transform="translate(110.191 150.111)" fill="#aaa"/>
      <circle id="Ellipse_86" data-name="Ellipse 86" cx="2.99" cy="2.99" r="2.99" transform="translate(90.157 150.111)" fill="#aaa"/>
      <circle id="Ellipse_87" data-name="Ellipse 87" cx="2.99" cy="2.99" r="2.99" transform="translate(110.191 130.077)" fill="#aaa"/>
      <circle id="Ellipse_88" data-name="Ellipse 88" cx="2.99" cy="2.99" r="2.99" transform="translate(90.157 130.077)" fill="#aaa"/>
      <path id="Path_18" data-name="Path 18" d="M2.991.005A3.014,3.014,0,0,1,4.636.454,3.33,3.33,0,0,1,5.982,3,3.33,3.33,0,0,1,4.636,5.537a3.014,3.014,0,0,1-1.645.449,2.509,2.509,0,0,1-2.09-.9A2.952,2.952,0,0,1,0,3,2.715,2.715,0,0,1,.9.9a2.509,2.509,0,0,1,2.09-.9Z" transform="translate(80.138 200.192)" fill="#aaa"/>
      <circle id="Ellipse_89" data-name="Ellipse 89" cx="2.99" cy="2.99" r="2.99" transform="translate(100.174 200.198)" fill="#aaa"/>
      <path id="Path_19" data-name="Path 19" d="M3,.005A3.014,3.014,0,0,1,4.64.454,3.33,3.33,0,0,1,5.986,3,3.33,3.33,0,0,1,4.64,5.537,3.014,3.014,0,0,1,3,5.986a2.509,2.509,0,0,1-2.09-.9A2.952,2.952,0,0,1,.005,3,2.509,2.509,0,0,1,.905.9,2.509,2.509,0,0,1,3,.005Z" transform="translate(80.134 180.158)" fill="#aaa"/>
      <circle id="Ellipse_90" data-name="Ellipse 90" cx="2.99" cy="2.99" r="2.99" transform="translate(100.174 180.164)" fill="#aaa"/>
      <circle id="Ellipse_91" data-name="Ellipse 91" cx="2.99" cy="2.99" r="2.99" transform="translate(110.191 190.181)" fill="#aaa"/>
      <circle id="Ellipse_92" data-name="Ellipse 92" cx="2.99" cy="2.99" r="2.99" transform="translate(90.157 190.181)" fill="#aaa"/>
      <circle id="Ellipse_93" data-name="Ellipse 93" cx="2.99" cy="2.99" r="2.99" transform="translate(110.191 170.146)" fill="#aaa"/>
      <circle id="Ellipse_94" data-name="Ellipse 94" cx="2.99" cy="2.99" r="2.99" transform="translate(90.157 170.146)" fill="#aaa"/>
      <path id="Path_20" data-name="Path 20" d="M3,.005A3.014,3.014,0,0,1,4.64.454,3.33,3.33,0,0,1,5.986,3,3.33,3.33,0,0,1,4.64,5.537,3.014,3.014,0,0,1,3,5.986a2.509,2.509,0,0,1-2.09-.9A2.952,2.952,0,0,1,.005,3,2.509,2.509,0,0,1,.905.9,2.509,2.509,0,0,1,3,.005Z" transform="translate(80.134 240.262)" fill="#aaa"/>
      <circle id="Ellipse_95" data-name="Ellipse 95" cx="2.99" cy="2.99" r="2.99" transform="translate(100.174 240.268)" fill="#aaa"/>
      <path id="Path_21" data-name="Path 21" d="M3,.005A3.014,3.014,0,0,1,4.64.454,3.33,3.33,0,0,1,5.986,3,3.33,3.33,0,0,1,4.64,5.537,3.014,3.014,0,0,1,3,5.986a2.509,2.509,0,0,1-2.09-.9A2.952,2.952,0,0,1,.005,3,2.509,2.509,0,0,1,.905.9,2.509,2.509,0,0,1,3,.005Z" transform="translate(80.134 220.227)" fill="#aaa"/>
      <circle id="Ellipse_96" data-name="Ellipse 96" cx="2.99" cy="2.99" r="2.99" transform="translate(100.174 220.233)" fill="#aaa"/>
      <circle id="Ellipse_97" data-name="Ellipse 97" cx="2.99" cy="2.99" r="2.99" transform="translate(110.191 230.251)" fill="#aaa"/>
      <circle id="Ellipse_98" data-name="Ellipse 98" cx="2.99" cy="2.99" r="2.99" transform="translate(90.157 230.251)" fill="#aaa"/>
      <circle id="Ellipse_99" data-name="Ellipse 99" cx="2.99" cy="2.99" r="2.99" transform="translate(110.191 210.216)" fill="#aaa"/>
      <circle id="Ellipse_100" data-name="Ellipse 100" cx="2.99" cy="2.99" r="2.99" transform="translate(90.157 210.216)" fill="#aaa"/>
      <path id="Path_22" data-name="Path 22" d="M3,.005A3.014,3.014,0,0,1,4.64.454,3.33,3.33,0,0,1,5.986,3,3.33,3.33,0,0,1,4.64,5.537,3.014,3.014,0,0,1,3,5.986a2.509,2.509,0,0,1-2.09-.9A2.952,2.952,0,0,1,.005,3,2.509,2.509,0,0,1,.905.9,2.509,2.509,0,0,1,3,.005Z" transform="translate(120.204 120.053)" fill="#aaa"/>
      <path id="Path_23" data-name="Path 23" d="M3,.005A3.014,3.014,0,0,1,4.64.454,3.33,3.33,0,0,1,5.986,3,3.33,3.33,0,0,1,4.64,5.537,3.014,3.014,0,0,1,3,5.986a2.509,2.509,0,0,1-2.09-.9A2.952,2.952,0,0,1,.005,3,2.509,2.509,0,0,1,.905.9,2.509,2.509,0,0,1,3,.005Z" transform="translate(120.204 160.123)" fill="#aaa"/>
      <circle id="Ellipse_101" data-name="Ellipse 101" cx="2.99" cy="2.99" r="2.99" transform="translate(140.244 160.129)" fill="#aaa"/>
      <path id="Path_24" data-name="Path 24" d="M3,.005A3.014,3.014,0,0,1,4.64.454,3.33,3.33,0,0,1,5.986,3,3.33,3.33,0,0,1,4.64,5.537,3.014,3.014,0,0,1,3,5.986a2.509,2.509,0,0,1-2.09-.9A2.952,2.952,0,0,1,.005,3,2.509,2.509,0,0,1,.905.9,2.509,2.509,0,0,1,3,.005Z" transform="translate(120.204 140.088)" fill="#aaa"/>
      <circle id="Ellipse_102" data-name="Ellipse 102" cx="2.99" cy="2.99" r="2.99" transform="translate(140.244 140.094)" fill="#aaa"/>
      <circle id="Ellipse_103" data-name="Ellipse 103" cx="2.99" cy="2.99" r="2.99" transform="translate(150.261 150.111)" fill="#aaa"/>
      <circle id="Ellipse_104" data-name="Ellipse 104" cx="2.99" cy="2.99" r="2.99" transform="translate(130.226 150.111)" fill="#aaa"/>
      <circle id="Ellipse_105" data-name="Ellipse 105" cx="2.99" cy="2.99" r="2.99" transform="translate(130.226 130.077)" fill="#aaa"/>
      <path id="Path_25" data-name="Path 25" d="M2.991.005A3.014,3.014,0,0,1,4.636.454,3.33,3.33,0,0,1,5.982,3,3.33,3.33,0,0,1,4.636,5.537a3.014,3.014,0,0,1-1.645.449,2.509,2.509,0,0,1-2.09-.9A2.952,2.952,0,0,1,0,3,2.715,2.715,0,0,1,.9.9a2.509,2.509,0,0,1,2.09-.9Z" transform="translate(120.208 200.192)" fill="#aaa"/>
      <circle id="Ellipse_106" data-name="Ellipse 106" cx="2.99" cy="2.99" r="2.99" transform="translate(140.244 200.198)" fill="#aaa"/>
      <path id="Path_26" data-name="Path 26" d="M3,.005A3.014,3.014,0,0,1,4.64.454,3.33,3.33,0,0,1,5.986,3,3.33,3.33,0,0,1,4.64,5.537,3.014,3.014,0,0,1,3,5.986a2.509,2.509,0,0,1-2.09-.9A2.952,2.952,0,0,1,.005,3,2.509,2.509,0,0,1,.905.9,2.509,2.509,0,0,1,3,.005Z" transform="translate(120.204 180.158)" fill="#aaa"/>
      <circle id="Ellipse_107" data-name="Ellipse 107" cx="2.99" cy="2.99" r="2.99" transform="translate(140.244 180.164)" fill="#aaa"/>
      <circle id="Ellipse_108" data-name="Ellipse 108" cx="2.99" cy="2.99" r="2.99" transform="translate(150.261 190.181)" fill="#aaa"/>
      <circle id="Ellipse_109" data-name="Ellipse 109" cx="2.99" cy="2.99" r="2.99" transform="translate(130.226 190.181)" fill="#aaa"/>
      <circle id="Ellipse_110" data-name="Ellipse 110" cx="2.99" cy="2.99" r="2.99" transform="translate(150.261 170.146)" fill="#aaa"/>
      <circle id="Ellipse_111" data-name="Ellipse 111" cx="2.99" cy="2.99" r="2.99" transform="translate(130.226 170.146)" fill="#aaa"/>
      <path id="Path_27" data-name="Path 27" d="M3,.005A3.014,3.014,0,0,1,4.64.454,3.33,3.33,0,0,1,5.986,3,3.33,3.33,0,0,1,4.64,5.537,3.014,3.014,0,0,1,3,5.986a2.509,2.509,0,0,1-2.09-.9A2.952,2.952,0,0,1,.005,3,2.509,2.509,0,0,1,.905.9,2.509,2.509,0,0,1,3,.005Z" transform="translate(120.204 240.262)" fill="#aaa"/>
      <circle id="Ellipse_112" data-name="Ellipse 112" cx="2.99" cy="2.99" r="2.99" transform="translate(140.244 240.268)" fill="#aaa"/>
      <path id="Path_28" data-name="Path 28" d="M3,.005A3.014,3.014,0,0,1,4.64.454,3.33,3.33,0,0,1,5.986,3,3.33,3.33,0,0,1,4.64,5.537,3.014,3.014,0,0,1,3,5.986a2.509,2.509,0,0,1-2.09-.9A2.952,2.952,0,0,1,.005,3,2.509,2.509,0,0,1,.905.9,2.509,2.509,0,0,1,3,.005Z" transform="translate(120.204 220.227)" fill="#aaa"/>
      <circle id="Ellipse_113" data-name="Ellipse 113" cx="2.99" cy="2.99" r="2.99" transform="translate(140.244 220.233)" fill="#aaa"/>
      <circle id="Ellipse_114" data-name="Ellipse 114" cx="2.99" cy="2.99" r="2.99" transform="translate(150.261 230.251)" fill="#aaa"/>
      <circle id="Ellipse_115" data-name="Ellipse 115" cx="2.99" cy="2.99" r="2.99" transform="translate(130.226 230.251)" fill="#aaa"/>
      <circle id="Ellipse_116" data-name="Ellipse 116" cx="2.99" cy="2.99" r="2.99" transform="translate(150.261 210.216)" fill="#aaa"/>
      <circle id="Ellipse_117" data-name="Ellipse 117" cx="2.99" cy="2.99" r="2.99" transform="translate(130.226 210.216)" fill="#aaa"/>
      <path id="Path_29" data-name="Path 29" d="M3,.005A3.014,3.014,0,0,1,4.64.454,3.33,3.33,0,0,1,5.986,3,3.33,3.33,0,0,1,4.64,5.537,3.014,3.014,0,0,1,3,5.986a2.509,2.509,0,0,1-2.09-.9A2.952,2.952,0,0,1,.005,3,2.509,2.509,0,0,1,.905.9,2.509,2.509,0,0,1,3,.005Z" transform="translate(160.273 160.123)" fill="#aaa"/>
      <path id="Path_30" data-name="Path 30" d="M2.991.005A3.014,3.014,0,0,1,4.636.454,3.33,3.33,0,0,1,5.982,3,3.33,3.33,0,0,1,4.636,5.537a3.014,3.014,0,0,1-1.645.449,2.509,2.509,0,0,1-2.09-.9A2.952,2.952,0,0,1,0,3,2.715,2.715,0,0,1,.9.9a2.509,2.509,0,0,1,2.09-.9Z" transform="translate(160.277 200.192)" fill="#aaa"/>
      <circle id="Ellipse_118" data-name="Ellipse 118" cx="2.99" cy="2.99" r="2.99" transform="translate(180.164 200.198)" fill="#aaa"/>
      <path id="Path_31" data-name="Path 31" d="M3,.005A3.014,3.014,0,0,1,4.64.454,3.33,3.33,0,0,1,5.986,3,3.33,3.33,0,0,1,4.64,5.537,3.014,3.014,0,0,1,3,5.986a2.509,2.509,0,0,1-2.09-.9A2.952,2.952,0,0,1,.005,3,2.509,2.509,0,0,1,.905.9,2.509,2.509,0,0,1,3,.005Z" transform="translate(160.273 180.158)" fill="#aaa"/>
      <circle id="Ellipse_119" data-name="Ellipse 119" cx="2.99" cy="2.99" r="2.99" transform="translate(180.164 180.164)" fill="#aaa"/>
      <circle id="Ellipse_120" data-name="Ellipse 120" cx="2.99" cy="2.99" r="2.99" transform="translate(190.181 190.181)" fill="#aaa"/>
      <circle id="Ellipse_121" data-name="Ellipse 121" cx="2.99" cy="2.99" r="2.99" transform="translate(170.296 190.181)" fill="#aaa"/>
      <circle id="Ellipse_122" data-name="Ellipse 122" cx="2.99" cy="2.99" r="2.99" transform="translate(170.296 170.146)" fill="#aaa"/>
      <path id="Path_32" data-name="Path 32" d="M3,.005A3.014,3.014,0,0,1,4.64.454,3.33,3.33,0,0,1,5.986,3,3.33,3.33,0,0,1,4.64,5.537,3.014,3.014,0,0,1,3,5.986a2.509,2.509,0,0,1-2.09-.9A2.952,2.952,0,0,1,.005,3,2.509,2.509,0,0,1,.905.9,2.509,2.509,0,0,1,3,.005Z" transform="translate(160.273 240.262)" fill="#aaa"/>
      <path id="Path_33" data-name="Path 33" d="M3,.005A3.014,3.014,0,0,1,4.64.454,3.33,3.33,0,0,1,5.986,3,3.33,3.33,0,0,1,4.64,5.537,3.014,3.014,0,0,1,3,5.986a2.509,2.509,0,0,1-2.09-.9A2.952,2.952,0,0,1,.005,3,2.509,2.509,0,0,1,.905.9,2.509,2.509,0,0,1,3,.005Z" transform="translate(160.273 220.227)" fill="#aaa"/>
      <circle id="Ellipse_124" data-name="Ellipse 124" cx="2.99" cy="2.99" r="2.99" transform="translate(180.164 220.233)" fill="#aaa"/>
      <circle id="Ellipse_125" data-name="Ellipse 125" cx="2.99" cy="2.99" r="2.99" transform="translate(190.181 230.251)" fill="#aaa"/>
      <circle id="Ellipse_126" data-name="Ellipse 126" cx="2.99" cy="2.99" r="2.99" transform="translate(170.296 230.251)" fill="#aaa"/>
      <circle id="Ellipse_127" data-name="Ellipse 127" cx="2.99" cy="2.99" r="2.99" transform="translate(190.181 210.216)" fill="#aaa"/>
      <circle id="Ellipse_128" data-name="Ellipse 128" cx="2.99" cy="2.99" r="2.99" transform="translate(170.296 210.216)" fill="#aaa"/>
      <path id="Path_34" data-name="Path 34" d="M2.99,0a2.99,2.99,0,1,1,0,5.981A3.055,3.055,0,0,1,0,3.589v-1.2A3.334,3.334,0,0,1,2.99,0Z" transform="translate(200.199 200.197)" fill="#aaa"/>
      <path id="Path_35" data-name="Path 35" d="M2.99,0a2.99,2.99,0,1,1,0,5.981A3.055,3.055,0,0,1,0,3.589v-1.2A3.334,3.334,0,0,1,2.99,0Z" transform="translate(200.199 240.267)" fill="#aaa"/>
      <circle id="Ellipse_129" data-name="Ellipse 129" cx="2.99" cy="2.99" r="2.99" transform="translate(220.233 240.268)" fill="#aaa"/>
      <path id="Path_36" data-name="Path 36" d="M2.99,0a2.99,2.99,0,1,1,0,5.981A3.055,3.055,0,0,1,0,3.589v-1.2A3.334,3.334,0,0,1,2.99,0Z" transform="translate(200.199 220.232)" fill="#aaa"/>
      <circle id="Ellipse_130" data-name="Ellipse 130" cx="2.99" cy="2.99" r="2.99" transform="translate(220.233 220.233)" fill="#aaa"/>
      <circle id="Ellipse_131" data-name="Ellipse 131" cx="2.99" cy="2.99" r="2.99" transform="translate(230.251 230.251)" fill="#aaa"/>
      <circle id="Ellipse_132" data-name="Ellipse 132" cx="2.99" cy="2.99" r="2.99" transform="translate(210.216 230.251)" fill="#aaa"/>
      <circle id="Ellipse_133" data-name="Ellipse 133" cx="2.99" cy="2.99" r="2.99" transform="translate(210.216 210.216)" fill="#aaa"/>
      <path id="Path_37" data-name="Path 37" d="M2.99,0A3.014,3.014,0,0,1,4.635.45,3.33,3.33,0,0,1,5.981,2.992,3.33,3.33,0,0,1,4.635,5.533a3.014,3.014,0,0,1-1.645.449A2.99,2.99,0,1,1,2.991,0Z" transform="translate(240.268 240.266)" fill="#aaa"/>
      <path id="Path_535" data-name="Path 535" d="M2.99,0a2.99,2.99,0,1,1,0,5.981A3.055,3.055,0,0,1,0,3.589v-1.2A3.334,3.334,0,0,1,2.99,0Z" transform="translate(180.846 240.267)" fill="#aaa"/>
    </g>
  </g>
</svg>
